# MagicaVoxel @ Ephtracy

# group
o 

# material
mtllib House.mtl
usemtl palette

# normals
vn -1 0 0
vn 1 0 0
vn 0 0 1
vn 0 0 -1
vn 0 -1 0
vn 0 1 0

# texcoords
vt 0.0332031 0.5
vt 0.396484 0.5
vt 0.537109 0.5

# verts
v -2.5 0 4.5
v -2.5 0 4
v -2.5 0 -4
v -2.5 0 -4.5
v -2.5 5 4.5
v -2.5 5 4
v -2.5 5 -4
v -2.5 5 -4.5
v -2.3 0 4
v -2.3 0 -4
v -2.3 5 4
v -2.3 5 -4
v 2 0 4.5
v 2 0 4.3
v 2 0 -4.3
v 2 0 -4.5
v 2 5 4.5
v 2 5 4.3
v 2 5 -4.3
v 2 5 -4.5
v -2 0 4.5
v -2 0 4.3
v -2 0 -4.3
v -2 0 -4.5
v -2 5 4.5
v -2 5 4.3
v -2 5 -4.3
v -2 5 -4.5
v 2.3 0 4
v 2.3 0 0.9
v 2.3 0 -0.7
v 2.3 0 -4
v 2.3 1.3 3.4
v 2.3 1.3 1.8
v 2.3 1.6 3.2
v 2.3 1.6 2.7
v 2.3 1.6 2.5
v 2.3 1.6 2
v 2.3 2.5 3.2
v 2.3 2.5 2.7
v 2.3 2.5 2.5
v 2.3 2.5 2
v 2.3 2.6 3.2
v 2.3 2.6 2.7
v 2.3 2.6 2.5
v 2.3 2.6 2
v 2.3 3.3 0.9
v 2.3 3.3 -0.7
v 2.3 3.5 3.2
v 2.3 3.5 2.7
v 2.3 3.5 2.5
v 2.3 3.5 2
v 2.3 3.7 3.4
v 2.3 3.7 1.8
v 2.3 5 4
v 2.3 5 -4
v 2.4 0 0.9
v 2.4 0 -0.7
v 2.4 1.3 3.4
v 2.4 1.3 1.8
v 2.4 1.6 3.2
v 2.4 1.6 2.7
v 2.4 1.6 2.5
v 2.4 1.6 2
v 2.4 2.5 3.2
v 2.4 2.5 2.7
v 2.4 2.5 2.5
v 2.4 2.5 2
v 2.4 2.6 3.2
v 2.4 2.6 2.7
v 2.4 2.6 2.5
v 2.4 2.6 2
v 2.4 3.3 0.9
v 2.4 3.3 -0.7
v 2.4 3.5 3.2
v 2.4 3.5 2.7
v 2.4 3.5 2.5
v 2.4 3.5 2
v 2.4 3.7 3.4
v 2.4 3.7 1.8
v 2.5 0 4.5
v 2.5 0 4
v 2.5 0 -4
v 2.5 0 -4.5
v 2.5 5 4.5
v 2.5 5 4
v 2.5 5 -4
v 2.5 5 -4.5
v -2.5 0 4.5
v -2.5 5 4.5
v -2 0 4.5
v -2 5 4.5
v 2 0 4.5
v 2 5 4.5
v 2.5 0 4.5
v 2.5 5 4.5
v -2 0 4.3
v -2 5 4.3
v 2 0 4.3
v 2 5 4.3
v 2.3 1.3 3.4
v 2.3 3.7 3.4
v 2.4 1.3 3.4
v 2.4 3.7 3.4
v 2.3 1.6 2.7
v 2.3 2.5 2.7
v 2.3 2.6 2.7
v 2.3 3.5 2.7
v 2.4 1.6 2.7
v 2.4 2.5 2.7
v 2.4 2.6 2.7
v 2.4 3.5 2.7
v 2.3 1.6 2
v 2.3 2.5 2
v 2.3 2.6 2
v 2.3 3.5 2
v 2.4 1.6 2
v 2.4 2.5 2
v 2.4 2.6 2
v 2.4 3.5 2
v 2.3 0 0.9
v 2.3 3.3 0.9
v 2.4 0 0.9
v 2.4 3.3 0.9
v -2.5 0 -4
v -2.5 5 -4
v -2.3 0 -4
v -2.3 5 -4
v 2.3 0 -4
v 2.3 5 -4
v 2.5 0 -4
v 2.5 5 -4
v -2.5 0 4
v -2.5 5 4
v -2.3 0 4
v -2.3 5 4
v 2.3 0 4
v 2.3 5 4
v 2.5 0 4
v 2.5 5 4
v 2.3 1.6 3.2
v 2.3 2.5 3.2
v 2.3 2.6 3.2
v 2.3 3.5 3.2
v 2.4 1.6 3.2
v 2.4 2.5 3.2
v 2.4 2.6 3.2
v 2.4 3.5 3.2
v 2.3 1.6 2.5
v 2.3 2.5 2.5
v 2.3 2.6 2.5
v 2.3 3.5 2.5
v 2.4 1.6 2.5
v 2.4 2.5 2.5
v 2.4 2.6 2.5
v 2.4 3.5 2.5
v 2.3 1.3 1.8
v 2.3 3.7 1.8
v 2.4 1.3 1.8
v 2.4 3.7 1.8
v 2.3 0 -0.7
v 2.3 3.3 -0.7
v 2.4 0 -0.7
v 2.4 3.3 -0.7
v -2 0 -4.3
v -2 5 -4.3
v 2 0 -4.3
v 2 5 -4.3
v -2.5 0 -4.5
v -2.5 5 -4.5
v -2 0 -4.5
v -2 5 -4.5
v 2 0 -4.5
v 2 5 -4.5
v 2.5 0 -4.5
v 2.5 5 -4.5
v -2.5 0 4.5
v -2 0 4.5
v 2 0 4.5
v 2.5 0 4.5
v -2 0 4.3
v 2 0 4.3
v -2.5 0 4
v -2.3 0 4
v -2 0 4
v 2 0 4
v 2.3 0 4
v 2.5 0 4
v 2.3 0 0.9
v 2.4 0 0.9
v 2.3 0 -0.7
v 2.4 0 -0.7
v -2.5 0 -4
v -2.3 0 -4
v -2 0 -4
v 2 0 -4
v 2.3 0 -4
v 2.5 0 -4
v -2 0 -4.3
v 2 0 -4.3
v -2.5 0 -4.5
v -2 0 -4.5
v 2 0 -4.5
v 2.5 0 -4.5
v 2.3 1.3 3.4
v 2.4 1.3 3.4
v 2.3 1.3 1.8
v 2.4 1.3 1.8
v 2.3 2.5 3.2
v 2.4 2.5 3.2
v 2.3 2.5 2.7
v 2.4 2.5 2.7
v 2.3 2.5 2.5
v 2.4 2.5 2.5
v 2.3 2.5 2
v 2.4 2.5 2
v 2.3 3.5 3.2
v 2.4 3.5 3.2
v 2.3 3.5 2.7
v 2.4 3.5 2.7
v 2.3 3.5 2.5
v 2.4 3.5 2.5
v 2.3 3.5 2
v 2.4 3.5 2
v 2.3 1.6 3.2
v 2.4 1.6 3.2
v 2.3 1.6 2.7
v 2.4 1.6 2.7
v 2.3 1.6 2.5
v 2.4 1.6 2.5
v 2.3 1.6 2
v 2.4 1.6 2
v 2.3 2.6 3.2
v 2.4 2.6 3.2
v 2.3 2.6 2.7
v 2.4 2.6 2.7
v 2.3 2.6 2.5
v 2.4 2.6 2.5
v 2.3 2.6 2
v 2.4 2.6 2
v 2.3 3.3 0.9
v 2.4 3.3 0.9
v 2.3 3.3 -0.7
v 2.4 3.3 -0.7
v 2.3 3.7 3.4
v 2.4 3.7 3.4
v 2.3 3.7 1.8
v 2.4 3.7 1.8
v -2.5 5 4.5
v -2 5 4.5
v 2 5 4.5
v 2.5 5 4.5
v -2 5 4.3
v 2 5 4.3
v -2.5 5 4
v -2.3 5 4
v -2 5 4
v 2 5 4
v 2.3 5 4
v 2.5 5 4
v -2.5 5 -4
v -2.3 5 -4
v -2 5 -4
v 2 5 -4
v 2.3 5 -4
v 2.5 5 -4
v -2 5 -4.3
v 2 5 -4.3
v -2.5 5 -4.5
v -2 5 -4.5
v 2 5 -4.5
v 2.5 5 -4.5

# faces
f 5/2/1 2/2/1 1/2/1
f 6/2/1 2/2/1 5/2/1
f 7/2/1 4/2/1 3/2/1
f 8/2/1 4/2/1 7/2/1
f 11/1/1 10/1/1 9/1/1
f 12/1/1 10/1/1 11/1/1
f 17/2/1 14/2/1 13/2/1
f 18/2/1 14/2/1 17/2/1
f 19/2/1 16/2/1 15/2/1
f 20/2/1 16/2/1 19/2/1
f 21/2/2 22/2/2 25/2/2
f 25/2/2 22/2/2 26/2/2
f 23/2/2 24/2/2 27/2/2
f 27/2/2 24/2/2 28/2/2
f 29/1/2 30/1/2 33/1/2
f 33/1/2 30/1/2 34/1/2
f 35/1/2 36/1/2 39/1/2
f 39/1/2 36/1/2 40/1/2
f 37/1/2 38/1/2 41/1/2
f 41/1/2 38/1/2 42/1/2
f 34/1/2 30/1/2 47/1/2
f 31/1/2 32/1/2 48/1/2
f 43/1/2 44/1/2 49/1/2
f 49/1/2 44/1/2 50/1/2
f 45/1/2 46/1/2 51/1/2
f 51/1/2 46/1/2 52/1/2
f 29/1/2 33/1/2 53/1/2
f 34/1/2 47/1/2 54/1/2
f 47/1/2 48/1/2 54/1/2
f 29/1/2 53/1/2 55/1/2
f 53/1/2 54/1/2 55/1/2
f 54/1/2 48/1/2 56/1/2
f 55/1/2 54/1/2 56/1/2
f 48/1/2 32/1/2 56/1/2
f 59/3/2 60/3/2 61/3/2
f 61/3/2 60/3/2 62/3/2
f 62/3/2 60/3/2 63/3/2
f 63/3/2 60/3/2 64/3/2
f 59/3/2 61/3/2 65/3/2
f 62/3/2 63/3/2 66/3/2
f 66/3/2 63/3/2 67/3/2
f 64/3/2 60/3/2 68/3/2
f 66/3/2 67/3/2 69/3/2
f 67/3/2 68/3/2 69/3/2
f 59/3/2 65/3/2 69/3/2
f 65/3/2 66/3/2 69/3/2
f 69/3/2 68/3/2 70/3/2
f 70/3/2 68/3/2 71/3/2
f 68/3/2 60/3/2 72/3/2
f 71/3/2 68/3/2 72/3/2
f 57/3/2 58/3/2 73/3/2
f 73/3/2 58/3/2 74/3/2
f 59/3/2 69/3/2 75/3/2
f 70/3/2 71/3/2 76/3/2
f 76/3/2 71/3/2 77/3/2
f 72/3/2 60/3/2 78/3/2
f 76/3/2 77/3/2 79/3/2
f 77/3/2 78/3/2 79/3/2
f 59/3/2 75/3/2 79/3/2
f 75/3/2 76/3/2 79/3/2
f 78/3/2 60/3/2 80/3/2
f 79/3/2 78/3/2 80/3/2
f 81/2/2 82/2/2 85/2/2
f 85/2/2 82/2/2 86/2/2
f 83/2/2 84/2/2 87/2/2
f 87/2/2 84/2/2 88/2/2
f 91/2/3 90/2/3 89/2/3
f 92/2/3 90/2/3 91/2/3
f 95/2/3 94/2/3 93/2/3
f 96/2/3 94/2/3 95/2/3
f 99/1/3 98/1/3 97/1/3
f 100/1/3 98/1/3 99/1/3
f 103/3/3 102/3/3 101/3/3
f 104/3/3 102/3/3 103/3/3
f 109/3/3 106/3/3 105/3/3
f 110/3/3 106/3/3 109/3/3
f 111/3/3 108/3/3 107/3/3
f 112/3/3 108/3/3 111/3/3
f 117/3/3 114/3/3 113/3/3
f 118/3/3 114/3/3 117/3/3
f 119/3/3 116/3/3 115/3/3
f 120/3/3 116/3/3 119/3/3
f 123/3/3 122/3/3 121/3/3
f 124/3/3 122/3/3 123/3/3
f 127/2/3 126/2/3 125/2/3
f 128/2/3 126/2/3 127/2/3
f 131/2/3 130/2/3 129/2/3
f 132/2/3 130/2/3 131/2/3
f 133/2/4 134/2/4 135/2/4
f 135/2/4 134/2/4 136/2/4
f 137/2/4 138/2/4 139/2/4
f 139/2/4 138/2/4 140/2/4
f 141/3/4 142/3/4 145/3/4
f 145/3/4 142/3/4 146/3/4
f 143/3/4 144/3/4 147/3/4
f 147/3/4 144/3/4 148/3/4
f 149/3/4 150/3/4 153/3/4
f 153/3/4 150/3/4 154/3/4
f 151/3/4 152/3/4 155/3/4
f 155/3/4 152/3/4 156/3/4
f 157/3/4 158/3/4 159/3/4
f 159/3/4 158/3/4 160/3/4
f 161/3/4 162/3/4 163/3/4
f 163/3/4 162/3/4 164/3/4
f 165/1/4 166/1/4 167/1/4
f 167/1/4 166/1/4 168/1/4
f 169/2/4 170/2/4 171/2/4
f 171/2/4 170/2/4 172/2/4
f 173/2/4 174/2/4 175/2/4
f 175/2/4 174/2/4 176/2/4
f 181/2/5 178/2/5 177/2/5
f 182/2/5 180/2/5 179/2/5
f 183/2/5 181/2/5 177/2/5
f 184/2/5 181/2/5 183/2/5
f 185/1/5 182/1/5 181/1/5
f 185/2/5 181/2/5 184/2/5
f 186/2/5 180/2/5 182/2/5
f 186/1/5 182/1/5 185/1/5
f 187/2/5 180/2/5 186/2/5
f 188/2/5 180/2/5 187/2/5
f 189/1/5 187/1/5 186/1/5
f 191/1/5 189/1/5 186/1/5
f 191/3/5 190/3/5 189/3/5
f 192/3/5 190/3/5 191/3/5
f 194/1/5 185/1/5 184/1/5
f 195/3/5 186/3/5 185/3/5
f 195/1/5 185/1/5 194/1/5
f 196/1/5 191/1/5 186/1/5
f 196/3/5 186/3/5 195/3/5
f 197/1/5 191/1/5 196/1/5
f 199/2/5 194/2/5 193/2/5
f 199/2/5 195/2/5 194/2/5
f 199/1/5 196/1/5 195/1/5
f 200/2/5 197/2/5 196/2/5
f 200/1/5 196/1/5 199/1/5
f 200/2/5 198/2/5 197/2/5
f 201/2/5 199/2/5 193/2/5
f 202/2/5 199/2/5 201/2/5
f 203/2/5 198/2/5 200/2/5
f 204/2/5 198/2/5 203/2/5
f 207/3/5 206/3/5 205/3/5
f 208/3/5 206/3/5 207/3/5
f 211/3/5 210/3/5 209/3/5
f 212/3/5 210/3/5 211/3/5
f 215/3/5 214/3/5 213/3/5
f 216/3/5 214/3/5 215/3/5
f 219/3/5 218/3/5 217/3/5
f 220/3/5 218/3/5 219/3/5
f 223/3/5 222/3/5 221/3/5
f 224/3/5 222/3/5 223/3/5
f 225/3/6 226/3/6 227/3/6
f 227/3/6 226/3/6 228/3/6
f 229/3/6 230/3/6 231/3/6
f 231/3/6 230/3/6 232/3/6
f 233/3/6 234/3/6 235/3/6
f 235/3/6 234/3/6 236/3/6
f 237/3/6 238/3/6 239/3/6
f 239/3/6 238/3/6 240/3/6
f 241/3/6 242/3/6 243/3/6
f 243/3/6 242/3/6 244/3/6
f 245/3/6 246/3/6 247/3/6
f 247/3/6 246/3/6 248/3/6
f 249/2/6 250/2/6 253/2/6
f 251/2/6 252/2/6 254/2/6
f 249/2/6 253/2/6 255/2/6
f 255/2/6 253/2/6 256/2/6
f 253/1/6 254/1/6 257/1/6
f 256/2/6 253/2/6 257/2/6
f 254/2/6 252/2/6 258/2/6
f 257/1/6 254/1/6 258/1/6
f 258/2/6 252/2/6 259/2/6
f 259/2/6 252/2/6 260/2/6
f 256/1/6 257/1/6 262/1/6
f 257/3/6 258/3/6 263/3/6
f 262/1/6 257/1/6 263/1/6
f 258/1/6 259/1/6 264/1/6
f 263/3/6 258/3/6 264/3/6
f 264/1/6 259/1/6 265/1/6
f 262/2/6 263/2/6 267/2/6
f 261/2/6 262/2/6 267/2/6
f 263/1/6 264/1/6 267/1/6
f 265/2/6 266/2/6 268/2/6
f 267/1/6 264/1/6 268/1/6
f 264/2/6 265/2/6 268/2/6
f 261/2/6 267/2/6 269/2/6
f 269/2/6 267/2/6 270/2/6
f 268/2/6 266/2/6 271/2/6
f 271/2/6 266/2/6 272/2/6
