# MagicaVoxel @ Ephtracy

# group
o 

# material
mtllib Olta.mtl
usemtl palette

# normals
vn -1 0 0
vn 1 0 0
vn 0 0 1
vn 0 0 -1
vn 0 -1 0
vn 0 1 0

# texcoords
vt 0.783203 0.5
vt 0.814453 0.5
vt 0.876953 0.5
vt 0.908203 0.5
vt 0.939453 0.5
vt 0.970703 0.5

# verts
v 0.5 0.7 2.4
v 0.5 0.7 2.3
v 0.5 0.8 2.5
v 0.5 0.8 2.4
v 0.5 0.8 2.3
v 0.5 0.8 2.2
v 0.5 0.9 2.5
v 0.5 0.9 2.4
v 0.5 0.9 2.3
v 0.5 0.9 2.2
v 0.5 1 2.4
v 0.5 1 2.3
v 0.6 0.7 2.5
v 0.6 0.7 2.4
v 0.6 0.7 2.3
v 0.6 0.7 2.2
v 0.6 0.8 2.5
v 0.6 0.8 2.4
v 0.6 0.8 2.3
v 0.6 0.8 2.2
v 0.6 0.9 2.5
v 0.6 0.9 2.4
v 0.6 0.9 2.3
v 0.6 0.9 2.2
v 0.6 1 2.5
v 0.6 1 2.4
v 0.6 1 2.3
v 0.6 1 2.2
v 0.6 1.1 2.4
v 0.6 1.1 2.3
v 0.6 1.1 2.2
v 0.6 1.2 2.3
v 0.6 1.2 2.2
v 0.7 1.2 2.3
v 0.7 1.2 2.2
v 0.7 1.4 2.3
v 0.7 1.4 2.2
v 0.7 1.4 2.1
v 0.7 1.7 2.2
v 0.7 1.7 2.1
v 0.7 1.7 2
v 0.7 2 2.1
v 0.7 2 2
v 0.7 2 1.9
v 0.7 2.2 2
v 0.7 2.2 1.9
v 0.7 2.2 1.8
v 0.7 2.5 1.9
v 0.7 2.5 1.8
v 0.7 2.5 1.7
v 0.7 2.8 1.8
v 0.7 2.8 1.7
v 0.8 1.4 0.0999999
v 0.8 1.4 -0.1
v 0.8 1.5 0.2
v 0.8 1.5 0.0999999
v 0.8 1.5 -0.1
v 0.8 1.5 -0.2
v 0.8 1.7 0.2
v 0.8 1.7 0.0999999
v 0.8 1.7 -0.1
v 0.8 1.7 -0.2
v 0.8 1.8 0.0999999
v 0.8 1.8 -0.1
v 0.8 2.8 1.7
v 0.8 2.8 1.6
v 0.8 3 0.3
v 0.8 3 -0.2
v 0.8 3.1 1.7
v 0.8 3.1 1.6
v 0.8 3.1 1.5
v 0.8 3.1 0.3
v 0.8 3.1 -0.2
v 0.8 3.3 1.6
v 0.8 3.3 1.5
v 0.8 3.3 1.4
v 0.8 3.6 1.5
v 0.8 3.6 1.4
v 0.8 3.6 1.3
v 0.8 3.9 1.4
v 0.8 3.9 1.3
v 0.8 3.9 1.2
v 0.8 4.1 1.3
v 0.8 4.1 1.2
v 0.8 4.1 1.1
v 0.8 4.4 1.2
v 0.8 4.4 1.1
v 0.8 4.6 0.2
v 0.8 4.6 -0.1
v 0.8 4.7 0.2
v 0.8 4.7 -0.1
v 0.8 6.1 0.3
v 0.8 6.1 -0.1
v 0.8 6.2 0.3
v 0.8 6.2 -0.1
v 0.9 0.4 0.2
v 0.9 0.4 -2.38419e-07
v 0.9 1.4 0.0999999
v 0.9 1.4 -2.38419e-07
v 0.9 1.5 0.2
v 0.9 1.5 0.0999999
v 0.9 1.7 0.2
v 0.9 1.7 0.0999999
v 0.9 1.8 0.0999999
v 0.9 1.8 -0.1
v 0.9 3 0.2
v 0.9 3 -0.1
v 0.9 3.1 0.2
v 0.9 3.1 -0.1
v 0.9 4.4 1.1
v 0.9 4.4 1
v 0.9 4.6 0.3
v 0.9 4.6 0.2
v 0.9 4.6 -0.1
v 0.9 4.7 1.1
v 0.9 4.7 1
v 0.9 4.7 0.9
v 0.9 4.7 0.3
v 0.9 4.7 0.2
v 0.9 4.7 -2.38419e-07
v 0.9 5 1
v 0.9 5 0.9
v 0.9 5 0.8
v 0.9 5.2 0.9
v 0.9 5.2 0.8
v 0.9 5.2 0.7
v 0.9 5.5 0.8
v 0.9 5.5 0.7
v 0.9 5.5 0.6
v 0.9 5.8 0.7
v 0.9 5.8 0.6
v 0.9 5.8 0.5
v 0.9 6 0.6
v 0.9 6 0.5
v 0.9 6.1 0.2
v 0.9 6.1 -2.38419e-07
v 0.9 6.2 0.2
v 0.9 6.2 0.0999999
v 0.9 6.2 -2.38419e-07
v 0.9 6.3 0.0999999
v 0.9 6.3 -2.38419e-07
v 0.9 6.7 0.0999999
v 0.9 6.7 -2.38419e-07
v 0.9 6.8 0.2
v 0.9 6.8 0.0999999
v 0.9 6.8 -2.38419e-07
v 1 0.4 -2.38419e-07
v 1 0.4 -0.1
v 1 1.4 -2.38419e-07
v 1 1.4 -0.1
v 1 6 0.6
v 1 6 0.5
v 1 6.1 0.6
v 1 6.1 0.5
v 1 6.1 0.4
v 1 6.3 0.5
v 1 6.3 0.4
v 1 6.3 0.3
v 1 6.6 0.4
v 1 6.6 0.3
v 1 6.6 0.2
v 1 6.8 0.3
v 1 6.8 0.2
v 1.5 1.6 0.4
v 1.5 1.6 0.3
v 1.5 1.6 0.0999999
v 1.5 1.7 0.4
v 1.5 1.7 0.3
v 1.5 1.7 0.0999999
v 0.7 0.7 2.5
v 0.7 0.7 2.4
v 0.7 0.7 2.3
v 0.7 0.7 2.2
v 0.7 0.8 2.5
v 0.7 0.8 2.4
v 0.7 0.8 2.3
v 0.7 0.8 2.2
v 0.7 0.9 2.5
v 0.7 0.9 2.4
v 0.7 0.9 2.3
v 0.7 0.9 2.2
v 0.7 1 2.5
v 0.7 1 2.4
v 0.7 1 2.3
v 0.7 1 2.2
v 0.7 1.1 2.4
v 0.7 1.1 2.3
v 0.7 1.1 2.2
v 0.7 1.2 2.3
v 0.7 1.2 2.2
v 0.8 0.7 2.4
v 0.8 0.7 2.3
v 0.8 0.8 2.5
v 0.8 0.8 2.4
v 0.8 0.8 2.3
v 0.8 0.8 2.2
v 0.8 0.9 2.5
v 0.8 0.9 2.4
v 0.8 0.9 2.3
v 0.8 0.9 2.2
v 0.8 1 2.4
v 0.8 1 2.3
v 0.8 1.2 2.3
v 0.8 1.2 2.2
v 0.8 1.4 2.3
v 0.8 1.4 2.2
v 0.8 1.4 2.1
v 0.8 1.7 2.2
v 0.8 1.7 2.1
v 0.8 1.7 2
v 0.8 2 2.1
v 0.8 2 2
v 0.8 2 1.9
v 0.8 2.2 2
v 0.8 2.2 1.9
v 0.8 2.2 1.8
v 0.8 2.5 1.9
v 0.8 2.5 1.8
v 0.8 2.5 1.7
v 0.8 2.8 1.8
v 0.8 2.8 1.7
v 0.9 2.8 1.7
v 0.9 2.8 1.6
v 0.9 3.1 1.7
v 0.9 3.1 1.6
v 0.9 3.1 1.5
v 0.9 3.3 1.6
v 0.9 3.3 1.5
v 0.9 3.3 1.4
v 0.9 3.6 1.5
v 0.9 3.6 1.4
v 0.9 3.6 1.3
v 0.9 3.9 1.4
v 0.9 3.9 1.3
v 0.9 3.9 1.2
v 0.9 4.1 1.3
v 0.9 4.1 1.2
v 0.9 4.1 1.1
v 0.9 4.4 1.2
v 0.9 4.4 1.1
v 1 4.4 1.1
v 1 4.4 1
v 1 4.7 1.1
v 1 4.7 1
v 1 4.7 0.9
v 1 5 1
v 1 5 0.9
v 1 5 0.8
v 1 5.2 0.9
v 1 5.2 0.8
v 1 5.2 0.7
v 1 5.5 0.8
v 1 5.5 0.7
v 1 5.5 0.6
v 1 5.8 0.7
v 1 5.8 0.6
v 1 5.8 0.5
v 1 6 0.6
v 1 6 0.5
v 1 6.2 0.2
v 1 6.2 0.0999999
v 1 6.3 0.0999999
v 1 6.6 0.2
v 1 6.7 0.2
v 1 6.7 0.0999999
v 1 6.7 -2.38419e-07
v 1 6.8 0.0999999
v 1 6.8 -2.38419e-07
v 1.1 0.4 -2.38419e-07
v 1.1 0.4 -0.1
v 1.1 1.4 -2.38419e-07
v 1.1 1.4 -0.1
v 1.1 4.6 -2.38419e-07
v 1.1 4.6 -0.1
v 1.1 4.7 0.2
v 1.1 4.7 -2.38419e-07
v 1.1 4.7 -0.1
v 1.1 6 0.6
v 1.1 6 0.5
v 1.1 6.1 0.6
v 1.1 6.1 0.5
v 1.1 6.1 0.4
v 1.1 6.1 0.2
v 1.1 6.1 -2.38419e-07
v 1.1 6.2 0.0999999
v 1.1 6.2 -2.38419e-07
v 1.1 6.3 0.5
v 1.1 6.3 0.4
v 1.1 6.3 0.3
v 1.1 6.3 0.0999999
v 1.1 6.3 -2.38419e-07
v 1.1 6.6 0.4
v 1.1 6.6 0.3
v 1.1 6.6 0.2
v 1.1 6.7 0.2
v 1.1 6.7 0.0999999
v 1.1 6.8 0.3
v 1.1 6.8 0.2
v 1.1 6.8 0.0999999
v 1.2 0.4 0.2
v 1.2 0.4 -2.38419e-07
v 1.2 1.4 0.0999999
v 1.2 1.4 -2.38419e-07
v 1.2 1.5 0.2
v 1.2 1.5 0.0999999
v 1.2 1.7 0.2
v 1.2 1.7 0.0999999
v 1.2 1.8 0.0999999
v 1.2 1.8 -0.1
v 1.2 3 0.2
v 1.2 3 -0.1
v 1.2 3.1 0.2
v 1.2 3.1 -0.1
v 1.2 4.6 0.3
v 1.2 4.6 0.2
v 1.2 4.6 -2.38419e-07
v 1.2 4.6 -0.1
v 1.2 4.7 0.3
v 1.2 4.7 -2.38419e-07
v 1.2 6.1 0.3
v 1.2 6.1 -0.1
v 1.2 6.2 0.3
v 1.2 6.2 -0.1
v 1.3 1.4 0.0999999
v 1.3 1.4 -0.1
v 1.3 1.5 0.2
v 1.3 1.5 0.0999999
v 1.3 1.5 -0.1
v 1.3 1.5 -0.2
v 1.3 1.6 0.0999999
v 1.3 1.6 -2.38419e-07
v 1.3 1.7 0.2
v 1.3 1.7 0.0999999
v 1.3 1.7 -2.38419e-07
v 1.3 1.7 -0.1
v 1.3 1.7 -0.2
v 1.3 1.8 0.0999999
v 1.3 1.8 -0.1
v 1.3 3 0.3
v 1.3 3 -0.2
v 1.3 3.1 0.3
v 1.3 3.1 -0.2
v 1.6 1.6 0.3
v 1.6 1.6 -2.38419e-07
v 1.6 1.7 0.3
v 1.6 1.7 -2.38419e-07
v 1.9 1.6 0.4
v 1.9 1.6 0.3
v 1.9 1.7 0.4
v 1.9 1.7 0.3
v 0.5 0.8 2.5
v 0.5 0.9 2.5
v 0.6 0.7 2.5
v 0.6 0.8 2.5
v 0.6 0.9 2.5
v 0.6 1 2.5
v 0.7 0.7 2.5
v 0.7 0.8 2.5
v 0.7 0.9 2.5
v 0.7 1 2.5
v 0.8 0.8 2.5
v 0.8 0.9 2.5
v 0.5 0.7 2.4
v 0.5 0.8 2.4
v 0.5 0.9 2.4
v 0.5 1 2.4
v 0.6 0.7 2.4
v 0.6 0.8 2.4
v 0.6 0.9 2.4
v 0.6 1 2.4
v 0.6 1.1 2.4
v 0.7 0.7 2.4
v 0.7 0.8 2.4
v 0.7 0.9 2.4
v 0.7 1 2.4
v 0.7 1.1 2.4
v 0.8 0.7 2.4
v 0.8 0.8 2.4
v 0.8 0.9 2.4
v 0.8 1 2.4
v 0.6 1.1 2.3
v 0.6 1.2 2.3
v 0.7 1.1 2.3
v 0.7 1.2 2.3
v 0.7 1.4 2.3
v 0.8 1.2 2.3
v 0.8 1.4 2.3
v 0.7 1.4 2.2
v 0.7 1.7 2.2
v 0.8 1.4 2.2
v 0.8 1.7 2.2
v 0.7 1.7 2.1
v 0.7 2 2.1
v 0.8 1.7 2.1
v 0.8 2 2.1
v 0.7 2 2
v 0.7 2.2 2
v 0.8 2 2
v 0.8 2.2 2
v 0.7 2.2 1.9
v 0.7 2.5 1.9
v 0.8 2.2 1.9
v 0.8 2.5 1.9
v 0.7 2.5 1.8
v 0.7 2.8 1.8
v 0.8 2.5 1.8
v 0.8 2.8 1.8
v 0.8 2.8 1.7
v 0.8 3.1 1.7
v 0.9 2.8 1.7
v 0.9 3.1 1.7
v 0.8 3.1 1.6
v 0.8 3.3 1.6
v 0.9 3.1 1.6
v 0.9 3.3 1.6
v 0.8 3.3 1.5
v 0.8 3.6 1.5
v 0.9 3.3 1.5
v 0.9 3.6 1.5
v 0.8 3.6 1.4
v 0.8 3.9 1.4
v 0.9 3.6 1.4
v 0.9 3.9 1.4
v 0.8 3.9 1.3
v 0.8 4.1 1.3
v 0.9 3.9 1.3
v 0.9 4.1 1.3
v 0.8 4.1 1.2
v 0.8 4.4 1.2
v 0.9 4.1 1.2
v 0.9 4.4 1.2
v 0.9 4.4 1.1
v 0.9 4.7 1.1
v 1 4.4 1.1
v 1 4.7 1.1
v 0.9 4.7 1
v 0.9 5 1
v 1 4.7 1
v 1 5 1
v 0.9 5 0.9
v 0.9 5.2 0.9
v 1 5 0.9
v 1 5.2 0.9
v 0.9 5.2 0.8
v 0.9 5.5 0.8
v 1 5.2 0.8
v 1 5.5 0.8
v 0.9 5.5 0.7
v 0.9 5.8 0.7
v 1 5.5 0.7
v 1 5.8 0.7
v 0.9 5.8 0.6
v 0.9 6 0.6
v 1 5.8 0.6
v 1 6 0.6
v 1 6.1 0.6
v 1.1 6 0.6
v 1.1 6.1 0.6
v 1 6.1 0.5
v 1 6.3 0.5
v 1.1 6.1 0.5
v 1.1 6.3 0.5
v 1 6.3 0.4
v 1 6.6 0.4
v 1.1 6.3 0.4
v 1.1 6.6 0.4
v 1.5 1.6 0.4
v 1.5 1.7 0.4
v 1.9 1.6 0.4
v 1.9 1.7 0.4
v 0.8 3 0.3
v 0.8 3.1 0.3
v 0.8 6.1 0.3
v 0.8 6.2 0.3
v 0.9 4.6 0.3
v 0.9 4.7 0.3
v 1 6.6 0.3
v 1 6.8 0.3
v 1.1 6.6 0.3
v 1.1 6.8 0.3
v 1.2 4.6 0.3
v 1.2 4.7 0.3
v 1.2 6.1 0.3
v 1.2 6.2 0.3
v 1.3 3 0.3
v 1.3 3.1 0.3
v 0.8 1.5 0.2
v 0.8 1.7 0.2
v 0.8 4.6 0.2
v 0.8 4.7 0.2
v 0.9 0.4 0.2
v 0.9 1.5 0.2
v 0.9 1.7 0.2
v 0.9 3 0.2
v 0.9 3.1 0.2
v 0.9 4.6 0.2
v 0.9 4.7 0.2
v 0.9 6.1 0.2
v 0.9 6.2 0.2
v 0.9 6.8 0.2
v 1 6.2 0.2
v 1 6.6 0.2
v 1 6.8 0.2
v 1.1 4.7 0.2
v 1.1 6.1 0.2
v 1.2 0.4 0.2
v 1.2 1.5 0.2
v 1.2 1.7 0.2
v 1.2 3 0.2
v 1.2 3.1 0.2
v 1.2 4.6 0.2
v 1.3 1.5 0.2
v 1.3 1.7 0.2
v 0.8 1.4 0.0999999
v 0.8 1.5 0.0999999
v 0.8 1.7 0.0999999
v 0.8 1.8 0.0999999
v 0.9 1.4 0.0999999
v 0.9 1.5 0.0999999
v 0.9 1.7 0.0999999
v 0.9 1.8 0.0999999
v 1 6.2 0.0999999
v 1 6.3 0.0999999
v 1.1 6.2 0.0999999
v 1.1 6.3 0.0999999
v 1.2 1.4 0.0999999
v 1.2 1.5 0.0999999
v 1.2 1.7 0.0999999
v 1.2 1.8 0.0999999
v 1.3 1.4 0.0999999
v 1.3 1.5 0.0999999
v 1.3 1.6 0.0999999
v 1.3 1.7 0.0999999
v 1.3 1.8 0.0999999
v 1.5 1.6 0.0999999
v 1.5 1.7 0.0999999
v 0.5 0.7 2.3
v 0.5 0.8 2.3
v 0.5 0.9 2.3
v 0.5 1 2.3
v 0.6 0.7 2.3
v 0.6 0.8 2.3
v 0.6 0.9 2.3
v 0.6 1 2.3
v 0.6 1.1 2.3
v 0.7 0.7 2.3
v 0.7 0.8 2.3
v 0.7 0.9 2.3
v 0.7 1 2.3
v 0.7 1.1 2.3
v 0.8 0.7 2.3
v 0.8 0.8 2.3
v 0.8 0.9 2.3
v 0.8 1 2.3
v 0.5 0.8 2.2
v 0.5 0.9 2.2
v 0.6 0.7 2.2
v 0.6 0.8 2.2
v 0.6 0.9 2.2
v 0.6 1 2.2
v 0.6 1.1 2.2
v 0.6 1.2 2.2
v 0.7 0.7 2.2
v 0.7 0.8 2.2
v 0.7 0.9 2.2
v 0.7 1 2.2
v 0.7 1.1 2.2
v 0.7 1.2 2.2
v 0.7 1.4 2.2
v 0.8 0.8 2.2
v 0.8 0.9 2.2
v 0.8 1.2 2.2
v 0.8 1.4 2.2
v 0.7 1.4 2.1
v 0.7 1.7 2.1
v 0.8 1.4 2.1
v 0.8 1.7 2.1
v 0.7 1.7 2
v 0.7 2 2
v 0.8 1.7 2
v 0.8 2 2
v 0.7 2 1.9
v 0.7 2.2 1.9
v 0.8 2 1.9
v 0.8 2.2 1.9
v 0.7 2.2 1.8
v 0.7 2.5 1.8
v 0.8 2.2 1.8
v 0.8 2.5 1.8
v 0.7 2.5 1.7
v 0.7 2.8 1.7
v 0.8 2.5 1.7
v 0.8 2.8 1.7
v 0.8 2.8 1.6
v 0.8 3.1 1.6
v 0.9 2.8 1.6
v 0.9 3.1 1.6
v 0.8 3.1 1.5
v 0.8 3.3 1.5
v 0.9 3.1 1.5
v 0.9 3.3 1.5
v 0.8 3.3 1.4
v 0.8 3.6 1.4
v 0.9 3.3 1.4
v 0.9 3.6 1.4
v 0.8 3.6 1.3
v 0.8 3.9 1.3
v 0.9 3.6 1.3
v 0.9 3.9 1.3
v 0.8 3.9 1.2
v 0.8 4.1 1.2
v 0.9 3.9 1.2
v 0.9 4.1 1.2
v 0.8 4.1 1.1
v 0.8 4.4 1.1
v 0.9 4.1 1.1
v 0.9 4.4 1.1
v 0.9 4.4 1
v 0.9 4.7 1
v 1 4.4 1
v 1 4.7 1
v 0.9 4.7 0.9
v 0.9 5 0.9
v 1 4.7 0.9
v 1 5 0.9
v 0.9 5 0.8
v 0.9 5.2 0.8
v 1 5 0.8
v 1 5.2 0.8
v 0.9 5.2 0.7
v 0.9 5.5 0.7
v 1 5.2 0.7
v 1 5.5 0.7
v 0.9 5.5 0.6
v 0.9 5.8 0.6
v 1 5.5 0.6
v 1 5.8 0.6
v 0.9 5.8 0.5
v 0.9 6 0.5
v 1 5.8 0.5
v 1 6 0.5
v 1 6.1 0.5
v 1.1 6 0.5
v 1.1 6.1 0.5
v 1 6.1 0.4
v 1 6.3 0.4
v 1.1 6.1 0.4
v 1.1 6.3 0.4
v 1 6.3 0.3
v 1 6.6 0.3
v 1.1 6.3 0.3
v 1.1 6.6 0.3
v 1.6 1.6 0.3
v 1.6 1.7 0.3
v 1.9 1.6 0.3
v 1.9 1.7 0.3
v 1 6.6 0.2
v 1 6.7 0.2
v 1.1 6.6 0.2
v 1.1 6.7 0.2
v 0.9 6.3 0.0999999
v 0.9 6.7 0.0999999
v 1 6.3 0.0999999
v 1 6.7 0.0999999
v 1 6.8 0.0999999
v 1.1 6.7 0.0999999
v 1.1 6.8 0.0999999
v 0.9 0.4 -2.38419e-07
v 0.9 1.4 -2.38419e-07
v 0.9 4.7 -2.38419e-07
v 0.9 6.1 -2.38419e-07
v 0.9 6.2 -2.38419e-07
v 0.9 6.3 -2.38419e-07
v 0.9 6.7 -2.38419e-07
v 0.9 6.8 -2.38419e-07
v 1 0.4 -2.38419e-07
v 1 1.4 -2.38419e-07
v 1 6.7 -2.38419e-07
v 1 6.8 -2.38419e-07
v 1.1 0.4 -2.38419e-07
v 1.1 1.4 -2.38419e-07
v 1.1 4.6 -2.38419e-07
v 1.1 4.7 -2.38419e-07
v 1.1 6.1 -2.38419e-07
v 1.1 6.2 -2.38419e-07
v 1.1 6.3 -2.38419e-07
v 1.2 0.4 -2.38419e-07
v 1.2 1.4 -2.38419e-07
v 1.2 4.6 -2.38419e-07
v 1.2 4.7 -2.38419e-07
v 1.3 1.6 -2.38419e-07
v 1.3 1.7 -2.38419e-07
v 1.6 1.6 -2.38419e-07
v 1.6 1.7 -2.38419e-07
v 0.8 1.4 -0.1
v 0.8 1.5 -0.1
v 0.8 1.7 -0.1
v 0.8 1.8 -0.1
v 0.8 4.6 -0.1
v 0.8 4.7 -0.1
v 0.8 6.1 -0.1
v 0.8 6.2 -0.1
v 0.9 1.7 -0.1
v 0.9 1.8 -0.1
v 0.9 3 -0.1
v 0.9 3.1 -0.1
v 0.9 4.6 -0.1
v 1 0.4 -0.1
v 1 1.4 -0.1
v 1 1.5 -0.1
v 1.1 0.4 -0.1
v 1.1 1.4 -0.1
v 1.1 1.5 -0.1
v 1.1 4.6 -0.1
v 1.1 4.7 -0.1
v 1.2 1.7 -0.1
v 1.2 1.8 -0.1
v 1.2 3 -0.1
v 1.2 3.1 -0.1
v 1.2 4.6 -0.1
v 1.2 6.1 -0.1
v 1.2 6.2 -0.1
v 1.3 1.4 -0.1
v 1.3 1.5 -0.1
v 1.3 1.7 -0.1
v 1.3 1.8 -0.1
v 0.8 1.5 -0.2
v 0.8 1.7 -0.2
v 0.8 3 -0.2
v 0.8 3.1 -0.2
v 1.3 1.5 -0.2
v 1.3 1.7 -0.2
v 1.3 3 -0.2
v 1.3 3.1 -0.2
v 0.9 0.4 0.2
v 1.2 0.4 0.2
v 0.9 0.4 -2.38419e-07
v 1 0.4 -2.38419e-07
v 1.1 0.4 -2.38419e-07
v 1.2 0.4 -2.38419e-07
v 1 0.4 -0.1
v 1.1 0.4 -0.1
v 0.6 0.7 2.5
v 0.7 0.7 2.5
v 0.5 0.7 2.4
v 0.6 0.7 2.4
v 0.7 0.7 2.4
v 0.8 0.7 2.4
v 0.5 0.7 2.3
v 0.6 0.7 2.3
v 0.7 0.7 2.3
v 0.8 0.7 2.3
v 0.6 0.7 2.2
v 0.7 0.7 2.2
v 0.5 0.8 2.5
v 0.6 0.8 2.5
v 0.7 0.8 2.5
v 0.8 0.8 2.5
v 0.5 0.8 2.4
v 0.6 0.8 2.4
v 0.7 0.8 2.4
v 0.8 0.8 2.4
v 0.5 0.8 2.3
v 0.6 0.8 2.3
v 0.7 0.8 2.3
v 0.8 0.8 2.3
v 0.5 0.8 2.2
v 0.6 0.8 2.2
v 0.7 0.8 2.2
v 0.8 0.8 2.2
v 0.6 1.1 2.3
v 0.7 1.1 2.3
v 0.6 1.1 2.2
v 0.7 1.1 2.2
v 0.7 1.2 2.3
v 0.8 1.2 2.3
v 0.7 1.2 2.2
v 0.8 1.2 2.2
v 0.7 1.4 2.2
v 0.8 1.4 2.2
v 0.7 1.4 2.1
v 0.8 1.4 2.1
v 0.8 1.4 0.0999999
v 0.9 1.4 0.0999999
v 1.2 1.4 0.0999999
v 1.3 1.4 0.0999999
v 0.9 1.4 -2.38419e-07
v 1 1.4 -2.38419e-07
v 1.1 1.4 -2.38419e-07
v 1.2 1.4 -2.38419e-07
v 0.8 1.4 -0.1
v 1 1.4 -0.1
v 1.1 1.4 -0.1
v 1.3 1.4 -0.1
v 0.8 1.5 0.2
v 0.9 1.5 0.2
v 1.2 1.5 0.2
v 1.3 1.5 0.2
v 0.8 1.5 0.0999999
v 0.9 1.5 0.0999999
v 1.2 1.5 0.0999999
v 1.3 1.5 0.0999999
v 0.8 1.5 -0.1
v 1 1.5 -0.1
v 1.1 1.5 -0.1
v 1.3 1.5 -0.1
v 0.8 1.5 -0.2
v 1.3 1.5 -0.2
v 1.5 1.6 0.4
v 1.9 1.6 0.4
v 1.5 1.6 0.3
v 1.6 1.6 0.3
v 1.9 1.6 0.3
v 1.3 1.6 0.0999999
v 1.5 1.6 0.0999999
v 1.3 1.6 -2.38419e-07
v 1.6 1.6 -2.38419e-07
v 0.7 1.7 2.1
v 0.8 1.7 2.1
v 0.7 1.7 2
v 0.8 1.7 2
v 0.7 2 2
v 0.8 2 2
v 0.7 2 1.9
v 0.8 2 1.9
v 0.7 2.2 1.9
v 0.8 2.2 1.9
v 0.7 2.2 1.8
v 0.8 2.2 1.8
v 0.7 2.5 1.8
v 0.8 2.5 1.8
v 0.7 2.5 1.7
v 0.8 2.5 1.7
v 0.8 2.8 1.7
v 0.9 2.8 1.7
v 0.8 2.8 1.6
v 0.9 2.8 1.6
v 0.8 3 0.3
v 1.3 3 0.3
v 0.9 3 0.2
v 1.2 3 0.2
v 0.9 3 -0.1
v 1.2 3 -0.1
v 0.8 3 -0.2
v 1.3 3 -0.2
v 0.8 3.1 1.6
v 0.9 3.1 1.6
v 0.8 3.1 1.5
v 0.9 3.1 1.5
v 0.8 3.3 1.5
v 0.9 3.3 1.5
v 0.8 3.3 1.4
v 0.9 3.3 1.4
v 0.8 3.6 1.4
v 0.9 3.6 1.4
v 0.8 3.6 1.3
v 0.9 3.6 1.3
v 0.8 3.9 1.3
v 0.9 3.9 1.3
v 0.8 3.9 1.2
v 0.9 3.9 1.2
v 0.8 4.1 1.2
v 0.9 4.1 1.2
v 0.8 4.1 1.1
v 0.9 4.1 1.1
v 0.9 4.4 1.1
v 1 4.4 1.1
v 0.9 4.4 1
v 1 4.4 1
v 0.9 4.6 0.3
v 1.2 4.6 0.3
v 0.8 4.6 0.2
v 0.9 4.6 0.2
v 1.2 4.6 0.2
v 0.8 4.6 -0.1
v 0.9 4.6 -0.1
v 0.9 4.7 1
v 1 4.7 1
v 0.9 4.7 0.9
v 1 4.7 0.9
v 0.9 5 0.9
v 1 5 0.9
v 0.9 5 0.8
v 1 5 0.8
v 0.9 5.2 0.8
v 1 5.2 0.8
v 0.9 5.2 0.7
v 1 5.2 0.7
v 0.9 5.5 0.7
v 1 5.5 0.7
v 0.9 5.5 0.6
v 1 5.5 0.6
v 0.9 5.8 0.6
v 1 5.8 0.6
v 0.9 5.8 0.5
v 1 5.8 0.5
v 1 6 0.6
v 1.1 6 0.6
v 1 6 0.5
v 1.1 6 0.5
v 1 6.1 0.5
v 1.1 6.1 0.5
v 1 6.1 0.4
v 1.1 6.1 0.4
v 0.8 6.1 0.3
v 1.2 6.1 0.3
v 0.9 6.1 0.2
v 1.1 6.1 0.2
v 0.9 6.1 -2.38419e-07
v 1.1 6.1 -2.38419e-07
v 0.8 6.1 -0.1
v 1.2 6.1 -0.1
v 1 6.3 0.4
v 1.1 6.3 0.4
v 1 6.3 0.3
v 1.1 6.3 0.3
v 1 6.6 0.3
v 1.1 6.6 0.3
v 1 6.6 0.2
v 1.1 6.6 0.2
v 1 6.7 0.2
v 1.1 6.7 0.2
v 0.9 6.7 0.0999999
v 1 6.7 0.0999999
v 1.1 6.7 0.0999999
v 0.9 6.7 -2.38419e-07
v 1 6.7 -2.38419e-07
v 0.5 0.9 2.5
v 0.6 0.9 2.5
v 0.7 0.9 2.5
v 0.8 0.9 2.5
v 0.5 0.9 2.4
v 0.6 0.9 2.4
v 0.7 0.9 2.4
v 0.8 0.9 2.4
v 0.5 0.9 2.3
v 0.6 0.9 2.3
v 0.7 0.9 2.3
v 0.8 0.9 2.3
v 0.5 0.9 2.2
v 0.6 0.9 2.2
v 0.7 0.9 2.2
v 0.8 0.9 2.2
v 0.6 1 2.5
v 0.7 1 2.5
v 0.5 1 2.4
v 0.6 1 2.4
v 0.7 1 2.4
v 0.8 1 2.4
v 0.5 1 2.3
v 0.6 1 2.3
v 0.7 1 2.3
v 0.8 1 2.3
v 0.6 1 2.2
v 0.7 1 2.2
v 0.6 1.1 2.4
v 0.7 1.1 2.4
v 0.6 1.1 2.3
v 0.7 1.1 2.3
v 0.6 1.2 2.3
v 0.7 1.2 2.3
v 0.6 1.2 2.2
v 0.7 1.2 2.2
v 0.7 1.4 2.3
v 0.8 1.4 2.3
v 0.7 1.4 2.2
v 0.8 1.4 2.2
v 0.7 1.7 2.2
v 0.8 1.7 2.2
v 0.7 1.7 2.1
v 0.8 1.7 2.1
v 1.5 1.7 0.4
v 1.9 1.7 0.4
v 1.5 1.7 0.3
v 1.6 1.7 0.3
v 1.9 1.7 0.3
v 0.8 1.7 0.2
v 0.9 1.7 0.2
v 1.2 1.7 0.2
v 1.3 1.7 0.2
v 0.8 1.7 0.0999999
v 0.9 1.7 0.0999999
v 1.2 1.7 0.0999999
v 1.3 1.7 0.0999999
v 1.5 1.7 0.0999999
v 1.3 1.7 -2.38419e-07
v 1.6 1.7 -2.38419e-07
v 0.8 1.7 -0.1
v 0.9 1.7 -0.1
v 1.2 1.7 -0.1
v 1.3 1.7 -0.1
v 0.8 1.7 -0.2
v 1.3 1.7 -0.2
v 0.8 1.8 0.0999999
v 0.9 1.8 0.0999999
v 1.2 1.8 0.0999999
v 1.3 1.8 0.0999999
v 0.8 1.8 -0.1
v 0.9 1.8 -0.1
v 1.2 1.8 -0.1
v 1.3 1.8 -0.1
v 0.7 2 2.1
v 0.8 2 2.1
v 0.7 2 2
v 0.8 2 2
v 0.7 2.2 2
v 0.8 2.2 2
v 0.7 2.2 1.9
v 0.8 2.2 1.9
v 0.7 2.5 1.9
v 0.8 2.5 1.9
v 0.7 2.5 1.8
v 0.8 2.5 1.8
v 0.7 2.8 1.8
v 0.8 2.8 1.8
v 0.7 2.8 1.7
v 0.8 2.8 1.7
v 0.8 3.1 1.7
v 0.9 3.1 1.7
v 0.8 3.1 1.6
v 0.9 3.1 1.6
v 0.8 3.1 0.3
v 1.3 3.1 0.3
v 0.9 3.1 0.2
v 1.2 3.1 0.2
v 0.9 3.1 -0.1
v 1.2 3.1 -0.1
v 0.8 3.1 -0.2
v 1.3 3.1 -0.2
v 0.8 3.3 1.6
v 0.9 3.3 1.6
v 0.8 3.3 1.5
v 0.9 3.3 1.5
v 0.8 3.6 1.5
v 0.9 3.6 1.5
v 0.8 3.6 1.4
v 0.9 3.6 1.4
v 0.8 3.9 1.4
v 0.9 3.9 1.4
v 0.8 3.9 1.3
v 0.9 3.9 1.3
v 0.8 4.1 1.3
v 0.9 4.1 1.3
v 0.8 4.1 1.2
v 0.9 4.1 1.2
v 0.8 4.4 1.2
v 0.9 4.4 1.2
v 0.8 4.4 1.1
v 0.9 4.4 1.1
v 1.1 4.6 -2.38419e-07
v 1.2 4.6 -2.38419e-07
v 1.1 4.6 -0.1
v 1.2 4.6 -0.1
v 0.9 4.7 1.1
v 1 4.7 1.1
v 0.9 4.7 1
v 1 4.7 1
v 0.9 4.7 0.3
v 1.2 4.7 0.3
v 0.8 4.7 0.2
v 0.9 4.7 0.2
v 1.1 4.7 0.2
v 0.9 4.7 -2.38419e-07
v 1.1 4.7 -2.38419e-07
v 1.2 4.7 -2.38419e-07
v 0.8 4.7 -0.1
v 1.1 4.7 -0.1
v 0.9 5 1
v 1 5 1
v 0.9 5 0.9
v 1 5 0.9
v 0.9 5.2 0.9
v 1 5.2 0.9
v 0.9 5.2 0.8
v 1 5.2 0.8
v 0.9 5.5 0.8
v 1 5.5 0.8
v 0.9 5.5 0.7
v 1 5.5 0.7
v 0.9 5.8 0.7
v 1 5.8 0.7
v 0.9 5.8 0.6
v 1 5.8 0.6
v 0.9 6 0.6
v 1 6 0.6
v 0.9 6 0.5
v 1 6 0.5
v 1 6.1 0.6
v 1.1 6.1 0.6
v 1 6.1 0.5
v 1.1 6.1 0.5
v 0.8 6.2 0.3
v 1.2 6.2 0.3
v 0.9 6.2 0.2
v 1 6.2 0.2
v 1.1 6.2 0.2
v 0.9 6.2 0.0999999
v 1 6.2 0.0999999
v 1.1 6.2 0.0999999
v 0.9 6.2 -2.38419e-07
v 1.1 6.2 -2.38419e-07
v 0.8 6.2 -0.1
v 1.2 6.2 -0.1
v 1 6.3 0.5
v 1.1 6.3 0.5
v 1 6.3 0.4
v 1.1 6.3 0.4
v 0.9 6.3 0.0999999
v 1 6.3 0.0999999
v 1.1 6.3 0.0999999
v 0.9 6.3 -2.38419e-07
v 1.1 6.3 -2.38419e-07
v 1 6.6 0.4
v 1.1 6.6 0.4
v 1 6.6 0.3
v 1.1 6.6 0.3
v 1 6.8 0.3
v 1.1 6.8 0.3
v 0.9 6.8 0.2
v 1 6.8 0.2
v 1.1 6.8 0.2
v 0.9 6.8 0.0999999
v 1 6.8 0.0999999
v 1.1 6.8 0.0999999
v 0.9 6.8 -2.38419e-07
v 1 6.8 -2.38419e-07

# faces
f 4/1/1 2/1/1 1/1/1
f 5/1/1 2/1/1 4/1/1
f 7/1/1 4/1/1 3/1/1
f 8/2/1 5/2/1 4/2/1
f 8/1/1 4/1/1 7/1/1
f 9/1/1 6/1/1 5/1/1
f 9/2/1 5/2/1 8/2/1
f 10/1/1 6/1/1 9/1/1
f 11/2/1 9/2/1 8/2/1
f 12/2/1 9/2/1 11/2/1
f 17/1/1 14/1/1 13/1/1
f 18/1/1 14/1/1 17/1/1
f 19/1/1 16/1/1 15/1/1
f 20/1/1 16/1/1 19/1/1
f 25/2/1 22/2/1 21/2/1
f 26/2/1 22/2/1 25/2/1
f 27/2/1 24/2/1 23/2/1
f 28/2/1 24/2/1 27/2/1
f 29/3/1 27/3/1 26/3/1
f 30/3/1 27/3/1 29/3/1
f 32/3/1 31/3/1 30/3/1
f 33/3/1 31/3/1 32/3/1
f 36/3/1 35/3/1 34/3/1
f 37/3/1 35/3/1 36/3/1
f 39/3/1 38/3/1 37/3/1
f 40/3/1 38/3/1 39/3/1
f 42/3/1 41/3/1 40/3/1
f 43/3/1 41/3/1 42/3/1
f 45/3/1 44/3/1 43/3/1
f 46/3/1 44/3/1 45/3/1
f 48/3/1 47/3/1 46/3/1
f 49/3/1 47/3/1 48/3/1
f 51/3/1 50/3/1 49/3/1
f 52/3/1 50/3/1 51/3/1
f 56/5/1 54/5/1 53/5/1
f 57/5/1 54/5/1 56/5/1
f 59/5/1 56/5/1 55/5/1
f 59/5/1 58/5/1 57/5/1
f 59/5/1 57/5/1 56/5/1
f 60/5/1 58/5/1 59/5/1
f 61/5/1 58/5/1 60/5/1
f 62/5/1 58/5/1 61/5/1
f 63/5/1 61/5/1 60/5/1
f 64/5/1 61/5/1 63/5/1
f 69/3/1 66/3/1 65/3/1
f 70/3/1 66/3/1 69/3/1
f 72/5/1 68/5/1 67/5/1
f 73/5/1 68/5/1 72/5/1
f 74/3/1 71/3/1 70/3/1
f 75/3/1 71/3/1 74/3/1
f 77/3/1 76/3/1 75/3/1
f 78/3/1 76/3/1 77/3/1
f 80/3/1 79/3/1 78/3/1
f 81/3/1 79/3/1 80/3/1
f 83/3/1 82/3/1 81/3/1
f 84/3/1 82/3/1 83/3/1
f 86/3/1 85/3/1 84/3/1
f 87/3/1 85/3/1 86/3/1
f 90/5/1 89/5/1 88/5/1
f 91/5/1 89/5/1 90/5/1
f 94/5/1 93/5/1 92/5/1
f 95/5/1 93/5/1 94/5/1
f 98/6/1 97/6/1 96/6/1
f 99/6/1 97/6/1 98/6/1
f 100/6/1 98/6/1 96/6/1
f 101/6/1 98/6/1 100/6/1
f 104/6/1 103/6/1 102/6/1
f 106/6/1 104/6/1 102/6/1
f 106/6/1 105/6/1 104/6/1
f 107/6/1 105/6/1 106/6/1
f 113/6/1 109/6/1 108/6/1
f 114/6/1 109/6/1 113/6/1
f 115/3/1 111/3/1 110/3/1
f 116/3/1 111/3/1 115/3/1
f 118/5/1 113/5/1 112/5/1
f 119/5/1 113/5/1 118/5/1
f 121/3/1 117/3/1 116/3/1
f 122/3/1 117/3/1 121/3/1
f 124/3/1 123/3/1 122/3/1
f 125/3/1 123/3/1 124/3/1
f 127/3/1 126/3/1 125/3/1
f 128/3/1 126/3/1 127/3/1
f 130/3/1 129/3/1 128/3/1
f 131/3/1 129/3/1 130/3/1
f 133/3/1 132/3/1 131/3/1
f 134/3/1 132/3/1 133/3/1
f 135/6/1 120/6/1 119/6/1
f 136/6/1 120/6/1 135/6/1
f 140/6/1 138/6/1 137/6/1
f 140/5/1 139/5/1 138/5/1
f 141/5/1 139/5/1 140/5/1
f 142/6/1 140/6/1 137/6/1
f 144/6/1 142/6/1 137/6/1
f 145/5/1 143/5/1 142/5/1
f 145/6/1 142/6/1 144/6/1
f 146/5/1 143/5/1 145/5/1
f 149/6/1 148/6/1 147/6/1
f 150/6/1 148/6/1 149/6/1
f 153/3/1 152/3/1 151/3/1
f 154/3/1 152/3/1 153/3/1
f 156/3/1 155/3/1 154/3/1
f 157/3/1 155/3/1 156/3/1
f 159/3/1 158/3/1 157/3/1
f 160/3/1 158/3/1 159/3/1
f 162/3/1 161/3/1 160/3/1
f 163/3/1 161/3/1 162/3/1
f 167/4/1 165/4/1 164/4/1
f 168/3/1 166/3/1 165/3/1
f 168/4/1 165/4/1 167/4/1
f 169/3/1 166/3/1 168/3/1
f 170/1/2 171/1/2 174/1/2
f 174/1/2 171/1/2 175/1/2
f 172/1/2 173/1/2 176/1/2
f 176/1/2 173/1/2 177/1/2
f 178/2/2 179/2/2 182/2/2
f 182/2/2 179/2/2 183/2/2
f 180/2/2 181/2/2 184/2/2
f 184/2/2 181/2/2 185/2/2
f 183/3/2 184/3/2 186/3/2
f 186/3/2 184/3/2 187/3/2
f 187/3/2 188/3/2 189/3/2
f 189/3/2 188/3/2 190/3/2
f 191/1/2 192/1/2 194/1/2
f 194/1/2 192/1/2 195/1/2
f 193/1/2 194/1/2 197/1/2
f 194/2/2 195/2/2 198/2/2
f 197/1/2 194/1/2 198/1/2
f 195/1/2 196/1/2 199/1/2
f 198/2/2 195/2/2 199/2/2
f 199/1/2 196/1/2 200/1/2
f 198/2/2 199/2/2 201/2/2
f 201/2/2 199/2/2 202/2/2
f 203/3/2 204/3/2 205/3/2
f 205/3/2 204/3/2 206/3/2
f 206/3/2 207/3/2 208/3/2
f 208/3/2 207/3/2 209/3/2
f 209/3/2 210/3/2 211/3/2
f 211/3/2 210/3/2 212/3/2
f 212/3/2 213/3/2 214/3/2
f 214/3/2 213/3/2 215/3/2
f 215/3/2 216/3/2 217/3/2
f 217/3/2 216/3/2 218/3/2
f 218/3/2 219/3/2 220/3/2
f 220/3/2 219/3/2 221/3/2
f 222/3/2 223/3/2 224/3/2
f 224/3/2 223/3/2 225/3/2
f 225/3/2 226/3/2 227/3/2
f 227/3/2 226/3/2 228/3/2
f 228/3/2 229/3/2 230/3/2
f 230/3/2 229/3/2 231/3/2
f 231/3/2 232/3/2 233/3/2
f 233/3/2 232/3/2 234/3/2
f 234/3/2 235/3/2 236/3/2
f 236/3/2 235/3/2 237/3/2
f 237/3/2 238/3/2 239/3/2
f 239/3/2 238/3/2 240/3/2
f 241/3/2 242/3/2 243/3/2
f 243/3/2 242/3/2 244/3/2
f 244/3/2 245/3/2 246/3/2
f 246/3/2 245/3/2 247/3/2
f 247/3/2 248/3/2 249/3/2
f 249/3/2 248/3/2 250/3/2
f 250/3/2 251/3/2 252/3/2
f 252/3/2 251/3/2 253/3/2
f 253/3/2 254/3/2 255/3/2
f 255/3/2 254/3/2 256/3/2
f 256/3/2 257/3/2 258/3/2
f 258/3/2 257/3/2 259/3/2
f 260/6/2 261/6/2 262/6/2
f 260/6/2 262/6/2 263/6/2
f 263/6/2 262/6/2 264/6/2
f 264/6/2 262/6/2 265/6/2
f 265/5/2 266/5/2 267/5/2
f 267/5/2 266/5/2 268/5/2
f 269/6/2 270/6/2 271/6/2
f 271/6/2 270/6/2 272/6/2
f 273/5/2 274/5/2 276/5/2
f 276/5/2 274/5/2 277/5/2
f 278/3/2 279/3/2 280/3/2
f 280/3/2 279/3/2 281/3/2
f 275/6/2 276/6/2 283/6/2
f 283/6/2 276/6/2 284/6/2
f 281/3/2 282/3/2 287/3/2
f 287/3/2 282/3/2 288/3/2
f 285/5/2 286/5/2 290/5/2
f 290/5/2 286/5/2 291/5/2
f 288/3/2 289/3/2 292/3/2
f 292/3/2 289/3/2 293/3/2
f 293/3/2 294/3/2 295/3/2
f 293/3/2 295/3/2 297/3/2
f 295/5/2 296/5/2 298/5/2
f 297/3/2 295/3/2 298/3/2
f 298/5/2 296/5/2 299/5/2
f 300/6/2 301/6/2 302/6/2
f 302/6/2 301/6/2 303/6/2
f 300/6/2 302/6/2 304/6/2
f 304/6/2 302/6/2 305/6/2
f 306/6/2 307/6/2 308/6/2
f 306/6/2 308/6/2 310/6/2
f 308/6/2 309/6/2 310/6/2
f 310/6/2 309/6/2 311/6/2
f 312/6/2 313/6/2 315/6/2
f 315/6/2 313/6/2 316/6/2
f 316/6/2 313/6/2 317/6/2
f 314/5/2 315/5/2 318/5/2
f 315/5/2 316/5/2 318/5/2
f 318/5/2 316/5/2 319/5/2
f 320/5/2 321/5/2 322/5/2
f 322/5/2 321/5/2 323/5/2
f 324/5/2 325/5/2 327/5/2
f 327/5/2 325/5/2 328/5/2
f 326/5/2 327/5/2 330/5/2
f 328/5/2 329/5/2 330/5/2
f 327/5/2 328/5/2 330/5/2
f 330/5/2 329/5/2 331/5/2
f 326/5/2 330/5/2 332/5/2
f 332/5/2 330/5/2 333/5/2
f 331/5/2 329/5/2 334/5/2
f 334/5/2 329/5/2 335/5/2
f 335/5/2 329/5/2 336/5/2
f 333/5/2 334/5/2 337/5/2
f 334/5/2 335/5/2 337/5/2
f 337/5/2 335/5/2 338/5/2
f 339/5/2 340/5/2 341/5/2
f 341/5/2 340/5/2 342/5/2
f 343/3/2 344/3/2 345/3/2
f 345/3/2 344/3/2 346/3/2
f 347/4/2 348/4/2 349/4/2
f 349/4/2 348/4/2 350/4/2
f 354/1/3 352/1/3 351/1/3
f 355/1/3 352/1/3 354/1/3
f 357/1/3 354/1/3 353/1/3
f 358/2/3 356/2/3 355/2/3
f 358/1/3 354/1/3 357/1/3
f 358/2/3 355/2/3 354/2/3
f 359/2/3 356/2/3 358/2/3
f 360/2/3 356/2/3 359/2/3
f 361/1/3 359/1/3 358/1/3
f 362/1/3 359/1/3 361/1/3
f 367/1/3 364/1/3 363/1/3
f 368/1/3 364/1/3 367/1/3
f 369/2/3 366/2/3 365/2/3
f 370/2/3 366/2/3 369/2/3
f 375/3/3 371/3/3 370/3/3
f 376/3/3 371/3/3 375/3/3
f 377/1/3 373/1/3 372/1/3
f 378/1/3 373/1/3 377/1/3
f 379/2/3 375/2/3 374/2/3
f 380/2/3 375/2/3 379/2/3
f 383/3/3 382/3/3 381/3/3
f 384/3/3 382/3/3 383/3/3
f 386/3/3 385/3/3 384/3/3
f 387/3/3 385/3/3 386/3/3
f 390/3/3 389/3/3 388/3/3
f 391/3/3 389/3/3 390/3/3
f 394/3/3 393/3/3 392/3/3
f 395/3/3 393/3/3 394/3/3
f 398/3/3 397/3/3 396/3/3
f 399/3/3 397/3/3 398/3/3
f 402/3/3 401/3/3 400/3/3
f 403/3/3 401/3/3 402/3/3
f 406/3/3 405/3/3 404/3/3
f 407/3/3 405/3/3 406/3/3
f 410/3/3 409/3/3 408/3/3
f 411/3/3 409/3/3 410/3/3
f 414/3/3 413/3/3 412/3/3
f 415/3/3 413/3/3 414/3/3
f 418/3/3 417/3/3 416/3/3
f 419/3/3 417/3/3 418/3/3
f 422/3/3 421/3/3 420/3/3
f 423/3/3 421/3/3 422/3/3
f 426/3/3 425/3/3 424/3/3
f 427/3/3 425/3/3 426/3/3
f 430/3/3 429/3/3 428/3/3
f 431/3/3 429/3/3 430/3/3
f 434/3/3 433/3/3 432/3/3
f 435/3/3 433/3/3 434/3/3
f 438/3/3 437/3/3 436/3/3
f 439/3/3 437/3/3 438/3/3
f 442/3/3 441/3/3 440/3/3
f 443/3/3 441/3/3 442/3/3
f 446/3/3 445/3/3 444/3/3
f 447/3/3 445/3/3 446/3/3
f 450/3/3 449/3/3 448/3/3
f 451/3/3 449/3/3 450/3/3
f 454/3/3 453/3/3 452/3/3
f 455/3/3 453/3/3 454/3/3
f 457/3/3 456/3/3 455/3/3
f 458/3/3 456/3/3 457/3/3
f 461/3/3 460/3/3 459/3/3
f 462/3/3 460/3/3 461/3/3
f 465/3/3 464/3/3 463/3/3
f 466/3/3 464/3/3 465/3/3
f 469/4/3 468/4/3 467/4/3
f 470/4/3 468/4/3 469/4/3
f 479/3/3 478/3/3 477/3/3
f 480/3/3 478/3/3 479/3/3
f 481/5/3 476/5/3 475/5/3
f 482/5/3 476/5/3 481/5/3
f 483/5/3 474/5/3 473/5/3
f 484/5/3 474/5/3 483/5/3
f 485/5/3 472/5/3 471/5/3
f 486/5/3 472/5/3 485/5/3
f 492/5/3 488/5/3 487/5/3
f 493/5/3 488/5/3 492/5/3
f 496/5/3 490/5/3 489/5/3
f 497/5/3 490/5/3 496/5/3
f 501/6/3 500/6/3 499/6/3
f 502/6/3 500/6/3 501/6/3
f 503/6/3 500/6/3 502/6/3
f 504/6/3 498/6/3 497/6/3
f 505/6/3 498/6/3 504/6/3
f 506/6/3 494/6/3 493/6/3
f 506/6/3 492/6/3 491/6/3
f 506/6/3 493/6/3 492/6/3
f 507/6/3 494/6/3 506/6/3
f 508/6/3 494/6/3 507/6/3
f 509/6/3 494/6/3 508/6/3
f 510/6/3 496/6/3 495/6/3
f 511/6/3 496/6/3 510/6/3
f 512/5/3 508/5/3 507/5/3
f 513/5/3 508/5/3 512/5/3
f 518/5/3 515/5/3 514/5/3
f 519/5/3 515/5/3 518/5/3
f 520/5/3 517/5/3 516/5/3
f 521/5/3 517/5/3 520/5/3
f 524/5/3 523/5/3 522/5/3
f 525/5/3 523/5/3 524/5/3
f 530/5/3 527/5/3 526/5/3
f 531/5/3 527/5/3 530/5/3
f 533/5/3 529/5/3 528/5/3
f 534/5/3 529/5/3 533/5/3
f 535/3/3 533/3/3 532/3/3
f 536/3/3 533/3/3 535/3/3
f 537/1/4 538/1/4 541/1/4
f 541/1/4 538/1/4 542/1/4
f 539/2/4 540/2/4 543/2/4
f 543/2/4 540/2/4 544/2/4
f 544/3/4 545/3/4 549/3/4
f 549/3/4 545/3/4 550/3/4
f 546/1/4 547/1/4 551/1/4
f 551/1/4 547/1/4 552/1/4
f 548/2/4 549/2/4 553/2/4
f 553/2/4 549/2/4 554/2/4
f 555/1/4 556/1/4 558/1/4
f 558/1/4 556/1/4 559/1/4
f 557/1/4 558/1/4 563/1/4
f 558/2/4 559/2/4 564/2/4
f 563/1/4 558/1/4 564/1/4
f 559/2/4 560/2/4 564/2/4
f 564/2/4 560/2/4 565/2/4
f 565/2/4 560/2/4 566/2/4
f 561/3/4 562/3/4 567/3/4
f 567/3/4 562/3/4 568/3/4
f 564/1/4 565/1/4 570/1/4
f 570/1/4 565/1/4 571/1/4
f 568/3/4 569/3/4 572/3/4
f 572/3/4 569/3/4 573/3/4
f 574/3/4 575/3/4 576/3/4
f 576/3/4 575/3/4 577/3/4
f 578/3/4 579/3/4 580/3/4
f 580/3/4 579/3/4 581/3/4
f 582/3/4 583/3/4 584/3/4
f 584/3/4 583/3/4 585/3/4
f 586/3/4 587/3/4 588/3/4
f 588/3/4 587/3/4 589/3/4
f 590/3/4 591/3/4 592/3/4
f 592/3/4 591/3/4 593/3/4
f 594/3/4 595/3/4 596/3/4
f 596/3/4 595/3/4 597/3/4
f 598/3/4 599/3/4 600/3/4
f 600/3/4 599/3/4 601/3/4
f 602/3/4 603/3/4 604/3/4
f 604/3/4 603/3/4 605/3/4
f 606/3/4 607/3/4 608/3/4
f 608/3/4 607/3/4 609/3/4
f 610/3/4 611/3/4 612/3/4
f 612/3/4 611/3/4 613/3/4
f 614/3/4 615/3/4 616/3/4
f 616/3/4 615/3/4 617/3/4
f 618/3/4 619/3/4 620/3/4
f 620/3/4 619/3/4 621/3/4
f 622/3/4 623/3/4 624/3/4
f 624/3/4 623/3/4 625/3/4
f 626/3/4 627/3/4 628/3/4
f 628/3/4 627/3/4 629/3/4
f 630/3/4 631/3/4 632/3/4
f 632/3/4 631/3/4 633/3/4
f 634/3/4 635/3/4 636/3/4
f 636/3/4 635/3/4 637/3/4
f 638/3/4 639/3/4 640/3/4
f 640/3/4 639/3/4 641/3/4
f 641/3/4 642/3/4 643/3/4
f 643/3/4 642/3/4 644/3/4
f 645/3/4 646/3/4 647/3/4
f 647/3/4 646/3/4 648/3/4
f 649/3/4 650/3/4 651/3/4
f 651/3/4 650/3/4 652/3/4
f 653/4/4 654/4/4 655/4/4
f 655/4/4 654/4/4 656/4/4
f 657/3/4 658/3/4 659/3/4
f 659/3/4 658/3/4 660/3/4
f 661/6/4 662/6/4 663/6/4
f 663/6/4 662/6/4 664/6/4
f 664/5/4 665/5/4 666/5/4
f 666/5/4 665/5/4 667/5/4
f 668/6/4 669/6/4 676/6/4
f 676/6/4 669/6/4 677/6/4
f 674/5/4 675/5/4 678/5/4
f 678/5/4 675/5/4 679/5/4
f 670/6/4 671/6/4 683/6/4
f 683/6/4 671/6/4 684/6/4
f 672/5/4 673/5/4 685/5/4
f 685/5/4 673/5/4 686/5/4
f 680/6/4 681/6/4 687/6/4
f 687/6/4 681/6/4 688/6/4
f 682/5/4 683/5/4 689/5/4
f 689/5/4 683/5/4 690/5/4
f 691/3/4 692/3/4 693/3/4
f 693/3/4 692/3/4 694/3/4
f 697/5/4 698/5/4 703/5/4
f 703/5/4 698/5/4 704/5/4
f 699/5/4 700/5/4 707/5/4
f 695/5/4 696/5/4 709/5/4
f 709/5/4 696/5/4 710/5/4
f 708/6/4 709/6/4 711/6/4
f 709/6/4 710/6/4 711/6/4
f 711/6/4 710/6/4 712/6/4
f 712/6/4 710/6/4 713/6/4
f 706/6/4 707/6/4 714/6/4
f 707/5/4 700/5/4 714/5/4
f 714/5/4 700/5/4 715/5/4
f 704/6/4 705/6/4 716/6/4
f 703/6/4 704/6/4 716/6/4
f 716/6/4 705/6/4 717/6/4
f 717/6/4 705/6/4 718/6/4
f 706/6/4 714/6/4 719/6/4
f 719/6/4 714/6/4 720/6/4
f 701/5/4 702/5/4 721/5/4
f 721/5/4 702/5/4 722/5/4
f 712/5/4 713/5/4 723/5/4
f 723/5/4 713/5/4 724/5/4
f 716/5/4 717/5/4 725/5/4
f 725/5/4 717/5/4 726/5/4
f 727/5/4 728/5/4 731/5/4
f 731/5/4 728/5/4 732/5/4
f 729/5/4 730/5/4 733/5/4
f 733/5/4 730/5/4 734/5/4
f 737/6/5 736/6/5 735/6/5
f 738/6/5 736/6/5 737/6/5
f 739/6/5 736/6/5 738/6/5
f 740/6/5 736/6/5 739/6/5
f 741/6/5 739/6/5 738/6/5
f 742/6/5 739/6/5 741/6/5
f 746/1/5 744/1/5 743/1/5
f 747/1/5 744/1/5 746/1/5
f 749/1/5 746/1/5 745/1/5
f 749/1/5 748/1/5 747/1/5
f 749/1/5 747/1/5 746/1/5
f 750/1/5 748/1/5 749/1/5
f 751/1/5 748/1/5 750/1/5
f 752/1/5 748/1/5 751/1/5
f 753/1/5 751/1/5 750/1/5
f 754/1/5 751/1/5 753/1/5
f 759/1/5 756/1/5 755/1/5
f 760/1/5 756/1/5 759/1/5
f 761/1/5 758/1/5 757/1/5
f 762/1/5 758/1/5 761/1/5
f 767/1/5 764/1/5 763/1/5
f 768/1/5 764/1/5 767/1/5
f 769/1/5 766/1/5 765/1/5
f 770/1/5 766/1/5 769/1/5
f 773/3/5 772/3/5 771/3/5
f 774/3/5 772/3/5 773/3/5
f 777/3/5 776/3/5 775/3/5
f 778/3/5 776/3/5 777/3/5
f 781/3/5 780/3/5 779/3/5
f 782/3/5 780/3/5 781/3/5
f 787/5/5 784/5/5 783/5/5
f 790/5/5 786/5/5 785/5/5
f 791/5/5 788/5/5 787/5/5
f 791/5/5 787/5/5 783/5/5
f 792/5/5 788/5/5 791/5/5
f 793/5/5 790/5/5 789/5/5
f 794/5/5 786/5/5 790/5/5
f 794/5/5 790/5/5 793/5/5
f 799/5/5 796/5/5 795/5/5
f 800/5/5 796/5/5 799/5/5
f 801/5/5 798/5/5 797/5/5
f 802/5/5 798/5/5 801/5/5
f 807/5/5 804/5/5 803/5/5
f 807/5/5 806/5/5 805/5/5
f 807/5/5 805/5/5 804/5/5
f 808/5/5 806/5/5 807/5/5
f 811/4/5 810/4/5 809/4/5
f 812/4/5 810/4/5 811/4/5
f 813/4/5 810/4/5 812/4/5
f 815/3/5 812/3/5 811/3/5
f 816/3/5 815/3/5 814/3/5
f 817/3/5 812/3/5 815/3/5
f 817/3/5 815/3/5 816/3/5
f 820/3/5 819/3/5 818/3/5
f 821/3/5 819/3/5 820/3/5
f 824/3/5 823/3/5 822/3/5
f 825/3/5 823/3/5 824/3/5
f 828/3/5 827/3/5 826/3/5
f 829/3/5 827/3/5 828/3/5
f 832/3/5 831/3/5 830/3/5
f 833/3/5 831/3/5 832/3/5
f 836/3/5 835/3/5 834/3/5
f 837/3/5 835/3/5 836/3/5
f 840/5/5 839/5/5 838/5/5
f 841/5/5 839/5/5 840/5/5
f 842/5/5 840/5/5 838/5/5
f 843/5/5 839/5/5 841/5/5
f 844/5/5 842/5/5 838/5/5
f 844/5/5 843/5/5 842/5/5
f 845/5/5 839/5/5 843/5/5
f 845/5/5 843/5/5 844/5/5
f 848/3/5 847/3/5 846/3/5
f 849/3/5 847/3/5 848/3/5
f 852/3/5 851/3/5 850/3/5
f 853/3/5 851/3/5 852/3/5
f 856/3/5 855/3/5 854/3/5
f 857/3/5 855/3/5 856/3/5
f 860/3/5 859/3/5 858/3/5
f 861/3/5 859/3/5 860/3/5
f 864/3/5 863/3/5 862/3/5
f 865/3/5 863/3/5 864/3/5
f 868/3/5 867/3/5 866/3/5
f 869/3/5 867/3/5 868/3/5
f 873/5/5 871/5/5 870/5/5
f 874/5/5 871/5/5 873/5/5
f 875/5/5 873/5/5 872/5/5
f 876/5/5 873/5/5 875/5/5
f 879/3/5 878/3/5 877/3/5
f 880/3/5 878/3/5 879/3/5
f 883/3/5 882/3/5 881/3/5
f 884/3/5 882/3/5 883/3/5
f 887/3/5 886/3/5 885/3/5
f 888/3/5 886/3/5 887/3/5
f 891/3/5 890/3/5 889/3/5
f 892/3/5 890/3/5 891/3/5
f 895/3/5 894/3/5 893/3/5
f 896/3/5 894/3/5 895/3/5
f 899/3/5 898/3/5 897/3/5
f 900/3/5 898/3/5 899/3/5
f 903/3/5 902/3/5 901/3/5
f 904/3/5 902/3/5 903/3/5
f 907/5/5 906/5/5 905/5/5
f 908/5/5 906/5/5 907/5/5
f 909/5/5 907/5/5 905/5/5
f 910/5/5 906/5/5 908/5/5
f 911/5/5 909/5/5 905/5/5
f 911/5/5 910/5/5 909/5/5
f 912/5/5 906/5/5 910/5/5
f 912/5/5 910/5/5 911/5/5
f 915/3/5 914/3/5 913/3/5
f 916/3/5 914/3/5 915/3/5
f 919/3/5 918/3/5 917/3/5
f 920/3/5 918/3/5 919/3/5
f 924/5/5 922/5/5 921/5/5
f 925/5/5 922/5/5 924/5/5
f 926/5/5 924/5/5 923/5/5
f 927/5/5 924/5/5 926/5/5
f 928/1/6 929/1/6 932/1/6
f 932/1/6 929/1/6 933/1/6
f 930/1/6 931/1/6 934/1/6
f 934/1/6 931/1/6 935/1/6
f 936/1/6 937/1/6 940/1/6
f 940/1/6 937/1/6 941/1/6
f 938/1/6 939/1/6 942/1/6
f 942/1/6 939/1/6 943/1/6
f 944/2/6 945/2/6 947/2/6
f 947/2/6 945/2/6 948/2/6
f 946/2/6 947/2/6 950/2/6
f 950/2/6 947/2/6 951/2/6
f 948/2/6 949/2/6 952/2/6
f 952/2/6 949/2/6 953/2/6
f 951/2/6 952/2/6 954/2/6
f 954/2/6 952/2/6 955/2/6
f 956/3/6 957/3/6 958/3/6
f 958/3/6 957/3/6 959/3/6
f 960/3/6 961/3/6 962/3/6
f 962/3/6 961/3/6 963/3/6
f 964/3/6 965/3/6 966/3/6
f 966/3/6 965/3/6 967/3/6
f 968/3/6 969/3/6 970/3/6
f 970/3/6 969/3/6 971/3/6
f 972/4/6 973/4/6 974/4/6
f 974/4/6 973/4/6 975/4/6
f 975/4/6 973/4/6 976/4/6
f 977/5/6 978/5/6 981/5/6
f 981/5/6 978/5/6 982/5/6
f 979/5/6 980/5/6 983/5/6
f 983/5/6 980/5/6 984/5/6
f 974/3/6 975/3/6 985/3/6
f 984/3/6 985/3/6 986/3/6
f 985/3/6 975/3/6 987/3/6
f 986/3/6 985/3/6 987/3/6
f 988/5/6 989/5/6 992/5/6
f 990/5/6 991/5/6 992/5/6
f 989/5/6 990/5/6 992/5/6
f 992/5/6 991/5/6 993/5/6
f 994/5/6 995/5/6 998/5/6
f 998/5/6 995/5/6 999/5/6
f 996/5/6 997/5/6 1000/5/6
f 1000/5/6 997/5/6 1001/5/6
f 1002/3/6 1003/3/6 1004/3/6
f 1004/3/6 1003/3/6 1005/3/6
f 1006/3/6 1007/3/6 1008/3/6
f 1008/3/6 1007/3/6 1009/3/6
f 1010/3/6 1011/3/6 1012/3/6
f 1012/3/6 1011/3/6 1013/3/6
f 1014/3/6 1015/3/6 1016/3/6
f 1016/3/6 1015/3/6 1017/3/6
f 1018/3/6 1019/3/6 1020/3/6
f 1020/3/6 1019/3/6 1021/3/6
f 1022/5/6 1023/5/6 1024/5/6
f 1024/5/6 1023/5/6 1025/5/6
f 1022/5/6 1024/5/6 1026/5/6
f 1025/5/6 1023/5/6 1027/5/6
f 1022/5/6 1026/5/6 1028/5/6
f 1026/5/6 1027/5/6 1028/5/6
f 1027/5/6 1023/5/6 1029/5/6
f 1028/5/6 1027/5/6 1029/5/6
f 1030/3/6 1031/3/6 1032/3/6
f 1032/3/6 1031/3/6 1033/3/6
f 1034/3/6 1035/3/6 1036/3/6
f 1036/3/6 1035/3/6 1037/3/6
f 1038/3/6 1039/3/6 1040/3/6
f 1040/3/6 1039/3/6 1041/3/6
f 1042/3/6 1043/3/6 1044/3/6
f 1044/3/6 1043/3/6 1045/3/6
f 1046/3/6 1047/3/6 1048/3/6
f 1048/3/6 1047/3/6 1049/3/6
f 1050/6/6 1051/6/6 1052/6/6
f 1052/6/6 1051/6/6 1053/6/6
f 1054/3/6 1055/3/6 1056/3/6
f 1056/3/6 1055/3/6 1057/3/6
f 1058/5/6 1059/5/6 1061/5/6
f 1061/5/6 1059/5/6 1062/5/6
f 1060/5/6 1061/5/6 1063/5/6
f 1062/5/6 1059/5/6 1064/5/6
f 1064/5/6 1059/5/6 1065/5/6
f 1060/5/6 1063/5/6 1066/5/6
f 1063/5/6 1064/5/6 1066/5/6
f 1066/5/6 1064/5/6 1067/5/6
f 1068/3/6 1069/3/6 1070/3/6
f 1070/3/6 1069/3/6 1071/3/6
f 1072/3/6 1073/3/6 1074/3/6
f 1074/3/6 1073/3/6 1075/3/6
f 1076/3/6 1077/3/6 1078/3/6
f 1078/3/6 1077/3/6 1079/3/6
f 1080/3/6 1081/3/6 1082/3/6
f 1082/3/6 1081/3/6 1083/3/6
f 1084/3/6 1085/3/6 1086/3/6
f 1086/3/6 1085/3/6 1087/3/6
f 1088/3/6 1089/3/6 1090/3/6
f 1090/3/6 1089/3/6 1091/3/6
f 1092/5/6 1093/5/6 1094/5/6
f 1094/5/6 1093/5/6 1095/5/6
f 1095/5/6 1093/5/6 1096/5/6
f 1092/5/6 1094/5/6 1097/5/6
f 1095/6/6 1096/6/6 1098/6/6
f 1096/5/6 1093/5/6 1099/5/6
f 1098/6/6 1096/6/6 1099/6/6
f 1092/5/6 1097/5/6 1100/5/6
f 1099/5/6 1093/5/6 1101/5/6
f 1092/5/6 1100/5/6 1102/5/6
f 1100/5/6 1101/5/6 1102/5/6
f 1101/5/6 1093/5/6 1103/5/6
f 1102/5/6 1101/5/6 1103/5/6
f 1104/3/6 1105/3/6 1106/3/6
f 1106/3/6 1105/3/6 1107/3/6
f 1108/5/6 1109/5/6 1111/5/6
f 1109/5/6 1110/5/6 1111/5/6
f 1111/5/6 1110/5/6 1112/5/6
f 1113/3/6 1114/3/6 1115/3/6
f 1115/3/6 1114/3/6 1116/3/6
f 1117/3/6 1118/3/6 1120/3/6
f 1120/3/6 1118/3/6 1121/3/6
f 1119/6/6 1120/6/6 1122/6/6
f 1120/5/6 1121/5/6 1123/5/6
f 1122/6/6 1120/6/6 1123/6/6
f 1123/5/6 1121/5/6 1124/5/6
f 1122/5/6 1123/5/6 1125/5/6
f 1125/5/6 1123/5/6 1126/5/6
