# MagicaVoxel @ Ephtracy

# group
o 

# material
mtllib Path-4.mtl
usemtl palette

# normals
vn -1 0 0
vn 1 0 0
vn 0 0 1
vn 0 0 -1
vn 0 -1 0
vn 0 1 0

# texcoords
vt 0.751953 0.5
vt 0.755859 0.5

# verts
v -0.2 6.8 -10.7
v -0.2 6.8 -11.2
v -0.2 7.1 -10.7
v -0.2 7.1 -11.2
v -0.2 7.3 -10.7
v -0.2 7.3 -11.2
v -0.1 0 -10.8
v -0.1 0 -11.1
v -0.1 0.2 -10.8
v -0.1 0.2 -11.1
v -0.1 6.6 -10.8
v -0.1 6.6 -11.1
v -0.1 6.8 -10.6
v -0.1 6.8 -10.7
v -0.1 6.8 -10.8
v -0.1 6.8 -11.1
v -0.1 6.8 -11.2
v -0.1 6.8 -11.3
v -0.1 7.1 -10.6
v -0.1 7.1 -10.7
v -0.1 7.1 -11.2
v -0.1 7.1 -11.3
v -0.1 7.3 -10.6
v -0.1 7.3 -10.7
v -0.1 7.3 -10.8
v -0.1 7.3 -11.1
v -0.1 7.3 -11.2
v -0.1 7.3 -11.3
v -0.1 7.5 -10.8
v -0.1 7.5 -11.1
v 0 0 -10.7
v 0 0 -10.8
v 0 0 -11.1
v 0 0 -11.2
v 0 0.2 -10.7
v 0 0.2 -10.8
v 0 0.2 -11.1
v 0 0.2 -11.2
v 0 2.9 -10.8
v 0 2.9 -11.1
v 0 6.2 -10.8
v 0 6.2 -11.1
v 0 6.4 -10.8
v 0 6.4 -11.1
v 0 6.6 -10.7
v 0 6.6 -10.8
v 0 6.6 -11.1
v 0 6.6 -11.2
v 0 6.8 -10.5
v 0 6.8 -10.6
v 0 6.8 -10.7
v 0 6.8 -10.8
v 0 6.8 -11.1
v 0 6.8 -11.2
v 0 6.8 -11.3
v 0 6.8 -11.4
v 0 7.1 -10.5
v 0 7.1 -10.6
v 0 7.1 -11.3
v 0 7.1 -11.4
v 0 7.3 -10.5
v 0 7.3 -10.6
v 0 7.3 -10.7
v 0 7.3 -10.8
v 0 7.3 -11.1
v 0 7.3 -11.2
v 0 7.3 -11.3
v 0 7.3 -11.4
v 0 7.5 -10.7
v 0 7.5 -10.8
v 0 7.5 -11.1
v 0 7.5 -11.2
v 0 7.7 -10.8
v 0 7.7 -11.1
v 0.1 0 -10.6
v 0.1 0 -10.7
v 0.1 0 -11.2
v 0.1 0 -11.3
v 0.1 0.2 -10.6
v 0.1 0.2 -10.7
v 0.1 0.2 -10.8
v 0.1 0.2 -11.1
v 0.1 0.2 -11.2
v 0.1 0.2 -11.3
v 0.1 2.9 -10.7
v 0.1 2.9 -10.8
v 0.1 2.9 -11.1
v 0.1 2.9 -11.2
v 0.1 6.2 -10.7
v 0.1 6.2 -10.8
v 0.1 6.2 -11.1
v 0.1 6.2 -11.2
v 0.1 6.4 -10.7
v 0.1 6.4 -10.8
v 0.1 6.4 -11.1
v 0.1 6.4 -11.2
v 0.1 6.6 -10.6
v 0.1 6.6 -10.7
v 0.1 6.6 -10.8
v 0.1 6.6 -11.1
v 0.1 6.6 -11.2
v 0.1 6.6 -11.3
v 0.1 6.8 -10.6
v 0.1 6.8 -10.7
v 0.1 6.8 -11.2
v 0.1 6.8 -11.3
v 0.1 7.3 -10.6
v 0.1 7.3 -10.7
v 0.1 7.3 -11.2
v 0.1 7.3 -11.3
v 0.1 7.5 -10.6
v 0.1 7.5 -10.7
v 0.1 7.5 -10.8
v 0.1 7.5 -11.1
v 0.1 7.5 -11.2
v 0.1 7.5 -11.3
v 0.1 7.7 -10.7
v 0.1 7.7 -10.8
v 0.1 7.7 -11.1
v 0.1 7.7 -11.2
v 0.1 8 -10.8
v 0.1 8 -11.1
v 0.4 0 -10.6
v 0.4 0 -10.7
v 0.4 0 -11.2
v 0.4 0 -11.3
v 0.4 0.2 -10.6
v 0.4 0.2 -10.7
v 0.4 0.2 -10.8
v 0.4 0.2 -11.1
v 0.4 0.2 -11.2
v 0.4 0.2 -11.3
v 0.4 2.9 -10.7
v 0.4 2.9 -10.8
v 0.4 2.9 -11.1
v 0.4 2.9 -11.2
v 0.4 6.2 -10.7
v 0.4 6.2 -10.8
v 0.4 6.2 -11.1
v 0.4 6.2 -11.2
v 0.4 6.4 -10.7
v 0.4 6.4 -10.8
v 0.4 6.4 -11.1
v 0.4 6.4 -11.2
v 0.4 6.6 -10.6
v 0.4 6.6 -10.7
v 0.4 6.6 -10.8
v 0.4 6.6 -11.1
v 0.4 6.6 -11.2
v 0.4 6.6 -11.3
v 0.4 6.8 -10.6
v 0.4 6.8 -10.7
v 0.4 6.8 -11.2
v 0.4 6.8 -11.3
v 0.4 7.3 -10.6
v 0.4 7.3 -10.7
v 0.4 7.3 -11.2
v 0.4 7.3 -11.3
v 0.4 7.5 -10.6
v 0.4 7.5 -10.7
v 0.4 7.5 -10.8
v 0.4 7.5 -11.1
v 0.4 7.5 -11.2
v 0.4 7.5 -11.3
v 0.4 7.7 -10.7
v 0.4 7.7 -10.8
v 0.4 7.7 -11.1
v 0.4 7.7 -11.2
v 0.4 8 -10.8
v 0.4 8 -11.1
v 0.5 0 -10.7
v 0.5 0 -10.8
v 0.5 0 -11.1
v 0.5 0 -11.2
v 0.5 0.2 -10.7
v 0.5 0.2 -10.8
v 0.5 0.2 -11.1
v 0.5 0.2 -11.2
v 0.5 2.9 -10.8
v 0.5 2.9 -11.1
v 0.5 6.2 -10.8
v 0.5 6.2 -11.1
v 0.5 6.4 -10.8
v 0.5 6.4 -11.1
v 0.5 6.6 -10.7
v 0.5 6.6 -10.8
v 0.5 6.6 -11.1
v 0.5 6.6 -11.2
v 0.5 6.8 -10.5
v 0.5 6.8 -10.6
v 0.5 6.8 -10.7
v 0.5 6.8 -10.8
v 0.5 6.8 -11.1
v 0.5 6.8 -11.2
v 0.5 6.8 -11.3
v 0.5 6.8 -11.4
v 0.5 7.1 -10.5
v 0.5 7.1 -10.6
v 0.5 7.1 -11.3
v 0.5 7.1 -11.4
v 0.5 7.3 -10.5
v 0.5 7.3 -10.6
v 0.5 7.3 -10.7
v 0.5 7.3 -10.8
v 0.5 7.3 -11.1
v 0.5 7.3 -11.2
v 0.5 7.3 -11.3
v 0.5 7.3 -11.4
v 0.5 7.5 -10.7
v 0.5 7.5 -10.8
v 0.5 7.5 -11.1
v 0.5 7.5 -11.2
v 0.5 7.7 -10.8
v 0.5 7.7 -11.1
v 0.6 0 -10.8
v 0.6 0 -11.1
v 0.6 0.2 -10.8
v 0.6 0.2 -11.1
v 0.6 6.6 -10.8
v 0.6 6.6 -11.1
v 0.6 6.8 -10.6
v 0.6 6.8 -10.7
v 0.6 6.8 -10.8
v 0.6 6.8 -11.1
v 0.6 6.8 -11.2
v 0.6 6.8 -11.3
v 0.6 7.1 -10.6
v 0.6 7.1 -10.7
v 0.6 7.1 -11.2
v 0.6 7.1 -11.3
v 0.6 7.3 -10.6
v 0.6 7.3 -10.7
v 0.6 7.3 -10.8
v 0.6 7.3 -11.1
v 0.6 7.3 -11.2
v 0.6 7.3 -11.3
v 0.6 7.5 -10.8
v 0.6 7.5 -11.1
v 0.7 6.8 -10.7
v 0.7 6.8 -11.2
v 0.7 7.1 -10.7
v 0.7 7.1 -11.2
v 0.7 7.3 -10.7
v 0.7 7.3 -11.2
v 0 6.8 -10.5
v 0 7.1 -10.5
v 0 7.3 -10.5
v 0.5 6.8 -10.5
v 0.5 7.1 -10.5
v 0.5 7.3 -10.5
v -0.1 6.8 -10.6
v -0.1 7.1 -10.6
v -0.1 7.3 -10.6
v 0 6.8 -10.6
v 0 7.1 -10.6
v 0 7.3 -10.6
v 0.1 0 -10.6
v 0.1 0.2 -10.6
v 0.1 6.6 -10.6
v 0.1 6.8 -10.6
v 0.1 7.3 -10.6
v 0.1 7.5 -10.6
v 0.4 0 -10.6
v 0.4 0.2 -10.6
v 0.4 6.6 -10.6
v 0.4 6.8 -10.6
v 0.4 7.3 -10.6
v 0.4 7.5 -10.6
v 0.5 6.8 -10.6
v 0.5 7.1 -10.6
v 0.5 7.3 -10.6
v 0.6 6.8 -10.6
v 0.6 7.1 -10.6
v 0.6 7.3 -10.6
v -0.2 6.8 -10.7
v -0.2 7.1 -10.7
v -0.2 7.3 -10.7
v -0.1 6.8 -10.7
v -0.1 7.1 -10.7
v -0.1 7.3 -10.7
v 0 0 -10.7
v 0 0.2 -10.7
v 0 6.6 -10.7
v 0 6.8 -10.7
v 0 7.3 -10.7
v 0 7.5 -10.7
v 0.1 0 -10.7
v 0.1 0.2 -10.7
v 0.1 2.9 -10.7
v 0.1 6.2 -10.7
v 0.1 6.4 -10.7
v 0.1 6.6 -10.7
v 0.1 6.8 -10.7
v 0.1 7.3 -10.7
v 0.1 7.5 -10.7
v 0.1 7.7 -10.7
v 0.4 0 -10.7
v 0.4 0.2 -10.7
v 0.4 2.9 -10.7
v 0.4 6.2 -10.7
v 0.4 6.4 -10.7
v 0.4 6.6 -10.7
v 0.4 6.8 -10.7
v 0.4 7.3 -10.7
v 0.4 7.5 -10.7
v 0.4 7.7 -10.7
v 0.5 0 -10.7
v 0.5 0.2 -10.7
v 0.5 6.6 -10.7
v 0.5 6.8 -10.7
v 0.5 7.3 -10.7
v 0.5 7.5 -10.7
v 0.6 6.8 -10.7
v 0.6 7.1 -10.7
v 0.6 7.3 -10.7
v 0.7 6.8 -10.7
v 0.7 7.1 -10.7
v 0.7 7.3 -10.7
v -0.1 0 -10.8
v -0.1 0.2 -10.8
v -0.1 6.6 -10.8
v -0.1 6.8 -10.8
v -0.1 7.3 -10.8
v -0.1 7.5 -10.8
v 0 0 -10.8
v 0 0.2 -10.8
v 0 2.9 -10.8
v 0 6.2 -10.8
v 0 6.4 -10.8
v 0 6.6 -10.8
v 0 6.8 -10.8
v 0 7.3 -10.8
v 0 7.5 -10.8
v 0 7.7 -10.8
v 0.1 0.2 -10.8
v 0.1 2.9 -10.8
v 0.1 6.2 -10.8
v 0.1 6.4 -10.8
v 0.1 6.6 -10.8
v 0.1 7.5 -10.8
v 0.1 7.7 -10.8
v 0.1 8 -10.8
v 0.4 0.2 -10.8
v 0.4 2.9 -10.8
v 0.4 6.2 -10.8
v 0.4 6.4 -10.8
v 0.4 6.6 -10.8
v 0.4 7.5 -10.8
v 0.4 7.7 -10.8
v 0.4 8 -10.8
v 0.5 0 -10.8
v 0.5 0.2 -10.8
v 0.5 2.9 -10.8
v 0.5 6.2 -10.8
v 0.5 6.4 -10.8
v 0.5 6.6 -10.8
v 0.5 6.8 -10.8
v 0.5 7.3 -10.8
v 0.5 7.5 -10.8
v 0.5 7.7 -10.8
v 0.6 0 -10.8
v 0.6 0.2 -10.8
v 0.6 6.6 -10.8
v 0.6 6.8 -10.8
v 0.6 7.3 -10.8
v 0.6 7.5 -10.8
v -0.1 0 -11.1
v -0.1 0.2 -11.1
v -0.1 6.6 -11.1
v -0.1 6.8 -11.1
v -0.1 7.3 -11.1
v -0.1 7.5 -11.1
v 0 0 -11.1
v 0 0.2 -11.1
v 0 2.9 -11.1
v 0 6.2 -11.1
v 0 6.4 -11.1
v 0 6.6 -11.1
v 0 6.8 -11.1
v 0 7.3 -11.1
v 0 7.5 -11.1
v 0 7.7 -11.1
v 0.1 0.2 -11.1
v 0.1 2.9 -11.1
v 0.1 6.2 -11.1
v 0.1 6.4 -11.1
v 0.1 6.6 -11.1
v 0.1 7.5 -11.1
v 0.1 7.7 -11.1
v 0.1 8 -11.1
v 0.4 0.2 -11.1
v 0.4 2.9 -11.1
v 0.4 6.2 -11.1
v 0.4 6.4 -11.1
v 0.4 6.6 -11.1
v 0.4 7.5 -11.1
v 0.4 7.7 -11.1
v 0.4 8 -11.1
v 0.5 0 -11.1
v 0.5 0.2 -11.1
v 0.5 2.9 -11.1
v 0.5 6.2 -11.1
v 0.5 6.4 -11.1
v 0.5 6.6 -11.1
v 0.5 6.8 -11.1
v 0.5 7.3 -11.1
v 0.5 7.5 -11.1
v 0.5 7.7 -11.1
v 0.6 0 -11.1
v 0.6 0.2 -11.1
v 0.6 6.6 -11.1
v 0.6 6.8 -11.1
v 0.6 7.3 -11.1
v 0.6 7.5 -11.1
v -0.2 6.8 -11.2
v -0.2 7.1 -11.2
v -0.2 7.3 -11.2
v -0.1 6.8 -11.2
v -0.1 7.1 -11.2
v -0.1 7.3 -11.2
v 0 0 -11.2
v 0 0.2 -11.2
v 0 6.6 -11.2
v 0 6.8 -11.2
v 0 7.3 -11.2
v 0 7.5 -11.2
v 0.1 0 -11.2
v 0.1 0.2 -11.2
v 0.1 2.9 -11.2
v 0.1 6.2 -11.2
v 0.1 6.4 -11.2
v 0.1 6.6 -11.2
v 0.1 6.8 -11.2
v 0.1 7.3 -11.2
v 0.1 7.5 -11.2
v 0.1 7.7 -11.2
v 0.4 0 -11.2
v 0.4 0.2 -11.2
v 0.4 2.9 -11.2
v 0.4 6.2 -11.2
v 0.4 6.4 -11.2
v 0.4 6.6 -11.2
v 0.4 6.8 -11.2
v 0.4 7.3 -11.2
v 0.4 7.5 -11.2
v 0.4 7.7 -11.2
v 0.5 0 -11.2
v 0.5 0.2 -11.2
v 0.5 6.6 -11.2
v 0.5 6.8 -11.2
v 0.5 7.3 -11.2
v 0.5 7.5 -11.2
v 0.6 6.8 -11.2
v 0.6 7.1 -11.2
v 0.6 7.3 -11.2
v 0.7 6.8 -11.2
v 0.7 7.1 -11.2
v 0.7 7.3 -11.2
v -0.1 6.8 -11.3
v -0.1 7.1 -11.3
v -0.1 7.3 -11.3
v 0 6.8 -11.3
v 0 7.1 -11.3
v 0 7.3 -11.3
v 0.1 0 -11.3
v 0.1 0.2 -11.3
v 0.1 6.6 -11.3
v 0.1 6.8 -11.3
v 0.1 7.3 -11.3
v 0.1 7.5 -11.3
v 0.4 0 -11.3
v 0.4 0.2 -11.3
v 0.4 6.6 -11.3
v 0.4 6.8 -11.3
v 0.4 7.3 -11.3
v 0.4 7.5 -11.3
v 0.5 6.8 -11.3
v 0.5 7.1 -11.3
v 0.5 7.3 -11.3
v 0.6 6.8 -11.3
v 0.6 7.1 -11.3
v 0.6 7.3 -11.3
v 0 6.8 -11.4
v 0 7.1 -11.4
v 0 7.3 -11.4
v 0.5 6.8 -11.4
v 0.5 7.1 -11.4
v 0.5 7.3 -11.4
v 0.1 0 -10.6
v 0.4 0 -10.6
v 0 0 -10.7
v 0.1 0 -10.7
v 0.4 0 -10.7
v 0.5 0 -10.7
v -0.1 0 -10.8
v 0 0 -10.8
v 0.5 0 -10.8
v 0.6 0 -10.8
v -0.1 0 -11.1
v 0 0 -11.1
v 0.5 0 -11.1
v 0.6 0 -11.1
v 0 0 -11.2
v 0.1 0 -11.2
v 0.4 0 -11.2
v 0.5 0 -11.2
v 0.1 0 -11.3
v 0.4 0 -11.3
v 0.1 6.2 -10.7
v 0.4 6.2 -10.7
v 0 6.2 -10.8
v 0.1 6.2 -10.8
v 0.4 6.2 -10.8
v 0.5 6.2 -10.8
v 0 6.2 -11.1
v 0.1 6.2 -11.1
v 0.4 6.2 -11.1
v 0.5 6.2 -11.1
v 0.1 6.2 -11.2
v 0.4 6.2 -11.2
v 0.1 6.6 -10.6
v 0.4 6.6 -10.6
v 0 6.6 -10.7
v 0.1 6.6 -10.7
v 0.4 6.6 -10.7
v 0.5 6.6 -10.7
v -0.1 6.6 -10.8
v 0 6.6 -10.8
v 0.1 6.6 -10.8
v 0.4 6.6 -10.8
v 0.5 6.6 -10.8
v 0.6 6.6 -10.8
v -0.1 6.6 -11.1
v 0 6.6 -11.1
v 0.1 6.6 -11.1
v 0.4 6.6 -11.1
v 0.5 6.6 -11.1
v 0.6 6.6 -11.1
v 0 6.6 -11.2
v 0.1 6.6 -11.2
v 0.4 6.6 -11.2
v 0.5 6.6 -11.2
v 0.1 6.6 -11.3
v 0.4 6.6 -11.3
v 0 6.8 -10.5
v 0.5 6.8 -10.5
v -0.1 6.8 -10.6
v 0 6.8 -10.6
v 0.1 6.8 -10.6
v 0.4 6.8 -10.6
v 0.5 6.8 -10.6
v 0.6 6.8 -10.6
v -0.2 6.8 -10.7
v -0.1 6.8 -10.7
v 0 6.8 -10.7
v 0.1 6.8 -10.7
v 0.4 6.8 -10.7
v 0.5 6.8 -10.7
v 0.6 6.8 -10.7
v 0.7 6.8 -10.7
v -0.1 6.8 -10.8
v 0 6.8 -10.8
v 0.5 6.8 -10.8
v 0.6 6.8 -10.8
v -0.1 6.8 -11.1
v 0 6.8 -11.1
v 0.5 6.8 -11.1
v 0.6 6.8 -11.1
v -0.2 6.8 -11.2
v -0.1 6.8 -11.2
v 0 6.8 -11.2
v 0.1 6.8 -11.2
v 0.4 6.8 -11.2
v 0.5 6.8 -11.2
v 0.6 6.8 -11.2
v 0.7 6.8 -11.2
v -0.1 6.8 -11.3
v 0 6.8 -11.3
v 0.1 6.8 -11.3
v 0.4 6.8 -11.3
v 0.5 6.8 -11.3
v 0.6 6.8 -11.3
v 0 6.8 -11.4
v 0.5 6.8 -11.4
v 0.1 0.2 -10.6
v 0.4 0.2 -10.6
v 0 0.2 -10.7
v 0.1 0.2 -10.7
v 0.4 0.2 -10.7
v 0.5 0.2 -10.7
v -0.1 0.2 -10.8
v 0 0.2 -10.8
v 0.1 0.2 -10.8
v 0.4 0.2 -10.8
v 0.5 0.2 -10.8
v 0.6 0.2 -10.8
v -0.1 0.2 -11.1
v 0 0.2 -11.1
v 0.1 0.2 -11.1
v 0.4 0.2 -11.1
v 0.5 0.2 -11.1
v 0.6 0.2 -11.1
v 0 0.2 -11.2
v 0.1 0.2 -11.2
v 0.4 0.2 -11.2
v 0.5 0.2 -11.2
v 0.1 0.2 -11.3
v 0.4 0.2 -11.3
v 0.1 2.9 -10.7
v 0.4 2.9 -10.7
v 0 2.9 -10.8
v 0.1 2.9 -10.8
v 0.4 2.9 -10.8
v 0.5 2.9 -10.8
v 0 2.9 -11.1
v 0.1 2.9 -11.1
v 0.4 2.9 -11.1
v 0.5 2.9 -11.1
v 0.1 2.9 -11.2
v 0.4 2.9 -11.2
v 0 7.3 -10.5
v 0.5 7.3 -10.5
v -0.1 7.3 -10.6
v 0 7.3 -10.6
v 0.1 7.3 -10.6
v 0.4 7.3 -10.6
v 0.5 7.3 -10.6
v 0.6 7.3 -10.6
v -0.2 7.3 -10.7
v -0.1 7.3 -10.7
v 0 7.3 -10.7
v 0.1 7.3 -10.7
v 0.4 7.3 -10.7
v 0.5 7.3 -10.7
v 0.6 7.3 -10.7
v 0.7 7.3 -10.7
v -0.1 7.3 -10.8
v 0 7.3 -10.8
v 0.5 7.3 -10.8
v 0.6 7.3 -10.8
v -0.1 7.3 -11.1
v 0 7.3 -11.1
v 0.5 7.3 -11.1
v 0.6 7.3 -11.1
v -0.2 7.3 -11.2
v -0.1 7.3 -11.2
v 0 7.3 -11.2
v 0.1 7.3 -11.2
v 0.4 7.3 -11.2
v 0.5 7.3 -11.2
v 0.6 7.3 -11.2
v 0.7 7.3 -11.2
v -0.1 7.3 -11.3
v 0 7.3 -11.3
v 0.1 7.3 -11.3
v 0.4 7.3 -11.3
v 0.5 7.3 -11.3
v 0.6 7.3 -11.3
v 0 7.3 -11.4
v 0.5 7.3 -11.4
v 0.1 7.5 -10.6
v 0.4 7.5 -10.6
v 0 7.5 -10.7
v 0.1 7.5 -10.7
v 0.4 7.5 -10.7
v 0.5 7.5 -10.7
v -0.1 7.5 -10.8
v 0 7.5 -10.8
v 0.1 7.5 -10.8
v 0.4 7.5 -10.8
v 0.5 7.5 -10.8
v 0.6 7.5 -10.8
v -0.1 7.5 -11.1
v 0 7.5 -11.1
v 0.1 7.5 -11.1
v 0.4 7.5 -11.1
v 0.5 7.5 -11.1
v 0.6 7.5 -11.1
v 0 7.5 -11.2
v 0.1 7.5 -11.2
v 0.4 7.5 -11.2
v 0.5 7.5 -11.2
v 0.1 7.5 -11.3
v 0.4 7.5 -11.3
v 0.1 7.7 -10.7
v 0.4 7.7 -10.7
v 0 7.7 -10.8
v 0.1 7.7 -10.8
v 0.4 7.7 -10.8
v 0.5 7.7 -10.8
v 0 7.7 -11.1
v 0.1 7.7 -11.1
v 0.4 7.7 -11.1
v 0.5 7.7 -11.1
v 0.1 7.7 -11.2
v 0.4 7.7 -11.2
v 0.1 8 -10.8
v 0.4 8 -10.8
v 0.1 8 -11.1
v 0.4 8 -11.1

# faces
f 3/2/1 2/2/1 1/2/1
f 4/2/1 2/2/1 3/2/1
f 5/1/1 4/1/1 3/1/1
f 6/1/1 4/1/1 5/1/1
f 9/1/1 8/1/1 7/1/1
f 10/1/1 8/1/1 9/1/1
f 15/2/1 12/2/1 11/2/1
f 16/2/1 12/2/1 15/2/1
f 19/2/1 14/2/1 13/2/1
f 20/2/1 14/2/1 19/2/1
f 21/2/1 18/2/1 17/2/1
f 22/2/1 18/2/1 21/2/1
f 23/1/1 20/1/1 19/1/1
f 24/1/1 20/1/1 23/1/1
f 27/1/1 22/1/1 21/1/1
f 28/1/1 22/1/1 27/1/1
f 29/1/1 26/1/1 25/1/1
f 30/1/1 26/1/1 29/1/1
f 35/1/1 32/1/1 31/1/1
f 36/1/1 32/1/1 35/1/1
f 37/1/1 34/1/1 33/1/1
f 38/1/1 34/1/1 37/1/1
f 39/1/1 37/1/1 36/1/1
f 40/1/1 37/1/1 39/1/1
f 43/1/1 42/1/1 41/1/1
f 44/1/1 42/1/1 43/1/1
f 46/2/1 44/2/1 43/2/1
f 47/2/1 44/2/1 46/2/1
f 51/2/1 46/2/1 45/2/1
f 52/2/1 46/2/1 51/2/1
f 53/2/1 48/2/1 47/2/1
f 54/2/1 48/2/1 53/2/1
f 57/2/1 50/2/1 49/2/1
f 58/2/1 50/2/1 57/2/1
f 59/2/1 56/2/1 55/2/1
f 60/2/1 56/2/1 59/2/1
f 61/1/1 58/1/1 57/1/1
f 62/1/1 58/1/1 61/1/1
f 67/1/1 60/1/1 59/1/1
f 68/1/1 60/1/1 67/1/1
f 69/1/1 64/1/1 63/1/1
f 70/1/1 64/1/1 69/1/1
f 71/1/1 66/1/1 65/1/1
f 72/1/1 66/1/1 71/1/1
f 73/1/1 71/1/1 70/1/1
f 74/1/1 71/1/1 73/1/1
f 79/1/1 76/1/1 75/1/1
f 80/1/1 76/1/1 79/1/1
f 83/1/1 78/1/1 77/1/1
f 84/1/1 78/1/1 83/1/1
f 85/1/1 81/1/1 80/1/1
f 86/1/1 81/1/1 85/1/1
f 87/1/1 83/1/1 82/1/1
f 88/1/1 83/1/1 87/1/1
f 90/1/1 87/1/1 86/1/1
f 91/1/1 87/1/1 90/1/1
f 93/1/1 90/1/1 89/1/1
f 94/1/1 90/1/1 93/1/1
f 95/1/1 92/1/1 91/1/1
f 96/1/1 92/1/1 95/1/1
f 98/2/1 94/2/1 93/2/1
f 99/2/1 94/2/1 98/2/1
f 100/2/1 96/2/1 95/2/1
f 101/2/1 96/2/1 100/2/1
f 103/2/1 98/2/1 97/2/1
f 104/2/1 98/2/1 103/2/1
f 105/2/1 102/2/1 101/2/1
f 106/2/1 102/2/1 105/2/1
f 111/1/1 108/1/1 107/1/1
f 112/1/1 108/1/1 111/1/1
f 115/1/1 110/1/1 109/1/1
f 116/1/1 110/1/1 115/1/1
f 117/1/1 113/1/1 112/1/1
f 118/1/1 113/1/1 117/1/1
f 119/1/1 115/1/1 114/1/1
f 120/1/1 115/1/1 119/1/1
f 121/1/1 119/1/1 118/1/1
f 122/1/1 119/1/1 121/1/1
f 123/1/2 124/1/2 127/1/2
f 127/1/2 124/1/2 128/1/2
f 125/1/2 126/1/2 131/1/2
f 131/1/2 126/1/2 132/1/2
f 128/1/2 129/1/2 133/1/2
f 133/1/2 129/1/2 134/1/2
f 130/1/2 131/1/2 135/1/2
f 135/1/2 131/1/2 136/1/2
f 134/1/2 135/1/2 138/1/2
f 138/1/2 135/1/2 139/1/2
f 137/1/2 138/1/2 141/1/2
f 141/1/2 138/1/2 142/1/2
f 139/1/2 140/1/2 143/1/2
f 143/1/2 140/1/2 144/1/2
f 141/2/2 142/2/2 146/2/2
f 146/2/2 142/2/2 147/2/2
f 143/2/2 144/2/2 148/2/2
f 148/2/2 144/2/2 149/2/2
f 145/2/2 146/2/2 151/2/2
f 151/2/2 146/2/2 152/2/2
f 149/2/2 150/2/2 153/2/2
f 153/2/2 150/2/2 154/2/2
f 155/1/2 156/1/2 159/1/2
f 159/1/2 156/1/2 160/1/2
f 157/1/2 158/1/2 163/1/2
f 163/1/2 158/1/2 164/1/2
f 160/1/2 161/1/2 165/1/2
f 165/1/2 161/1/2 166/1/2
f 162/1/2 163/1/2 167/1/2
f 167/1/2 163/1/2 168/1/2
f 166/1/2 167/1/2 169/1/2
f 169/1/2 167/1/2 170/1/2
f 171/1/2 172/1/2 175/1/2
f 175/1/2 172/1/2 176/1/2
f 173/1/2 174/1/2 177/1/2
f 177/1/2 174/1/2 178/1/2
f 176/1/2 177/1/2 179/1/2
f 179/1/2 177/1/2 180/1/2
f 181/1/2 182/1/2 183/1/2
f 183/1/2 182/1/2 184/1/2
f 183/2/2 184/2/2 186/2/2
f 186/2/2 184/2/2 187/2/2
f 185/2/2 186/2/2 191/2/2
f 191/2/2 186/2/2 192/2/2
f 187/2/2 188/2/2 193/2/2
f 193/2/2 188/2/2 194/2/2
f 189/2/2 190/2/2 197/2/2
f 197/2/2 190/2/2 198/2/2
f 195/2/2 196/2/2 199/2/2
f 199/2/2 196/2/2 200/2/2
f 197/1/2 198/1/2 201/1/2
f 201/1/2 198/1/2 202/1/2
f 199/1/2 200/1/2 207/1/2
f 207/1/2 200/1/2 208/1/2
f 203/1/2 204/1/2 209/1/2
f 209/1/2 204/1/2 210/1/2
f 205/1/2 206/1/2 211/1/2
f 211/1/2 206/1/2 212/1/2
f 210/1/2 211/1/2 213/1/2
f 213/1/2 211/1/2 214/1/2
f 215/1/2 216/1/2 217/1/2
f 217/1/2 216/1/2 218/1/2
f 219/2/2 220/2/2 223/2/2
f 223/2/2 220/2/2 224/2/2
f 221/2/2 222/2/2 227/2/2
f 227/2/2 222/2/2 228/2/2
f 225/2/2 226/2/2 229/2/2
f 229/2/2 226/2/2 230/2/2
f 227/1/2 228/1/2 231/1/2
f 231/1/2 228/1/2 232/1/2
f 229/1/2 230/1/2 235/1/2
f 235/1/2 230/1/2 236/1/2
f 233/1/2 234/1/2 237/1/2
f 237/1/2 234/1/2 238/1/2
f 239/2/2 240/2/2 241/2/2
f 241/2/2 240/2/2 242/2/2
f 241/1/2 242/1/2 243/1/2
f 243/1/2 242/1/2 244/1/2
f 248/2/3 246/2/3 245/2/3
f 249/1/3 247/1/3 246/1/3
f 249/2/3 246/2/3 248/2/3
f 250/1/3 247/1/3 249/1/3
f 254/2/3 252/2/3 251/2/3
f 255/1/3 253/1/3 252/1/3
f 255/2/3 252/2/3 254/2/3
f 256/1/3 253/1/3 255/1/3
f 263/1/3 258/1/3 257/1/3
f 264/1/3 258/1/3 263/1/3
f 265/2/3 260/2/3 259/2/3
f 266/2/3 260/2/3 265/2/3
f 267/1/3 262/1/3 261/1/3
f 268/1/3 262/1/3 267/1/3
f 272/2/3 270/2/3 269/2/3
f 273/1/3 271/1/3 270/1/3
f 273/2/3 270/2/3 272/2/3
f 274/1/3 271/1/3 273/1/3
f 278/2/3 276/2/3 275/2/3
f 279/1/3 277/1/3 276/1/3
f 279/2/3 276/2/3 278/2/3
f 280/1/3 277/1/3 279/1/3
f 287/1/3 282/1/3 281/1/3
f 288/1/3 282/1/3 287/1/3
f 292/2/3 284/2/3 283/2/3
f 293/2/3 284/2/3 292/2/3
f 294/1/3 286/1/3 285/1/3
f 295/1/3 286/1/3 294/1/3
f 298/1/3 289/1/3 288/1/3
f 299/1/3 289/1/3 298/1/3
f 300/1/3 291/1/3 290/1/3
f 301/2/3 292/2/3 291/2/3
f 301/1/3 291/1/3 300/1/3
f 302/2/3 292/2/3 301/2/3
f 305/1/3 296/1/3 295/1/3
f 306/1/3 296/1/3 305/1/3
f 307/1/3 298/1/3 297/1/3
f 308/1/3 298/1/3 307/1/3
f 309/2/3 303/2/3 302/2/3
f 310/2/3 303/2/3 309/2/3
f 311/1/3 305/1/3 304/1/3
f 312/1/3 305/1/3 311/1/3
f 316/2/3 314/2/3 313/2/3
f 317/1/3 315/1/3 314/1/3
f 317/2/3 314/2/3 316/2/3
f 318/1/3 315/1/3 317/1/3
f 325/1/3 320/1/3 319/1/3
f 326/1/3 320/1/3 325/1/3
f 330/2/3 322/2/3 321/2/3
f 331/2/3 322/2/3 330/2/3
f 332/1/3 324/1/3 323/1/3
f 333/1/3 324/1/3 332/1/3
f 335/1/3 327/1/3 326/1/3
f 336/1/3 327/1/3 335/1/3
f 337/1/3 329/1/3 328/1/3
f 338/2/3 330/2/3 329/2/3
f 338/1/3 329/1/3 337/1/3
f 339/2/3 330/2/3 338/2/3
f 340/1/3 334/1/3 333/1/3
f 341/1/3 334/1/3 340/1/3
f 344/1/3 337/1/3 336/1/3
f 345/1/3 337/1/3 344/1/3
f 349/1/3 342/1/3 341/1/3
f 350/1/3 342/1/3 349/1/3
f 352/1/3 344/1/3 343/1/3
f 353/1/3 344/1/3 352/1/3
f 354/1/3 346/1/3 345/1/3
f 355/2/3 347/2/3 346/2/3
f 355/1/3 346/1/3 354/1/3
f 356/2/3 347/2/3 355/2/3
f 359/1/3 349/1/3 348/1/3
f 360/1/3 349/1/3 359/1/3
f 361/1/3 352/1/3 351/1/3
f 362/1/3 352/1/3 361/1/3
f 363/2/3 357/2/3 356/2/3
f 364/2/3 357/2/3 363/2/3
f 365/1/3 359/1/3 358/1/3
f 366/1/3 359/1/3 365/1/3
f 367/1/4 368/1/4 373/1/4
f 373/1/4 368/1/4 374/1/4
f 369/2/4 370/2/4 378/2/4
f 378/2/4 370/2/4 379/2/4
f 371/1/4 372/1/4 380/1/4
f 380/1/4 372/1/4 381/1/4
f 374/1/4 375/1/4 383/1/4
f 383/1/4 375/1/4 384/1/4
f 376/1/4 377/1/4 385/1/4
f 377/2/4 378/2/4 386/2/4
f 385/1/4 377/1/4 386/1/4
f 386/2/4 378/2/4 387/2/4
f 381/1/4 382/1/4 388/1/4
f 388/1/4 382/1/4 389/1/4
f 384/1/4 385/1/4 392/1/4
f 392/1/4 385/1/4 393/1/4
f 389/1/4 390/1/4 397/1/4
f 397/1/4 390/1/4 398/1/4
f 391/1/4 392/1/4 400/1/4
f 400/1/4 392/1/4 401/1/4
f 393/1/4 394/1/4 402/1/4
f 394/2/4 395/2/4 403/2/4
f 402/1/4 394/1/4 403/1/4
f 403/2/4 395/2/4 404/2/4
f 396/1/4 397/1/4 407/1/4
f 407/1/4 397/1/4 408/1/4
f 399/1/4 400/1/4 409/1/4
f 409/1/4 400/1/4 410/1/4
f 404/2/4 405/2/4 411/2/4
f 411/2/4 405/2/4 412/2/4
f 406/1/4 407/1/4 413/1/4
f 413/1/4 407/1/4 414/1/4
f 415/2/4 416/2/4 418/2/4
f 416/1/4 417/1/4 419/1/4
f 418/2/4 416/2/4 419/2/4
f 419/1/4 417/1/4 420/1/4
f 421/1/4 422/1/4 427/1/4
f 427/1/4 422/1/4 428/1/4
f 423/2/4 424/2/4 432/2/4
f 432/2/4 424/2/4 433/2/4
f 425/1/4 426/1/4 434/1/4
f 434/1/4 426/1/4 435/1/4
f 428/1/4 429/1/4 438/1/4
f 438/1/4 429/1/4 439/1/4
f 430/1/4 431/1/4 440/1/4
f 431/2/4 432/2/4 441/2/4
f 440/1/4 431/1/4 441/1/4
f 441/2/4 432/2/4 442/2/4
f 435/1/4 436/1/4 445/1/4
f 445/1/4 436/1/4 446/1/4
f 437/1/4 438/1/4 447/1/4
f 447/1/4 438/1/4 448/1/4
f 442/2/4 443/2/4 449/2/4
f 449/2/4 443/2/4 450/2/4
f 444/1/4 445/1/4 451/1/4
f 451/1/4 445/1/4 452/1/4
f 453/2/4 454/2/4 456/2/4
f 454/1/4 455/1/4 457/1/4
f 456/2/4 454/2/4 457/2/4
f 457/1/4 455/1/4 458/1/4
f 459/2/4 460/2/4 462/2/4
f 460/1/4 461/1/4 463/1/4
f 462/2/4 460/2/4 463/2/4
f 463/1/4 461/1/4 464/1/4
f 465/1/4 466/1/4 471/1/4
f 471/1/4 466/1/4 472/1/4
f 467/2/4 468/2/4 473/2/4
f 473/2/4 468/2/4 474/2/4
f 469/1/4 470/1/4 475/1/4
f 475/1/4 470/1/4 476/1/4
f 477/2/4 478/2/4 480/2/4
f 478/1/4 479/1/4 481/1/4
f 480/2/4 478/2/4 481/2/4
f 481/1/4 479/1/4 482/1/4
f 483/2/4 484/2/4 486/2/4
f 484/1/4 485/1/4 487/1/4
f 486/2/4 484/2/4 487/2/4
f 487/1/4 485/1/4 488/1/4
f 492/1/5 490/1/5 489/1/5
f 493/1/5 490/1/5 492/1/5
f 496/1/5 492/1/5 491/1/5
f 496/1/5 494/1/5 493/1/5
f 496/1/5 493/1/5 492/1/5
f 497/1/5 494/1/5 496/1/5
f 499/1/5 496/1/5 495/1/5
f 499/1/5 498/1/5 497/1/5
f 499/1/5 497/1/5 496/1/5
f 500/1/5 498/1/5 499/1/5
f 501/1/5 498/1/5 500/1/5
f 502/1/5 498/1/5 501/1/5
f 503/1/5 501/1/5 500/1/5
f 504/1/5 501/1/5 503/1/5
f 505/1/5 501/1/5 504/1/5
f 506/1/5 501/1/5 505/1/5
f 507/1/5 505/1/5 504/1/5
f 508/1/5 505/1/5 507/1/5
f 512/1/5 510/1/5 509/1/5
f 513/1/5 510/1/5 512/1/5
f 515/1/5 512/1/5 511/1/5
f 516/1/5 512/1/5 515/1/5
f 517/1/5 514/1/5 513/1/5
f 518/1/5 514/1/5 517/1/5
f 519/1/5 517/1/5 516/1/5
f 520/1/5 517/1/5 519/1/5
f 524/2/5 522/2/5 521/2/5
f 525/2/5 522/2/5 524/2/5
f 528/2/5 524/2/5 523/2/5
f 529/2/5 524/2/5 528/2/5
f 530/2/5 526/2/5 525/2/5
f 531/2/5 526/2/5 530/2/5
f 533/2/5 528/2/5 527/2/5
f 534/2/5 528/2/5 533/2/5
f 537/2/5 532/2/5 531/2/5
f 538/2/5 532/2/5 537/2/5
f 539/2/5 535/2/5 534/2/5
f 540/2/5 535/2/5 539/2/5
f 541/2/5 537/2/5 536/2/5
f 542/2/5 537/2/5 541/2/5
f 543/2/5 541/2/5 540/2/5
f 544/2/5 541/2/5 543/2/5
f 548/2/5 546/2/5 545/2/5
f 549/2/5 546/2/5 548/2/5
f 550/2/5 546/2/5 549/2/5
f 551/2/5 546/2/5 550/2/5
f 554/2/5 548/2/5 547/2/5
f 554/2/5 549/2/5 548/2/5
f 555/2/5 549/2/5 554/2/5
f 556/2/5 549/2/5 555/2/5
f 557/2/5 551/2/5 550/2/5
f 557/2/5 552/2/5 551/2/5
f 558/2/5 552/2/5 557/2/5
f 559/2/5 552/2/5 558/2/5
f 561/2/5 555/2/5 554/2/5
f 561/2/5 554/2/5 553/2/5
f 562/2/5 555/2/5 561/2/5
f 563/2/5 560/2/5 559/2/5
f 563/2/5 559/2/5 558/2/5
f 564/2/5 560/2/5 563/2/5
f 565/2/5 561/2/5 553/2/5
f 568/2/5 560/2/5 564/2/5
f 569/2/5 566/2/5 565/2/5
f 569/2/5 565/2/5 553/2/5
f 570/2/5 566/2/5 569/2/5
f 571/2/5 566/2/5 570/2/5
f 574/2/5 568/2/5 567/2/5
f 575/2/5 560/2/5 568/2/5
f 575/2/5 568/2/5 574/2/5
f 576/2/5 560/2/5 575/2/5
f 577/2/5 572/2/5 571/2/5
f 577/2/5 571/2/5 570/2/5
f 578/2/5 572/2/5 577/2/5
f 579/2/5 572/2/5 578/2/5
f 580/2/5 574/2/5 573/2/5
f 580/2/5 575/2/5 574/2/5
f 581/2/5 575/2/5 580/2/5
f 582/2/5 575/2/5 581/2/5
f 583/2/5 579/2/5 578/2/5
f 583/2/5 581/2/5 580/2/5
f 583/2/5 580/2/5 579/2/5
f 584/2/5 581/2/5 583/2/5
f 585/1/6 586/1/6 588/1/6
f 588/1/6 586/1/6 589/1/6
f 587/1/6 588/1/6 592/1/6
f 592/1/6 588/1/6 593/1/6
f 589/1/6 590/1/6 594/1/6
f 594/1/6 590/1/6 595/1/6
f 591/1/6 592/1/6 597/1/6
f 597/1/6 592/1/6 598/1/6
f 595/1/6 596/1/6 601/1/6
f 601/1/6 596/1/6 602/1/6
f 598/1/6 599/1/6 603/1/6
f 603/1/6 599/1/6 604/1/6
f 600/1/6 601/1/6 605/1/6
f 605/1/6 601/1/6 606/1/6
f 604/1/6 605/1/6 607/1/6
f 607/1/6 605/1/6 608/1/6
f 609/1/6 610/1/6 612/1/6
f 612/1/6 610/1/6 613/1/6
f 611/1/6 612/1/6 615/1/6
f 615/1/6 612/1/6 616/1/6
f 613/1/6 614/1/6 617/1/6
f 617/1/6 614/1/6 618/1/6
f 616/1/6 617/1/6 619/1/6
f 619/1/6 617/1/6 620/1/6
f 621/1/6 622/1/6 624/1/6
f 624/1/6 622/1/6 625/1/6
f 625/1/6 622/1/6 626/1/6
f 626/1/6 622/1/6 627/1/6
f 623/1/6 624/1/6 630/1/6
f 624/1/6 625/1/6 630/1/6
f 630/1/6 625/1/6 631/1/6
f 631/1/6 625/1/6 632/1/6
f 626/1/6 627/1/6 633/1/6
f 627/1/6 628/1/6 633/1/6
f 633/1/6 628/1/6 634/1/6
f 634/1/6 628/1/6 635/1/6
f 630/1/6 631/1/6 637/1/6
f 629/1/6 630/1/6 637/1/6
f 637/1/6 631/1/6 638/1/6
f 635/1/6 636/1/6 639/1/6
f 634/1/6 635/1/6 639/1/6
f 639/1/6 636/1/6 640/1/6
f 629/1/6 637/1/6 641/1/6
f 640/1/6 636/1/6 644/1/6
f 641/1/6 642/1/6 645/1/6
f 629/1/6 641/1/6 645/1/6
f 645/1/6 642/1/6 646/1/6
f 646/1/6 642/1/6 647/1/6
f 643/1/6 644/1/6 650/1/6
f 644/1/6 636/1/6 651/1/6
f 650/1/6 644/1/6 651/1/6
f 651/1/6 636/1/6 652/1/6
f 647/1/6 648/1/6 653/1/6
f 646/1/6 647/1/6 653/1/6
f 653/1/6 648/1/6 654/1/6
f 654/1/6 648/1/6 655/1/6
f 649/1/6 650/1/6 656/1/6
f 650/1/6 651/1/6 656/1/6
f 656/1/6 651/1/6 657/1/6
f 657/1/6 651/1/6 658/1/6
f 654/1/6 655/1/6 659/1/6
f 656/1/6 657/1/6 659/1/6
f 655/1/6 656/1/6 659/1/6
f 659/1/6 657/1/6 660/1/6
f 661/1/6 662/1/6 664/1/6
f 664/1/6 662/1/6 665/1/6
f 663/1/6 664/1/6 668/1/6
f 668/1/6 664/1/6 669/1/6
f 665/1/6 666/1/6 670/1/6
f 670/1/6 666/1/6 671/1/6
f 667/1/6 668/1/6 673/1/6
f 673/1/6 668/1/6 674/1/6
f 671/1/6 672/1/6 677/1/6
f 677/1/6 672/1/6 678/1/6
f 674/1/6 675/1/6 679/1/6
f 679/1/6 675/1/6 680/1/6
f 676/1/6 677/1/6 681/1/6
f 681/1/6 677/1/6 682/1/6
f 680/1/6 681/1/6 683/1/6
f 683/1/6 681/1/6 684/1/6
f 685/1/6 686/1/6 688/1/6
f 688/1/6 686/1/6 689/1/6
f 687/1/6 688/1/6 691/1/6
f 691/1/6 688/1/6 692/1/6
f 689/1/6 690/1/6 693/1/6
f 693/1/6 690/1/6 694/1/6
f 692/1/6 693/1/6 695/1/6
f 695/1/6 693/1/6 696/1/6
f 697/1/6 698/1/6 699/1/6
f 699/1/6 698/1/6 700/1/6
