# MagicaVoxel @ Ephtracy

# group
o 

# material
mtllib Path-5.mtl
usemtl palette

# normals
vn -1 0 0
vn 1 0 0
vn 0 0 1
vn 0 0 -1
vn 0 -1 0
vn 0 1 0

# texcoords
vt 0.939453 0.5
vt 0.943359 0.5
vt 0.947266 0.5
vt 0.951172 0.5
vt 0.955078 0.5
vt 0.958984 0.5

# verts
v -2.2 0 0.6
v -2.2 0 0.1
v -2.2 0 5.96046e-08
v -2.2 0 -0.5
v -2.2 0 -0.6
v -2.2 0 -1.1
v -2.2 0 -1.2
v -2.2 0 -1.7
v -2.2 0 -1.8
v -2.2 0 -2.3
v -2.2 0 -2.4
v -2.2 0 -2.9
v -2.2 0 -3
v -2.2 0 -3.7
v -2.2 0.3 0.1
v -2.2 0.3 5.96046e-08
v -2.2 0.3 -0.5
v -2.2 0.3 -0.6
v -2.2 0.3 -1.1
v -2.2 0.3 -1.2
v -2.2 0.3 -1.7
v -2.2 0.3 -1.8
v -2.2 0.3 -2.3
v -2.2 0.3 -2.4
v -2.2 0.3 -2.9
v -2.2 0.3 -3
v -2.2 0.4 0.6
v -2.2 0.4 0.1
v -2.2 0.4 5.96046e-08
v -2.2 0.4 -0.5
v -2.2 0.4 -0.6
v -2.2 0.4 -1.1
v -2.2 0.4 -1.2
v -2.2 0.4 -1.7
v -2.2 0.4 -1.8
v -2.2 0.4 -2.3
v -2.2 0.4 -2.4
v -2.2 0.4 -2.9
v -2.2 0.4 -3
v -2.2 0.4 -3.7
v -1.5 0.2 0.5
v -1.5 0.2 -0.3
v -1.5 0.2 -2
v -1.5 0.2 -2.6
v -1.5 0.3 0.5
v -1.5 0.3 -0.3
v -1.5 0.3 -2
v -1.5 0.3 -2.6
v -0.8 0.2 -2.3
v -0.8 0.2 -2.7
v -0.8 0.3 -2.3
v -0.8 0.3 -2.7
v -0.7 0.2 0.3
v -0.7 0.2 -0.3
v -0.7 0.3 0.3
v -0.7 0.3 -0.3
v -0.6 0.2 -1.1
v -0.6 0.2 -1.4
v -0.6 0.3 -1.1
v -0.6 0.3 -1.4
v -0.5 0.2 -3.3
v -0.5 0.2 -3.6
v -0.5 0.3 -3.3
v -0.5 0.3 -3.6
v -0.0999999 0.2 -0.8
v -0.0999999 0.2 -1
v -0.0999999 0.2 -2
v -0.0999999 0.2 -2.3
v -0.0999999 0.3 -0.8
v -0.0999999 0.3 -1
v -0.0999999 0.3 -2
v -0.0999999 0.3 -2.3
v 0 0.2 -0.2
v 0 0.2 -0.6
v 0 0.3 -0.2
v 0 0.3 -0.6
v 0.2 0.2 -2.6
v 0.2 0.2 -2.9
v 0.2 0.3 -2.6
v 0.2 0.3 -2.9
v 0.6 0.2 0.4
v 0.6 0.2 -0.4
v 0.6 0.2 -1.1
v 0.6 0.2 -1.6
v 0.6 0.3 0.4
v 0.6 0.3 -0.4
v 0.6 0.3 -1.1
v 0.6 0.3 -1.6
v 0.8 0.2 -1.9
v 0.8 0.2 -2.3
v 0.8 0.2 -3.2
v 0.8 0.2 -3.5
v 0.8 0.3 -1.9
v 0.8 0.3 -2.3
v 0.8 0.3 -3.2
v 0.8 0.3 -3.5
v 1.4 0.2 0.1
v 1.4 0.2 -0.6
v 1.4 0.3 0.1
v 1.4 0.3 -0.6
v 1.6 0.2 -3
v 1.6 0.2 -3.7
v 1.6 0.3 -3
v 1.6 0.3 -3.7
v 1.8 0.2 -3
v 1.8 0.2 -3.7
v 1.8 0.3 -3
v 1.8 0.3 -3.7
v 1.9 0.2 0.6
v 1.9 0.2 0.1
v 1.9 0.2 5.96046e-08
v 1.9 0.2 -0.5
v 1.9 0.2 -0.6
v 1.9 0.2 -0.8
v 1.9 0.2 -1.1
v 1.9 0.2 -1.2
v 1.9 0.2 -1.7
v 1.9 0.2 -1.8
v 1.9 0.2 -2.3
v 1.9 0.2 -2.4
v 1.9 0.2 -2.9
v 1.9 0.2 -3
v 1.9 0.3 0.1
v 1.9 0.3 5.96046e-08
v 1.9 0.3 -0.5
v 1.9 0.3 -0.6
v 1.9 0.3 -1.1
v 1.9 0.3 -1.2
v 1.9 0.3 -1.7
v 1.9 0.3 -1.8
v 1.9 0.3 -2.3
v 1.9 0.3 -2.4
v 1.9 0.3 -2.9
v 1.9 0.3 -3
v 1.9 0.3 -3.7
v 1.9 0.4 0.6
v 1.9 0.4 0.1
v 1.9 0.4 5.96046e-08
v 1.9 0.4 -0.5
v 1.9 0.4 -0.6
v 1.9 0.4 -1.1
v 1.9 0.4 -1.2
v 1.9 0.4 -1.7
v 1.9 0.4 -1.8
v 1.9 0.4 -2.3
v 1.9 0.4 -2.4
v 1.9 0.4 -2.9
v 1.9 0.4 -3
v 1.9 0.4 -3.7
v -1.7 0.2 0.6
v -1.7 0.2 0.5
v -1.7 0.2 0.1
v -1.7 0.2 5.96046e-08
v -1.7 0.2 -0.3
v -1.7 0.2 -0.5
v -1.7 0.2 -0.6
v -1.7 0.2 -0.9
v -1.7 0.2 -1.1
v -1.7 0.2 -1.2
v -1.7 0.2 -1.6
v -1.7 0.2 -1.7
v -1.7 0.2 -1.8
v -1.7 0.2 -2
v -1.7 0.2 -2.3
v -1.7 0.2 -2.4
v -1.7 0.2 -2.6
v -1.7 0.2 -2.9
v -1.7 0.2 -3
v -1.7 0.3 0.1
v -1.7 0.3 5.96046e-08
v -1.7 0.3 -0.5
v -1.7 0.3 -0.6
v -1.7 0.3 -1.1
v -1.7 0.3 -1.2
v -1.7 0.3 -1.6
v -1.7 0.3 -1.7
v -1.7 0.3 -1.8
v -1.7 0.3 -2.3
v -1.7 0.3 -2.4
v -1.7 0.3 -2.9
v -1.7 0.3 -3
v -1.7 0.3 -3.5
v -1.7 0.3 -3.7
v -1.7 0.4 0.6
v -1.7 0.4 0.1
v -1.7 0.4 5.96046e-08
v -1.7 0.4 -0.5
v -1.7 0.4 -0.6
v -1.7 0.4 -1.1
v -1.7 0.4 -1.2
v -1.7 0.4 -1.7
v -1.7 0.4 -1.8
v -1.7 0.4 -2.3
v -1.7 0.4 -2.4
v -1.7 0.4 -2.9
v -1.7 0.4 -3
v -1.7 0.4 -3.7
v -1.6 0.2 -1.2
v -1.6 0.2 -1.6
v -1.6 0.2 -3
v -1.6 0.2 -3.5
v -1.6 0.2 -3.7
v -1.6 0.3 -1.2
v -1.6 0.3 -1.6
v -1.6 0.3 -3
v -1.6 0.3 -3.5
v -1.6 0.3 -3.7
v -1.2 0.2 0.5
v -1.2 0.2 -0.3
v -1.2 0.3 0.5
v -1.2 0.3 -0.3
v -1 0.2 -2
v -1 0.2 -2.6
v -1 0.3 -2
v -1 0.3 -2.6
v -0.6 0.2 -2.3
v -0.6 0.2 -2.7
v -0.6 0.3 -2.3
v -0.6 0.3 -2.7
v -0.2 0.2 0.3
v -0.2 0.2 -0.3
v -0.2 0.2 -1.1
v -0.2 0.2 -1.4
v -0.2 0.2 -3.3
v -0.2 0.2 -3.6
v -0.2 0.3 0.3
v -0.2 0.3 -0.3
v -0.2 0.3 -1.1
v -0.2 0.3 -1.4
v -0.2 0.3 -3.3
v -0.2 0.3 -3.6
v 0.1 0.2 -0.8
v 0.1 0.2 -1
v 0.1 0.2 -2
v 0.1 0.2 -2.3
v 0.1 0.3 -0.8
v 0.1 0.3 -1
v 0.1 0.3 -2
v 0.1 0.3 -2.3
v 0.2 0.2 -0.2
v 0.2 0.2 -0.6
v 0.2 0.3 -0.2
v 0.2 0.3 -0.6
v 0.4 0.2 -2.6
v 0.4 0.2 -2.9
v 0.4 0.3 -2.6
v 0.4 0.3 -2.9
v 0.8 0.2 -1.1
v 0.8 0.2 -1.6
v 0.8 0.3 -1.1
v 0.8 0.3 -1.6
v 1 0.2 0.4
v 1 0.2 -0.4
v 1 0.2 -3.2
v 1 0.2 -3.5
v 1 0.3 0.4
v 1 0.3 -0.4
v 1 0.3 -3.2
v 1 0.3 -3.5
v 1.2 0.2 -1.9
v 1.2 0.2 -2.3
v 1.2 0.3 -1.9
v 1.2 0.3 -2.3
v 1.7 0.2 0.1
v 1.7 0.2 -0.6
v 1.7 0.2 -3
v 1.7 0.2 -3.7
v 1.7 0.3 0.1
v 1.7 0.3 -0.6
v 1.7 0.3 -3
v 1.7 0.3 -3.7
v 2.4 0 0.6
v 2.4 0 0.1
v 2.4 0 5.96046e-08
v 2.4 0 -0.5
v 2.4 0 -0.6
v 2.4 0 -1.1
v 2.4 0 -1.2
v 2.4 0 -1.7
v 2.4 0 -1.8
v 2.4 0 -2.3
v 2.4 0 -2.4
v 2.4 0 -2.9
v 2.4 0 -3
v 2.4 0 -3.7
v 2.4 0.3 0.1
v 2.4 0.3 5.96046e-08
v 2.4 0.3 -0.5
v 2.4 0.3 -0.6
v 2.4 0.3 -1.1
v 2.4 0.3 -1.2
v 2.4 0.3 -1.7
v 2.4 0.3 -1.8
v 2.4 0.3 -2.3
v 2.4 0.3 -2.4
v 2.4 0.3 -2.9
v 2.4 0.3 -3
v 2.4 0.4 0.6
v 2.4 0.4 0.1
v 2.4 0.4 5.96046e-08
v 2.4 0.4 -0.5
v 2.4 0.4 -0.6
v 2.4 0.4 -1.1
v 2.4 0.4 -1.2
v 2.4 0.4 -1.7
v 2.4 0.4 -1.8
v 2.4 0.4 -2.3
v 2.4 0.4 -2.4
v 2.4 0.4 -2.9
v 2.4 0.4 -3
v 2.4 0.4 -3.7
v -2.2 0 0.6
v -2.2 0.4 0.6
v -1.7 0 0.6
v -1.7 0.2 0.6
v -1.7 0.4 0.6
v -1.6 0.1 0.6
v -1.6 0.2 0.6
v -1.5 0.1 0.6
v -1.5 0.2 0.6
v -0.9 0.1 0.6
v -0.9 0.2 0.6
v -0.8 0.1 0.6
v -0.8 0.2 0.6
v -0.2 0.1 0.6
v -0.2 0.2 0.6
v -0.0999999 0.1 0.6
v -0.0999999 0.2 0.6
v 0 0.1 0.6
v 0 0.2 0.6
v 0.2 0.1 0.6
v 0.2 0.2 0.6
v 0.5 0.1 0.6
v 0.5 0.2 0.6
v 0.6 0.1 0.6
v 0.6 0.2 0.6
v 1.2 0.1 0.6
v 1.2 0.2 0.6
v 1.3 0.1 0.6
v 1.3 0.2 0.6
v 1.7 0.1 0.6
v 1.7 0.2 0.6
v 1.8 0.1 0.6
v 1.8 0.2 0.6
v 1.9 0 0.6
v 1.9 0.2 0.6
v 1.9 0.4 0.6
v 2.4 0 0.6
v 2.4 0.4 0.6
v -1.5 0.2 0.5
v -1.5 0.3 0.5
v -1.2 0.2 0.5
v -1.2 0.3 0.5
v 0.6 0.2 0.4
v 0.6 0.3 0.4
v 1 0.2 0.4
v 1 0.3 0.4
v -0.7 0.2 0.3
v -0.7 0.3 0.3
v -0.2 0.2 0.3
v -0.2 0.3 0.3
v 1.4 0.2 0.1
v 1.4 0.3 0.1
v 1.7 0.2 0.1
v 1.7 0.3 0.1
v -2.2 0.3 5.96046e-08
v -2.2 0.4 5.96046e-08
v -1.7 0.3 5.96046e-08
v -1.7 0.4 5.96046e-08
v 1.9 0.3 5.96046e-08
v 1.9 0.4 5.96046e-08
v 2.4 0.3 5.96046e-08
v 2.4 0.4 5.96046e-08
v 0 0.2 -0.2
v 0 0.3 -0.2
v 0.2 0.2 -0.2
v 0.2 0.3 -0.2
v -2.2 0.3 -0.6
v -2.2 0.4 -0.6
v -1.7 0.3 -0.6
v -1.7 0.4 -0.6
v 1.9 0.3 -0.6
v 1.9 0.4 -0.6
v 2.4 0.3 -0.6
v 2.4 0.4 -0.6
v -0.0999999 0.2 -0.8
v -0.0999999 0.3 -0.8
v 0.1 0.2 -0.8
v 0.1 0.3 -0.8
v -0.6 0.2 -1.1
v -0.6 0.3 -1.1
v -0.2 0.2 -1.1
v -0.2 0.3 -1.1
v 0.6 0.2 -1.1
v 0.6 0.3 -1.1
v 0.8 0.2 -1.1
v 0.8 0.3 -1.1
v -2.2 0.3 -1.2
v -2.2 0.4 -1.2
v -1.7 0.2 -1.2
v -1.7 0.3 -1.2
v -1.7 0.4 -1.2
v -1.6 0.2 -1.2
v -1.6 0.3 -1.2
v 1.9 0.3 -1.2
v 1.9 0.4 -1.2
v 2.4 0.3 -1.2
v 2.4 0.4 -1.2
v -2.2 0.3 -1.8
v -2.2 0.4 -1.8
v -1.7 0.3 -1.8
v -1.7 0.4 -1.8
v 1.9 0.3 -1.8
v 1.9 0.4 -1.8
v 2.4 0.3 -1.8
v 2.4 0.4 -1.8
v 0.8 0.2 -1.9
v 0.8 0.3 -1.9
v 1.2 0.2 -1.9
v 1.2 0.3 -1.9
v -1.5 0.2 -2
v -1.5 0.3 -2
v -1 0.2 -2
v -1 0.3 -2
v -0.0999999 0.2 -2
v -0.0999999 0.3 -2
v 0.1 0.2 -2
v 0.1 0.3 -2
v -0.8 0.2 -2.3
v -0.8 0.3 -2.3
v -0.6 0.2 -2.3
v -0.6 0.3 -2.3
v -2.2 0.3 -2.4
v -2.2 0.4 -2.4
v -1.7 0.3 -2.4
v -1.7 0.4 -2.4
v 1.9 0.3 -2.4
v 1.9 0.4 -2.4
v 2.4 0.3 -2.4
v 2.4 0.4 -2.4
v 0.2 0.2 -2.6
v 0.2 0.3 -2.6
v 0.4 0.2 -2.6
v 0.4 0.3 -2.6
v -2.2 0.3 -3
v -2.2 0.4 -3
v -1.7 0.2 -3
v -1.7 0.3 -3
v -1.7 0.4 -3
v -1.6 0.2 -3
v -1.6 0.3 -3
v 1.6 0.2 -3
v 1.6 0.3 -3
v 1.7 0.2 -3
v 1.7 0.3 -3
v 1.8 0.2 -3
v 1.8 0.3 -3
v 1.9 0.2 -3
v 1.9 0.3 -3
v 1.9 0.4 -3
v 2.4 0.3 -3
v 2.4 0.4 -3
v 0.8 0.2 -3.2
v 0.8 0.3 -3.2
v 1 0.2 -3.2
v 1 0.3 -3.2
v -0.5 0.2 -3.3
v -0.5 0.3 -3.3
v -0.2 0.2 -3.3
v -0.2 0.3 -3.3
v -2.2 0.3 0.1
v -2.2 0.4 0.1
v -1.7 0.3 0.1
v -1.7 0.4 0.1
v 1.9 0.3 0.1
v 1.9 0.4 0.1
v 2.4 0.3 0.1
v 2.4 0.4 0.1
v -1.5 0.2 -0.3
v -1.5 0.3 -0.3
v -1.2 0.2 -0.3
v -1.2 0.3 -0.3
v -0.7 0.2 -0.3
v -0.7 0.3 -0.3
v -0.2 0.2 -0.3
v -0.2 0.3 -0.3
v 0.6 0.2 -0.4
v 0.6 0.3 -0.4
v 1 0.2 -0.4
v 1 0.3 -0.4
v -2.2 0.3 -0.5
v -2.2 0.4 -0.5
v -1.7 0.3 -0.5
v -1.7 0.4 -0.5
v 1.9 0.3 -0.5
v 1.9 0.4 -0.5
v 2.4 0.3 -0.5
v 2.4 0.4 -0.5
v 0 0.2 -0.6
v 0 0.3 -0.6
v 0.2 0.2 -0.6
v 0.2 0.3 -0.6
v 1.4 0.2 -0.6
v 1.4 0.3 -0.6
v 1.7 0.2 -0.6
v 1.7 0.3 -0.6
v -0.0999999 0.2 -1
v -0.0999999 0.3 -1
v 0.1 0.2 -1
v 0.1 0.3 -1
v -2.2 0.3 -1.1
v -2.2 0.4 -1.1
v -1.7 0.3 -1.1
v -1.7 0.4 -1.1
v 1.9 0.3 -1.1
v 1.9 0.4 -1.1
v 2.4 0.3 -1.1
v 2.4 0.4 -1.1
v -0.6 0.2 -1.4
v -0.6 0.3 -1.4
v -0.2 0.2 -1.4
v -0.2 0.3 -1.4
v -1.7 0.2 -1.6
v -1.7 0.3 -1.6
v -1.6 0.2 -1.6
v -1.6 0.3 -1.6
v 0.6 0.2 -1.6
v 0.6 0.3 -1.6
v 0.8 0.2 -1.6
v 0.8 0.3 -1.6
v -2.2 0.3 -1.7
v -2.2 0.4 -1.7
v -1.7 0.3 -1.7
v -1.7 0.4 -1.7
v 1.9 0.3 -1.7
v 1.9 0.4 -1.7
v 2.4 0.3 -1.7
v 2.4 0.4 -1.7
v -2.2 0.3 -2.3
v -2.2 0.4 -2.3
v -1.7 0.3 -2.3
v -1.7 0.4 -2.3
v -0.0999999 0.2 -2.3
v -0.0999999 0.3 -2.3
v 0.1 0.2 -2.3
v 0.1 0.3 -2.3
v 0.8 0.2 -2.3
v 0.8 0.3 -2.3
v 1.2 0.2 -2.3
v 1.2 0.3 -2.3
v 1.9 0.3 -2.3
v 1.9 0.4 -2.3
v 2.4 0.3 -2.3
v 2.4 0.4 -2.3
v -1.5 0.2 -2.6
v -1.5 0.3 -2.6
v -1 0.2 -2.6
v -1 0.3 -2.6
v -0.8 0.2 -2.7
v -0.8 0.3 -2.7
v -0.6 0.2 -2.7
v -0.6 0.3 -2.7
v -2.2 0.3 -2.9
v -2.2 0.4 -2.9
v -1.7 0.3 -2.9
v -1.7 0.4 -2.9
v 0.2 0.2 -2.9
v 0.2 0.3 -2.9
v 0.4 0.2 -2.9
v 0.4 0.3 -2.9
v 1.9 0.3 -2.9
v 1.9 0.4 -2.9
v 2.4 0.3 -2.9
v 2.4 0.4 -2.9
v 0.8 0.2 -3.5
v 0.8 0.3 -3.5
v 1 0.2 -3.5
v 1 0.3 -3.5
v -0.5 0.2 -3.6
v -0.5 0.3 -3.6
v -0.2 0.2 -3.6
v -0.2 0.3 -3.6
v -2.2 0 -3.7
v -2.2 0.4 -3.7
v -1.7 0 -3.7
v -1.7 0.2 -3.7
v -1.7 0.3 -3.7
v -1.7 0.4 -3.7
v -1.6 0.1 -3.7
v -1.6 0.2 -3.7
v -1.6 0.3 -3.7
v -1.5 0.1 -3.7
v -1.5 0.2 -3.7
v -0.9 0.1 -3.7
v -0.9 0.2 -3.7
v -0.8 0.1 -3.7
v -0.8 0.2 -3.7
v -0.2 0.1 -3.7
v -0.2 0.2 -3.7
v -0.0999999 0.1 -3.7
v -0.0999999 0.2 -3.7
v 0.5 0.1 -3.7
v 0.5 0.2 -3.7
v 0.6 0.1 -3.7
v 0.6 0.2 -3.7
v 1.2 0.1 -3.7
v 1.2 0.2 -3.7
v 1.3 0.1 -3.7
v 1.3 0.2 -3.7
v 1.6 0.1 -3.7
v 1.6 0.2 -3.7
v 1.6 0.3 -3.7
v 1.7 0.1 -3.7
v 1.7 0.2 -3.7
v 1.7 0.3 -3.7
v 1.8 0.1 -3.7
v 1.8 0.2 -3.7
v 1.8 0.3 -3.7
v 1.9 0 -3.7
v 1.9 0.1 -3.7
v 1.9 0.3 -3.7
v 1.9 0.4 -3.7
v 2.4 0 -3.7
v 2.4 0.4 -3.7
v -2.2 0 0.6
v -1.7 0 0.6
v 1.9 0 0.6
v 2.4 0 0.6
v -2.2 0 0.1
v -2.1 0 0.1
v 2.3 0 0.1
v 2.4 0 0.1
v -2.2 0 5.96046e-08
v -2.1 0 5.96046e-08
v 2.3 0 5.96046e-08
v 2.4 0 5.96046e-08
v -2.2 0 -0.5
v -2.1 0 -0.5
v 2.3 0 -0.5
v 2.4 0 -0.5
v -2.2 0 -0.6
v -2.1 0 -0.6
v 2.3 0 -0.6
v 2.4 0 -0.6
v -2.2 0 -1.1
v -2.1 0 -1.1
v 2.3 0 -1.1
v 2.4 0 -1.1
v -2.2 0 -1.2
v -2.1 0 -1.2
v 2.3 0 -1.2
v 2.4 0 -1.2
v -2.2 0 -1.7
v -2.1 0 -1.7
v 2.3 0 -1.7
v 2.4 0 -1.7
v -2.2 0 -1.8
v -2.1 0 -1.8
v 2.3 0 -1.8
v 2.4 0 -1.8
v -2.2 0 -2.3
v -2.1 0 -2.3
v 2.3 0 -2.3
v 2.4 0 -2.3
v -2.2 0 -2.4
v -2.1 0 -2.4
v 2.3 0 -2.4
v 2.4 0 -2.4
v -2.2 0 -2.9
v -2.1 0 -2.9
v 2.3 0 -2.9
v 2.4 0 -2.9
v -2.2 0 -3
v -2.1 0 -3
v 2.3 0 -3
v 2.4 0 -3
v -2.2 0 -3.7
v -1.7 0 -3.7
v 1.9 0 -3.7
v 2.4 0 -3.7
v -1.7 0.2 0.6
v -1.6 0.2 0.6
v -1.5 0.2 0.6
v -0.9 0.2 0.6
v -0.8 0.2 0.6
v -0.2 0.2 0.6
v -0.0999999 0.2 0.6
v 0 0.2 0.6
v 0.2 0.2 0.6
v 0.5 0.2 0.6
v 0.6 0.2 0.6
v 1.2 0.2 0.6
v 1.3 0.2 0.6
v 1.7 0.2 0.6
v 1.8 0.2 0.6
v 1.9 0.2 0.6
v -1.7 0.2 0.5
v -1.6 0.2 0.5
v -1.5 0.2 0.5
v -1.2 0.2 0.5
v 1.1 0.2 0.5
v 1.2 0.2 0.5
v 1.3 0.2 0.5
v 1.7 0.2 0.5
v 0.4 0.2 0.4
v 0.5 0.2 0.4
v 0.6 0.2 0.4
v 1 0.2 0.4
v -0.7 0.2 0.3
v -0.2 0.2 0.3
v 1.1 0.2 0.3
v 1.2 0.2 0.3
v 1.3 0.2 0.3
v 1.7 0.2 0.3
v 0 0.2 0.2
v 0.2 0.2 0.2
v -1.7 0.2 0.1
v 1.4 0.2 0.1
v 1.7 0.2 0.1
v 1.9 0.2 0.1
v -1.7 0.2 5.96046e-08
v -1 0.2 5.96046e-08
v -0.9 0.2 5.96046e-08
v 1.9 0.2 5.96046e-08
v -1 0.2 -0.2
v -0.9 0.2 -0.2
v 0 0.2 -0.2
v 0.2 0.2 -0.2
v -1.7 0.2 -0.3
v -1.6 0.2 -0.3
v -1.5 0.2 -0.3
v -1.2 0.2 -0.3
v -0.7 0.2 -0.3
v -0.2 0.2 -0.3
v -0.6 0.2 -0.4
v -0.2 0.2 -0.4
v 0.4 0.2 -0.4
v 0.5 0.2 -0.4
v 0.6 0.2 -0.4
v 1 0.2 -0.4
v -1.7 0.2 -0.5
v -1.6 0.2 -0.5
v -1.4 0.2 -0.5
v -1.1 0.2 -0.5
v 0.6 0.2 -0.5
v 1 0.2 -0.5
v 1.9 0.2 -0.5
v -1.7 0.2 -0.6
v -1.4 0.2 -0.6
v -1.1 0.2 -0.6
v 0 0.2 -0.6
v 0.2 0.2 -0.6
v 1.4 0.2 -0.6
v 1.7 0.2 -0.6
v 1.9 0.2 -0.6
v -1.1 0.2 -0.7
v -0.9 0.2 -0.7
v -0.6 0.2 -0.7
v -0.2 0.2 -0.7
v 1.1 0.2 -0.7
v 1.2 0.2 -0.7
v 1.3 0.2 -0.7
v 1.4 0.2 -0.7
v -0.0999999 0.2 -0.8
v 0.1 0.2 -0.8
v 0.6 0.2 -0.8
v 1 0.2 -0.8
v 1.8 0.2 -0.8
v 1.9 0.2 -0.8
v -1.7 0.2 -0.9
v -1.6 0.2 -0.9
v 1.1 0.2 -0.9
v 1.2 0.2 -0.9
v 1.3 0.2 -0.9
v 1.4 0.2 -0.9
v -0.0999999 0.2 -1
v 0.1 0.2 -1
v 1 0.2 -1
v 1.2 0.2 -1
v 1.3 0.2 -1
v 1.5 0.2 -1
v -1.7 0.2 -1.1
v -1.1 0.2 -1.1
v -0.9 0.2 -1.1
v -0.6 0.2 -1.1
v -0.2 0.2 -1.1
v -0.0999999 0.2 -1.1
v 0 0.2 -1.1
v 0.3 0.2 -1.1
v 0.5 0.2 -1.1
v 0.6 0.2 -1.1
v 0.8 0.2 -1.1
v 1.9 0.2 -1.1
v -1.7 0.2 -1.2
v -1.6 0.2 -1.2
v -1.5 0.2 -1.2
v -1.4 0.2 -1.2
v 1.8 0.2 -1.2
v 1.9 0.2 -1.2
v -1.1 0.2 -1.4
v -0.9 0.2 -1.4
v -0.8 0.2 -1.4
v -0.7 0.2 -1.4
v -0.6 0.2 -1.4
v -0.2 0.2 -1.4
v -0.0999999 0.2 -1.4
v 0 0.2 -1.4
v -0.5 0.2 -1.5
v -0.3 0.2 -1.5
v 1 0.2 -1.5
v 1.2 0.2 -1.5
v 1.3 0.2 -1.5
v 1.5 0.2 -1.5
v -1.7 0.2 -1.6
v -1.6 0.2 -1.6
v -1.5 0.2 -1.6
v -1.4 0.2 -1.6
v -0.0999999 0.2 -1.6
v 0 0.2 -1.6
v 0.3 0.2 -1.6
v 0.5 0.2 -1.6
v 0.6 0.2 -1.6
v 0.8 0.2 -1.6
v 1.5 0.2 -1.6
v 1.7 0.2 -1.6
v -1.7 0.2 -1.7
v 0.1 0.2 -1.7
v 0.3 0.2 -1.7
v 1.9 0.2 -1.7
v -1.7 0.2 -1.8
v -1.1 0.2 -1.8
v -0.9 0.2 -1.8
v -0.8 0.2 -1.8
v -0.7 0.2 -1.8
v -0.5 0.2 -1.8
v -0.3 0.2 -1.8
v 1.9 0.2 -1.8
v -0.0999999 0.2 -1.9
v 0 0.2 -1.9
v 0.1 0.2 -1.9
v 0.3 0.2 -1.9
v 0.8 0.2 -1.9
v 1.2 0.2 -1.9
v 1.5 0.2 -1.9
v 1.7 0.2 -1.9
v -1.7 0.2 -2
v -1.6 0.2 -2
v -1.5 0.2 -2
v -1 0.2 -2
v -0.4 0.2 -2
v -0.2 0.2 -2
v -0.0999999 0.2 -2
v 0.1 0.2 -2
v 0.4 0.2 -2
v 0.5 0.2 -2
v 0.6 0.2 -2
v 0.7 0.2 -2
v 1.6 0.2 -2.1
v 1.7 0.2 -2.1
v -1.7 0.2 -2.3
v -1.6 0.2 -2.3
v -0.8 0.2 -2.3
v -0.6 0.2 -2.3
v -0.4 0.2 -2.3
v -0.2 0.2 -2.3
v -0.0999999 0.2 -2.3
v 0.1 0.2 -2.3
v 0.4 0.2 -2.3
v 0.5 0.2 -2.3
v 0.6 0.2 -2.3
v 0.7 0.2 -2.3
v 0.8 0.2 -2.3
v 1.2 0.2 -2.3
v 1.9 0.2 -2.3
v -1.7 0.2 -2.4
v 1.3 0.2 -2.4
v 1.5 0.2 -2.4
v 1.9 0.2 -2.4
v 0.7 0.2 -2.5
v 0.9 0.2 -2.5
v 1.6 0.2 -2.5
v 1.7 0.2 -2.5
v -1.7 0.2 -2.6
v -1.6 0.2 -2.6
v -1.5 0.2 -2.6
v -1 0.2 -2.6
v -0.4 0.2 -2.6
v -0.2 0.2 -2.6
v -0.0999999 0.2 -2.6
v 0 0.2 -2.6
v 0.2 0.2 -2.6
v 0.4 0.2 -2.6
v -0.8 0.2 -2.7
v -0.6 0.2 -2.7
v 1.3 0.2 -2.7
v 1.5 0.2 -2.7
v 0.7 0.2 -2.8
v 0.9 0.2 -2.8
v -1.7 0.2 -2.9
v -1.6 0.2 -2.9
v 0.2 0.2 -2.9
v 0.4 0.2 -2.9
v 1.9 0.2 -2.9
v -1.7 0.2 -3
v -1.6 0.2 -3
v -1.5 0.2 -3
v -1.3 0.2 -3
v -0.4 0.2 -3
v -0.2 0.2 -3
v -0.0999999 0.2 -3
v 0 0.2 -3
v 1.1 0.2 -3
v 1.2 0.2 -3
v 1.3 0.2 -3
v 1.4 0.2 -3
v 1.6 0.2 -3
v 1.7 0.2 -3
v 1.8 0.2 -3
v 1.9 0.2 -3
v -1.1 0.2 -3.1
v -0.9 0.2 -3.1
v 0.2 0.2 -3.2
v 0.5 0.2 -3.2
v 0.8 0.2 -3.2
v 1 0.2 -3.2
v -0.5 0.2 -3.3
v -0.2 0.2 -3.3
v -0.0999999 0.2 -3.3
v 0.1 0.2 -3.3
v 0.2 0.2 -3.4
v 0.5 0.2 -3.4
v 1.1 0.2 -3.4
v 1.2 0.2 -3.4
v 1.3 0.2 -3.4
v 1.4 0.2 -3.4
v -1.6 0.2 -3.5
v -1.5 0.2 -3.5
v -1.3 0.2 -3.5
v 0.8 0.2 -3.5
v 1 0.2 -3.5
v -1.1 0.2 -3.6
v -0.9 0.2 -3.6
v -0.5 0.2 -3.6
v -0.2 0.2 -3.6
v -0.0999999 0.2 -3.6
v 0.1 0.2 -3.6
v -1.6 0.2 -3.7
v -1.5 0.2 -3.7
v -0.9 0.2 -3.7
v -0.8 0.2 -3.7
v -0.2 0.2 -3.7
v -0.0999999 0.2 -3.7
v 0.5 0.2 -3.7
v 0.6 0.2 -3.7
v 1.2 0.2 -3.7
v 1.3 0.2 -3.7
v 1.6 0.2 -3.7
v 1.7 0.2 -3.7
v 1.8 0.2 -3.7
v -1.5 0.3 0.5
v -1.2 0.3 0.5
v 0.6 0.3 0.4
v 1 0.3 0.4
v -0.7 0.3 0.3
v -0.2 0.3 0.3
v -2.2 0.3 0.1
v -1.7 0.3 0.1
v 1.4 0.3 0.1
v 1.7 0.3 0.1
v 1.9 0.3 0.1
v 2.4 0.3 0.1
v -2.2 0.3 5.96046e-08
v -1.7 0.3 5.96046e-08
v 1.9 0.3 5.96046e-08
v 2.4 0.3 5.96046e-08
v 0 0.3 -0.2
v 0.2 0.3 -0.2
v -1.5 0.3 -0.3
v -1.2 0.3 -0.3
v -0.7 0.3 -0.3
v -0.2 0.3 -0.3
v 0.6 0.3 -0.4
v 1 0.3 -0.4
v -2.2 0.3 -0.5
v -1.7 0.3 -0.5
v 1.9 0.3 -0.5
v 2.4 0.3 -0.5
v -2.2 0.3 -0.6
v -1.7 0.3 -0.6
v 0 0.3 -0.6
v 0.2 0.3 -0.6
v 1.4 0.3 -0.6
v 1.7 0.3 -0.6
v 1.9 0.3 -0.6
v 2.4 0.3 -0.6
v -0.0999999 0.3 -0.8
v 0.1 0.3 -0.8
v -0.0999999 0.3 -1
v 0.1 0.3 -1
v -2.2 0.3 -1.1
v -1.7 0.3 -1.1
v -0.6 0.3 -1.1
v -0.2 0.3 -1.1
v 0.6 0.3 -1.1
v 0.8 0.3 -1.1
v 1.9 0.3 -1.1
v 2.4 0.3 -1.1
v -2.2 0.3 -1.2
v -1.7 0.3 -1.2
v -1.6 0.3 -1.2
v 1.9 0.3 -1.2
v 2.4 0.3 -1.2
v -0.6 0.3 -1.4
v -0.2 0.3 -1.4
v -1.7 0.3 -1.6
v -1.6 0.3 -1.6
v 0.6 0.3 -1.6
v 0.8 0.3 -1.6
v -2.2 0.3 -1.7
v -1.7 0.3 -1.7
v 1.9 0.3 -1.7
v 2.4 0.3 -1.7
v -2.2 0.3 -1.8
v -1.7 0.3 -1.8
v 1.9 0.3 -1.8
v 2.4 0.3 -1.8
v 0.8 0.3 -1.9
v 1.2 0.3 -1.9
v -1.5 0.3 -2
v -1 0.3 -2
v -0.0999999 0.3 -2
v 0.1 0.3 -2
v -2.2 0.3 -2.3
v -1.7 0.3 -2.3
v -0.8 0.3 -2.3
v -0.6 0.3 -2.3
v -0.0999999 0.3 -2.3
v 0.1 0.3 -2.3
v 0.8 0.3 -2.3
v 1.2 0.3 -2.3
v 1.9 0.3 -2.3
v 2.4 0.3 -2.3
v -2.2 0.3 -2.4
v -1.7 0.3 -2.4
v 1.9 0.3 -2.4
v 2.4 0.3 -2.4
v -1.5 0.3 -2.6
v -1 0.3 -2.6
v 0.2 0.3 -2.6
v 0.4 0.3 -2.6
v -0.8 0.3 -2.7
v -0.6 0.3 -2.7
v -2.2 0.3 -2.9
v -1.7 0.3 -2.9
v 0.2 0.3 -2.9
v 0.4 0.3 -2.9
v 1.9 0.3 -2.9
v 2.4 0.3 -2.9
v -2.2 0.3 -3
v -1.7 0.3 -3
v -1.6 0.3 -3
v 1.6 0.3 -3
v 1.7 0.3 -3
v 1.8 0.3 -3
v 1.9 0.3 -3
v 2.4 0.3 -3
v 0.8 0.3 -3.2
v 1 0.3 -3.2
v -0.5 0.3 -3.3
v -0.2 0.3 -3.3
v -1.7 0.3 -3.5
v -1.6 0.3 -3.5
v 0.8 0.3 -3.5
v 1 0.3 -3.5
v -0.5 0.3 -3.6
v -0.2 0.3 -3.6
v -1.7 0.3 -3.7
v -1.6 0.3 -3.7
v 1.6 0.3 -3.7
v 1.7 0.3 -3.7
v 1.8 0.3 -3.7
v 1.9 0.3 -3.7
v -2.2 0.4 0.6
v -1.7 0.4 0.6
v 1.9 0.4 0.6
v 2.4 0.4 0.6
v -2.2 0.4 0.1
v -1.7 0.4 0.1
v 1.9 0.4 0.1
v 2.4 0.4 0.1
v -2.2 0.4 5.96046e-08
v -1.7 0.4 5.96046e-08
v 1.9 0.4 5.96046e-08
v 2.4 0.4 5.96046e-08
v -2.2 0.4 -0.5
v -1.7 0.4 -0.5
v 1.9 0.4 -0.5
v 2.4 0.4 -0.5
v -2.2 0.4 -0.6
v -1.7 0.4 -0.6
v 1.9 0.4 -0.6
v 2.4 0.4 -0.6
v -2.2 0.4 -1.1
v -1.7 0.4 -1.1
v 1.9 0.4 -1.1
v 2.4 0.4 -1.1
v -2.2 0.4 -1.2
v -1.7 0.4 -1.2
v 1.9 0.4 -1.2
v 2.4 0.4 -1.2
v -2.2 0.4 -1.7
v -1.7 0.4 -1.7
v 1.9 0.4 -1.7
v 2.4 0.4 -1.7
v -2.2 0.4 -1.8
v -1.7 0.4 -1.8
v 1.9 0.4 -1.8
v 2.4 0.4 -1.8
v -2.2 0.4 -2.3
v -1.7 0.4 -2.3
v 1.9 0.4 -2.3
v 2.4 0.4 -2.3
v -2.2 0.4 -2.4
v -1.7 0.4 -2.4
v 1.9 0.4 -2.4
v 2.4 0.4 -2.4
v -2.2 0.4 -2.9
v -1.7 0.4 -2.9
v 1.9 0.4 -2.9
v 2.4 0.4 -2.9
v -2.2 0.4 -3
v -1.7 0.4 -3
v 1.9 0.4 -3
v 2.4 0.4 -3
v -2.2 0.4 -3.7
v -1.7 0.4 -3.7
v 1.9 0.4 -3.7
v 2.4 0.4 -3.7

# faces
f 15/2/1 2/2/1 1/2/1
f 15/6/1 3/6/1 2/6/1
f 16/2/1 4/2/1 3/2/1
f 16/6/1 3/6/1 15/6/1
f 17/6/1 5/6/1 4/6/1
f 17/2/1 4/2/1 16/2/1
f 18/2/1 6/2/1 5/2/1
f 18/6/1 5/6/1 17/6/1
f 19/6/1 7/6/1 6/6/1
f 19/2/1 6/2/1 18/2/1
f 20/2/1 8/2/1 7/2/1
f 20/6/1 7/6/1 19/6/1
f 21/6/1 9/6/1 8/6/1
f 21/2/1 8/2/1 20/2/1
f 22/2/1 10/2/1 9/2/1
f 22/6/1 9/6/1 21/6/1
f 23/6/1 11/6/1 10/6/1
f 23/2/1 10/2/1 22/2/1
f 24/2/1 12/2/1 11/2/1
f 24/6/1 11/6/1 23/6/1
f 25/6/1 13/6/1 12/6/1
f 25/2/1 12/2/1 24/2/1
f 26/2/1 14/2/1 13/2/1
f 26/6/1 13/6/1 25/6/1
f 27/2/1 15/2/1 1/2/1
f 28/2/1 15/2/1 27/2/1
f 29/2/1 17/2/1 16/2/1
f 30/2/1 17/2/1 29/2/1
f 31/2/1 19/2/1 18/2/1
f 32/2/1 19/2/1 31/2/1
f 33/2/1 21/2/1 20/2/1
f 34/2/1 21/2/1 33/2/1
f 35/2/1 23/2/1 22/2/1
f 36/2/1 23/2/1 35/2/1
f 37/2/1 25/2/1 24/2/1
f 38/2/1 25/2/1 37/2/1
f 39/2/1 14/2/1 26/2/1
f 40/2/1 14/2/1 39/2/1
f 45/3/1 42/3/1 41/3/1
f 46/3/1 42/3/1 45/3/1
f 47/3/1 44/3/1 43/3/1
f 48/3/1 44/3/1 47/3/1
f 51/4/1 50/4/1 49/4/1
f 52/4/1 50/4/1 51/4/1
f 55/4/1 54/4/1 53/4/1
f 56/4/1 54/4/1 55/4/1
f 59/2/1 58/2/1 57/2/1
f 60/2/1 58/2/1 59/2/1
f 63/4/1 62/4/1 61/4/1
f 64/4/1 62/4/1 63/4/1
f 69/4/1 66/4/1 65/4/1
f 70/4/1 66/4/1 69/4/1
f 71/2/1 68/2/1 67/2/1
f 72/2/1 68/2/1 71/2/1
f 75/3/1 74/3/1 73/3/1
f 76/3/1 74/3/1 75/3/1
f 79/4/1 78/4/1 77/4/1
f 80/4/1 78/4/1 79/4/1
f 85/4/1 82/4/1 81/4/1
f 86/4/1 82/4/1 85/4/1
f 87/2/1 84/2/1 83/2/1
f 88/2/1 84/2/1 87/2/1
f 93/2/1 90/2/1 89/2/1
f 94/2/1 90/2/1 93/2/1
f 95/4/1 92/4/1 91/4/1
f 96/4/1 92/4/1 95/4/1
f 99/2/1 98/2/1 97/2/1
f 100/2/1 98/2/1 99/2/1
f 103/2/1 102/2/1 101/2/1
f 104/2/1 102/2/1 103/2/1
f 107/2/1 106/2/1 105/2/1
f 108/2/1 106/2/1 107/2/1
f 123/2/1 110/2/1 109/2/1
f 123/6/1 111/6/1 110/6/1
f 124/2/1 112/2/1 111/2/1
f 124/6/1 111/6/1 123/6/1
f 125/6/1 113/6/1 112/6/1
f 125/2/1 112/2/1 124/2/1
f 126/2/1 114/2/1 113/2/1
f 126/6/1 113/6/1 125/6/1
f 126/2/1 115/2/1 114/2/1
f 127/6/1 116/6/1 115/6/1
f 127/2/1 115/2/1 126/2/1
f 128/2/1 117/2/1 116/2/1
f 128/6/1 116/6/1 127/6/1
f 129/6/1 118/6/1 117/6/1
f 129/2/1 117/2/1 128/2/1
f 130/2/1 119/2/1 118/2/1
f 130/6/1 118/6/1 129/6/1
f 131/6/1 120/6/1 119/6/1
f 131/2/1 119/2/1 130/2/1
f 132/2/1 121/2/1 120/2/1
f 132/6/1 120/6/1 131/6/1
f 133/6/1 122/6/1 121/6/1
f 133/2/1 121/2/1 132/2/1
f 134/6/1 122/6/1 133/6/1
f 136/2/1 123/2/1 109/2/1
f 137/2/1 123/2/1 136/2/1
f 138/2/1 125/2/1 124/2/1
f 139/2/1 125/2/1 138/2/1
f 140/2/1 127/2/1 126/2/1
f 141/2/1 127/2/1 140/2/1
f 142/2/1 129/2/1 128/2/1
f 143/2/1 129/2/1 142/2/1
f 144/2/1 131/2/1 130/2/1
f 145/2/1 131/2/1 144/2/1
f 146/2/1 133/2/1 132/2/1
f 147/2/1 133/2/1 146/2/1
f 148/2/1 135/2/1 134/2/1
f 149/2/1 135/2/1 148/2/1
f 150/2/2 151/2/2 169/2/2
f 151/2/2 152/2/2 169/2/2
f 152/6/2 153/6/2 169/6/2
f 153/2/2 154/2/2 170/2/2
f 169/6/2 153/6/2 170/6/2
f 154/2/2 155/2/2 170/2/2
f 155/6/2 156/6/2 171/6/2
f 170/2/2 155/2/2 171/2/2
f 156/2/2 157/2/2 172/2/2
f 171/6/2 156/6/2 172/6/2
f 157/2/2 158/2/2 172/2/2
f 158/6/2 159/6/2 173/6/2
f 172/2/2 158/2/2 173/2/2
f 173/6/2 159/6/2 174/6/2
f 160/2/2 161/2/2 175/2/2
f 161/6/2 162/6/2 176/6/2
f 175/2/2 161/2/2 176/2/2
f 163/2/2 164/2/2 177/2/2
f 176/6/2 162/6/2 177/6/2
f 162/2/2 163/2/2 177/2/2
f 164/6/2 165/6/2 178/6/2
f 177/2/2 164/2/2 178/2/2
f 166/2/2 167/2/2 179/2/2
f 178/6/2 165/6/2 179/6/2
f 165/2/2 166/2/2 179/2/2
f 167/6/2 168/6/2 180/6/2
f 179/2/2 167/2/2 180/2/2
f 180/6/2 168/6/2 181/6/2
f 150/2/2 169/2/2 184/2/2
f 184/2/2 169/2/2 185/2/2
f 170/2/2 171/2/2 186/2/2
f 186/2/2 171/2/2 187/2/2
f 172/2/2 173/2/2 188/2/2
f 188/2/2 173/2/2 189/2/2
f 175/2/2 176/2/2 190/2/2
f 174/2/2 175/2/2 190/2/2
f 190/2/2 176/2/2 191/2/2
f 177/2/2 178/2/2 192/2/2
f 192/2/2 178/2/2 193/2/2
f 179/2/2 180/2/2 194/2/2
f 194/2/2 180/2/2 195/2/2
f 182/2/2 183/2/2 196/2/2
f 181/2/2 182/2/2 196/2/2
f 196/2/2 183/2/2 197/2/2
f 198/2/2 199/2/2 203/2/2
f 203/2/2 199/2/2 204/2/2
f 200/4/2 201/4/2 205/4/2
f 201/2/2 202/2/2 206/2/2
f 205/4/2 201/4/2 206/4/2
f 206/2/2 202/2/2 207/2/2
f 208/3/2 209/3/2 210/3/2
f 210/3/2 209/3/2 211/3/2
f 212/3/2 213/3/2 214/3/2
f 214/3/2 213/3/2 215/3/2
f 216/4/2 217/4/2 218/4/2
f 218/4/2 217/4/2 219/4/2
f 220/4/2 221/4/2 226/4/2
f 226/4/2 221/4/2 227/4/2
f 222/2/2 223/2/2 228/2/2
f 228/2/2 223/2/2 229/2/2
f 224/4/2 225/4/2 230/4/2
f 230/4/2 225/4/2 231/4/2
f 232/4/2 233/4/2 236/4/2
f 236/4/2 233/4/2 237/4/2
f 234/2/2 235/2/2 238/2/2
f 238/2/2 235/2/2 239/2/2
f 240/3/2 241/3/2 242/3/2
f 242/3/2 241/3/2 243/3/2
f 244/4/2 245/4/2 246/4/2
f 246/4/2 245/4/2 247/4/2
f 248/2/2 249/2/2 250/2/2
f 250/2/2 249/2/2 251/2/2
f 252/4/2 253/4/2 256/4/2
f 256/4/2 253/4/2 257/4/2
f 254/4/2 255/4/2 258/4/2
f 258/4/2 255/4/2 259/4/2
f 260/2/2 261/2/2 262/2/2
f 262/2/2 261/2/2 263/2/2
f 264/2/2 265/2/2 268/2/2
f 268/2/2 265/2/2 269/2/2
f 266/2/2 267/2/2 270/2/2
f 270/2/2 267/2/2 271/2/2
f 272/2/2 273/2/2 286/2/2
f 273/6/2 274/6/2 286/6/2
f 274/2/2 275/2/2 287/2/2
f 286/6/2 274/6/2 287/6/2
f 275/6/2 276/6/2 288/6/2
f 287/2/2 275/2/2 288/2/2
f 276/2/2 277/2/2 289/2/2
f 288/6/2 276/6/2 289/6/2
f 277/6/2 278/6/2 290/6/2
f 289/2/2 277/2/2 290/2/2
f 278/2/2 279/2/2 291/2/2
f 290/6/2 278/6/2 291/6/2
f 279/6/2 280/6/2 292/6/2
f 291/2/2 279/2/2 292/2/2
f 280/2/2 281/2/2 293/2/2
f 292/6/2 280/6/2 293/6/2
f 281/6/2 282/6/2 294/6/2
f 293/2/2 281/2/2 294/2/2
f 282/2/2 283/2/2 295/2/2
f 294/6/2 282/6/2 295/6/2
f 283/6/2 284/6/2 296/6/2
f 295/2/2 283/2/2 296/2/2
f 284/2/2 285/2/2 297/2/2
f 296/6/2 284/6/2 297/6/2
f 272/2/2 286/2/2 298/2/2
f 298/2/2 286/2/2 299/2/2
f 287/2/2 288/2/2 300/2/2
f 300/2/2 288/2/2 301/2/2
f 289/2/2 290/2/2 302/2/2
f 302/2/2 290/2/2 303/2/2
f 291/2/2 292/2/2 304/2/2
f 304/2/2 292/2/2 305/2/2
f 293/2/2 294/2/2 306/2/2
f 306/2/2 294/2/2 307/2/2
f 295/2/2 296/2/2 308/2/2
f 308/2/2 296/2/2 309/2/2
f 297/2/2 285/2/2 310/2/2
f 310/2/2 285/2/2 311/2/2
f 314/2/3 313/2/3 312/2/3
f 315/2/3 313/2/3 314/2/3
f 316/2/3 313/2/3 315/2/3
f 317/1/3 315/1/3 314/1/3
f 318/1/3 315/1/3 317/1/3
f 319/1/3 317/1/3 314/1/3
f 319/5/3 318/5/3 317/5/3
f 320/5/3 318/5/3 319/5/3
f 321/1/3 319/1/3 314/1/3
f 321/1/3 320/1/3 319/1/3
f 322/1/3 320/1/3 321/1/3
f 323/1/3 321/1/3 314/1/3
f 323/5/3 322/5/3 321/5/3
f 324/5/3 322/5/3 323/5/3
f 325/1/3 323/1/3 314/1/3
f 325/1/3 324/1/3 323/1/3
f 326/1/3 324/1/3 325/1/3
f 327/1/3 325/1/3 314/1/3
f 327/5/3 326/5/3 325/5/3
f 328/5/3 326/5/3 327/5/3
f 329/1/3 327/1/3 314/1/3
f 329/1/3 328/1/3 327/1/3
f 330/1/3 328/1/3 329/1/3
f 331/1/3 329/1/3 314/1/3
f 331/3/3 330/3/3 329/3/3
f 332/3/3 330/3/3 331/3/3
f 333/1/3 331/1/3 314/1/3
f 333/1/3 332/1/3 331/1/3
f 334/1/3 332/1/3 333/1/3
f 335/1/3 333/1/3 314/1/3
f 335/5/3 334/5/3 333/5/3
f 336/5/3 334/5/3 335/5/3
f 337/1/3 335/1/3 314/1/3
f 337/1/3 336/1/3 335/1/3
f 338/1/3 336/1/3 337/1/3
f 339/1/3 337/1/3 314/1/3
f 339/5/3 338/5/3 337/5/3
f 340/5/3 338/5/3 339/5/3
f 341/1/3 339/1/3 314/1/3
f 341/1/3 340/1/3 339/1/3
f 342/1/3 340/1/3 341/1/3
f 343/1/3 341/1/3 314/1/3
f 343/5/3 342/5/3 341/5/3
f 344/5/3 342/5/3 343/5/3
f 345/1/3 343/1/3 314/1/3
f 345/1/3 344/1/3 343/1/3
f 346/1/3 344/1/3 345/1/3
f 348/2/3 346/2/3 345/2/3
f 348/2/3 347/2/3 346/2/3
f 349/2/3 347/2/3 348/2/3
f 352/3/3 351/3/3 350/3/3
f 353/3/3 351/3/3 352/3/3
f 356/4/3 355/4/3 354/4/3
f 357/4/3 355/4/3 356/4/3
f 360/4/3 359/4/3 358/4/3
f 361/4/3 359/4/3 360/4/3
f 364/2/3 363/2/3 362/2/3
f 365/2/3 363/2/3 364/2/3
f 368/2/3 367/2/3 366/2/3
f 369/2/3 367/2/3 368/2/3
f 372/2/3 371/2/3 370/2/3
f 373/2/3 371/2/3 372/2/3
f 376/3/3 375/3/3 374/3/3
f 377/3/3 375/3/3 376/3/3
f 380/2/3 379/2/3 378/2/3
f 381/2/3 379/2/3 380/2/3
f 384/2/3 383/2/3 382/2/3
f 385/2/3 383/2/3 384/2/3
f 388/4/3 387/4/3 386/4/3
f 389/4/3 387/4/3 388/4/3
f 392/2/3 391/2/3 390/2/3
f 393/2/3 391/2/3 392/2/3
f 396/2/3 395/2/3 394/2/3
f 397/2/3 395/2/3 396/2/3
f 401/2/3 399/2/3 398/2/3
f 402/2/3 399/2/3 401/2/3
f 403/2/3 401/2/3 400/2/3
f 404/2/3 401/2/3 403/2/3
f 407/2/3 406/2/3 405/2/3
f 408/2/3 406/2/3 407/2/3
f 411/2/3 410/2/3 409/2/3
f 412/2/3 410/2/3 411/2/3
f 415/2/3 414/2/3 413/2/3
f 416/2/3 414/2/3 415/2/3
f 419/2/3 418/2/3 417/2/3
f 420/2/3 418/2/3 419/2/3
f 423/3/3 422/3/3 421/3/3
f 424/3/3 422/3/3 423/3/3
f 427/2/3 426/2/3 425/2/3
f 428/2/3 426/2/3 427/2/3
f 431/4/3 430/4/3 429/4/3
f 432/4/3 430/4/3 431/4/3
f 435/2/3 434/2/3 433/2/3
f 436/2/3 434/2/3 435/2/3
f 439/2/3 438/2/3 437/2/3
f 440/2/3 438/2/3 439/2/3
f 443/4/3 442/4/3 441/4/3
f 444/4/3 442/4/3 443/4/3
f 448/2/3 446/2/3 445/2/3
f 449/2/3 446/2/3 448/2/3
f 450/4/3 448/4/3 447/4/3
f 451/4/3 448/4/3 450/4/3
f 454/2/3 453/2/3 452/2/3
f 455/2/3 453/2/3 454/2/3
f 458/2/3 457/2/3 456/2/3
f 459/2/3 457/2/3 458/2/3
f 461/2/3 460/2/3 459/2/3
f 462/2/3 460/2/3 461/2/3
f 465/4/3 464/4/3 463/4/3
f 466/4/3 464/4/3 465/4/3
f 469/4/3 468/4/3 467/4/3
f 470/4/3 468/4/3 469/4/3
f 471/2/4 472/2/4 473/2/4
f 473/2/4 472/2/4 474/2/4
f 475/2/4 476/2/4 477/2/4
f 477/2/4 476/2/4 478/2/4
f 479/3/4 480/3/4 481/3/4
f 481/3/4 480/3/4 482/3/4
f 483/4/4 484/4/4 485/4/4
f 485/4/4 484/4/4 486/4/4
f 487/4/4 488/4/4 489/4/4
f 489/4/4 488/4/4 490/4/4
f 491/2/4 492/2/4 493/2/4
f 493/2/4 492/2/4 494/2/4
f 495/2/4 496/2/4 497/2/4
f 497/2/4 496/2/4 498/2/4
f 499/3/4 500/3/4 501/3/4
f 501/3/4 500/3/4 502/3/4
f 503/2/4 504/2/4 505/2/4
f 505/2/4 504/2/4 506/2/4
f 507/4/4 508/4/4 509/4/4
f 509/4/4 508/4/4 510/4/4
f 511/2/4 512/2/4 513/2/4
f 513/2/4 512/2/4 514/2/4
f 515/2/4 516/2/4 517/2/4
f 517/2/4 516/2/4 518/2/4
f 519/2/4 520/2/4 521/2/4
f 521/2/4 520/2/4 522/2/4
f 523/2/4 524/2/4 525/2/4
f 525/2/4 524/2/4 526/2/4
f 527/2/4 528/2/4 529/2/4
f 529/2/4 528/2/4 530/2/4
f 531/2/4 532/2/4 533/2/4
f 533/2/4 532/2/4 534/2/4
f 535/2/4 536/2/4 537/2/4
f 537/2/4 536/2/4 538/2/4
f 539/2/4 540/2/4 541/2/4
f 541/2/4 540/2/4 542/2/4
f 543/2/4 544/2/4 545/2/4
f 545/2/4 544/2/4 546/2/4
f 547/2/4 548/2/4 549/2/4
f 549/2/4 548/2/4 550/2/4
f 551/2/4 552/2/4 553/2/4
f 553/2/4 552/2/4 554/2/4
f 555/3/4 556/3/4 557/3/4
f 557/3/4 556/3/4 558/3/4
f 559/4/4 560/4/4 561/4/4
f 561/4/4 560/4/4 562/4/4
f 563/2/4 564/2/4 565/2/4
f 565/2/4 564/2/4 566/2/4
f 567/4/4 568/4/4 569/4/4
f 569/4/4 568/4/4 570/4/4
f 571/2/4 572/2/4 573/2/4
f 573/2/4 572/2/4 574/2/4
f 575/4/4 576/4/4 577/4/4
f 577/4/4 576/4/4 578/4/4
f 579/4/4 580/4/4 581/4/4
f 581/4/4 580/4/4 582/4/4
f 583/2/4 584/2/4 585/2/4
f 585/2/4 584/2/4 586/2/4
f 586/2/4 584/2/4 587/2/4
f 587/2/4 584/2/4 588/2/4
f 585/1/4 586/1/4 589/1/4
f 586/2/4 587/2/4 590/2/4
f 589/1/4 586/1/4 590/1/4
f 590/2/4 587/2/4 591/2/4
f 585/1/4 589/1/4 592/1/4
f 589/5/4 590/5/4 592/5/4
f 592/5/4 590/5/4 593/5/4
f 585/1/4 592/1/4 594/1/4
f 592/1/4 593/1/4 594/1/4
f 594/1/4 593/1/4 595/1/4
f 585/1/4 594/1/4 596/1/4
f 594/5/4 595/5/4 596/5/4
f 596/5/4 595/5/4 597/5/4
f 585/1/4 596/1/4 598/1/4
f 596/1/4 597/1/4 598/1/4
f 598/1/4 597/1/4 599/1/4
f 585/1/4 598/1/4 600/1/4
f 598/5/4 599/5/4 600/5/4
f 600/5/4 599/5/4 601/5/4
f 585/1/4 600/1/4 602/1/4
f 600/1/4 601/1/4 602/1/4
f 602/1/4 601/1/4 603/1/4
f 585/1/4 602/1/4 604/1/4
f 602/5/4 603/5/4 604/5/4
f 604/5/4 603/5/4 605/5/4
f 585/1/4 604/1/4 606/1/4
f 604/1/4 605/1/4 606/1/4
f 606/1/4 605/1/4 607/1/4
f 585/1/4 606/1/4 608/1/4
f 606/5/4 607/5/4 608/5/4
f 608/5/4 607/5/4 609/5/4
f 585/1/4 608/1/4 610/1/4
f 608/1/4 609/1/4 610/1/4
f 610/1/4 609/1/4 611/1/4
f 610/2/4 611/2/4 613/2/4
f 611/2/4 612/2/4 613/2/4
f 585/1/4 610/1/4 613/1/4
f 613/2/4 612/2/4 614/2/4
f 614/2/4 612/2/4 615/2/4
f 585/1/4 613/1/4 616/1/4
f 613/5/4 614/5/4 616/5/4
f 616/5/4 614/5/4 617/5/4
f 585/1/4 616/1/4 619/1/4
f 617/2/4 618/2/4 620/2/4
f 619/1/4 616/1/4 620/1/4
f 616/2/4 617/2/4 620/2/4
f 620/2/4 618/2/4 621/2/4
f 620/2/4 621/2/4 623/2/4
f 621/2/4 622/2/4 623/2/4
f 619/2/4 620/2/4 623/2/4
f 623/2/4 622/2/4 624/2/4
f 629/2/5 626/2/5 625/2/5
f 630/2/5 626/2/5 629/2/5
f 631/2/5 628/2/5 627/2/5
f 632/2/5 628/2/5 631/2/5
f 633/6/5 630/6/5 629/6/5
f 634/2/5 626/2/5 630/2/5
f 634/6/5 630/6/5 633/6/5
f 635/2/5 631/2/5 627/2/5
f 635/6/5 632/6/5 631/6/5
f 636/6/5 632/6/5 635/6/5
f 637/2/5 634/2/5 633/2/5
f 638/2/5 626/2/5 634/2/5
f 638/2/5 634/2/5 637/2/5
f 639/2/5 635/2/5 627/2/5
f 639/2/5 636/2/5 635/2/5
f 640/2/5 636/2/5 639/2/5
f 641/6/5 638/6/5 637/6/5
f 642/2/5 626/2/5 638/2/5
f 642/6/5 638/6/5 641/6/5
f 643/2/5 639/2/5 627/2/5
f 643/6/5 640/6/5 639/6/5
f 644/6/5 640/6/5 643/6/5
f 645/2/5 642/2/5 641/2/5
f 646/2/5 626/2/5 642/2/5
f 646/2/5 642/2/5 645/2/5
f 647/2/5 643/2/5 627/2/5
f 647/2/5 644/2/5 643/2/5
f 648/2/5 644/2/5 647/2/5
f 649/6/5 646/6/5 645/6/5
f 650/2/5 626/2/5 646/2/5
f 650/6/5 646/6/5 649/6/5
f 651/2/5 647/2/5 627/2/5
f 651/6/5 648/6/5 647/6/5
f 652/6/5 648/6/5 651/6/5
f 653/2/5 650/2/5 649/2/5
f 654/2/5 626/2/5 650/2/5
f 654/2/5 650/2/5 653/2/5
f 655/2/5 651/2/5 627/2/5
f 655/2/5 652/2/5 651/2/5
f 656/2/5 652/2/5 655/2/5
f 657/6/5 654/6/5 653/6/5
f 658/2/5 626/2/5 654/2/5
f 658/6/5 654/6/5 657/6/5
f 659/2/5 655/2/5 627/2/5
f 659/6/5 656/6/5 655/6/5
f 660/6/5 656/6/5 659/6/5
f 661/2/5 658/2/5 657/2/5
f 662/2/5 626/2/5 658/2/5
f 662/2/5 658/2/5 661/2/5
f 663/2/5 659/2/5 627/2/5
f 663/2/5 660/2/5 659/2/5
f 664/2/5 660/2/5 663/2/5
f 665/6/5 662/6/5 661/6/5
f 666/2/5 626/2/5 662/2/5
f 666/6/5 662/6/5 665/6/5
f 667/2/5 663/2/5 627/2/5
f 667/6/5 664/6/5 663/6/5
f 668/6/5 664/6/5 667/6/5
f 669/2/5 666/2/5 665/2/5
f 670/2/5 626/2/5 666/2/5
f 670/2/5 666/2/5 669/2/5
f 671/2/5 667/2/5 627/2/5
f 671/2/5 668/2/5 667/2/5
f 672/2/5 668/2/5 671/2/5
f 673/6/5 670/6/5 669/6/5
f 674/2/5 626/2/5 670/2/5
f 674/6/5 670/6/5 673/6/5
f 675/2/5 671/2/5 627/2/5
f 675/6/5 672/6/5 671/6/5
f 676/6/5 672/6/5 675/6/5
f 677/2/5 674/2/5 673/2/5
f 678/1/5 627/1/5 626/1/5
f 678/2/5 674/2/5 677/2/5
f 678/2/5 626/2/5 674/2/5
f 679/2/5 676/2/5 675/2/5
f 679/1/5 627/1/5 678/1/5
f 679/2/5 675/2/5 627/2/5
f 680/2/5 676/2/5 679/2/5
f 681/1/6 682/1/6 697/1/6
f 682/5/6 683/5/6 698/5/6
f 697/1/6 682/1/6 698/1/6
f 683/1/6 684/1/6 699/1/6
f 698/5/6 683/5/6 699/5/6
f 699/1/6 684/1/6 700/1/6
f 691/1/6 692/1/6 701/1/6
f 692/5/6 693/5/6 702/5/6
f 701/1/6 692/1/6 702/1/6
f 693/1/6 694/1/6 703/1/6
f 702/5/6 693/5/6 703/5/6
f 694/5/6 695/5/6 704/5/6
f 703/1/6 694/1/6 704/1/6
f 689/1/6 690/1/6 705/1/6
f 690/5/6 691/5/6 706/5/6
f 705/1/6 690/1/6 706/1/6
f 691/1/6 701/1/6 707/1/6
f 706/5/6 691/5/6 707/5/6
f 707/1/6 701/1/6 708/1/6
f 685/1/6 686/1/6 709/1/6
f 686/5/6 687/5/6 710/5/6
f 709/1/6 686/1/6 710/1/6
f 708/1/6 701/1/6 711/1/6
f 701/3/6 702/3/6 711/3/6
f 702/5/6 703/5/6 712/5/6
f 711/3/6 702/3/6 712/3/6
f 703/3/6 704/3/6 713/3/6
f 712/5/6 703/5/6 713/5/6
f 704/5/6 695/5/6 714/5/6
f 713/3/6 704/3/6 714/3/6
f 687/1/6 688/1/6 715/1/6
f 688/3/6 689/3/6 715/3/6
f 689/1/6 705/1/6 716/1/6
f 715/3/6 689/3/6 716/3/6
f 697/3/6 698/3/6 717/3/6
f 713/1/6 714/1/6 718/1/6
f 714/5/6 695/5/6 719/5/6
f 718/1/6 714/1/6 719/1/6
f 695/1/6 696/1/6 720/1/6
f 717/3/6 698/3/6 721/3/6
f 700/1/6 684/1/6 722/1/6
f 684/5/6 685/5/6 723/5/6
f 722/1/6 684/1/6 723/1/6
f 695/1/6 720/1/6 724/1/6
f 700/1/6 722/1/6 725/1/6
f 722/3/6 723/3/6 725/3/6
f 723/5/6 685/5/6 726/5/6
f 725/3/6 723/3/6 726/3/6
f 687/1/6 715/1/6 727/1/6
f 715/1/6 716/1/6 727/1/6
f 716/1/6 705/1/6 728/1/6
f 727/1/6 716/1/6 728/1/6
f 721/3/6 698/3/6 729/3/6
f 698/5/6 699/5/6 730/5/6
f 729/3/6 698/3/6 730/3/6
f 730/5/6 699/5/6 731/5/6
f 725/1/6 726/1/6 732/1/6
f 700/1/6 725/1/6 732/1/6
f 685/1/6 709/1/6 733/1/6
f 710/5/6 687/5/6 734/5/6
f 733/1/6 734/1/6 735/1/6
f 734/5/6 687/5/6 736/5/6
f 735/1/6 734/1/6 736/1/6
f 728/1/6 705/1/6 737/1/6
f 705/4/6 706/4/6 737/4/6
f 706/5/6 707/5/6 738/5/6
f 737/4/6 706/4/6 738/4/6
f 738/5/6 707/5/6 739/5/6
f 708/1/6 711/1/6 740/1/6
f 711/1/6 712/1/6 740/1/6
f 729/1/6 730/1/6 741/1/6
f 730/5/6 731/5/6 742/5/6
f 741/1/6 730/1/6 742/1/6
f 731/1/6 732/1/6 743/1/6
f 732/1/6 726/1/6 744/1/6
f 743/1/6 732/1/6 744/1/6
f 738/5/6 739/5/6 745/5/6
f 739/1/6 740/1/6 745/1/6
f 740/1/6 712/1/6 746/1/6
f 745/1/6 740/1/6 746/1/6
f 695/1/6 724/1/6 747/1/6
f 741/3/6 742/3/6 748/3/6
f 743/4/6 744/4/6 749/4/6
f 731/1/6 743/1/6 749/1/6
f 744/1/6 726/1/6 750/1/6
f 749/4/6 744/4/6 750/4/6
f 687/1/6 727/1/6 751/1/6
f 728/1/6 737/1/6 752/1/6
f 737/1/6 738/1/6 752/1/6
f 713/1/6 718/1/6 753/1/6
f 719/5/6 695/5/6 754/5/6
f 695/1/6 747/1/6 755/1/6
f 750/1/6 726/1/6 756/1/6
f 749/1/6 750/1/6 756/1/6
f 726/5/6 685/5/6 757/5/6
f 756/1/6 726/1/6 757/1/6
f 735/2/6 736/2/6 758/2/6
f 733/1/6 735/1/6 758/1/6
f 736/5/6 687/5/6 759/5/6
f 758/2/6 736/2/6 759/2/6
f 746/1/6 712/1/6 760/1/6
f 712/5/6 713/5/6 761/5/6
f 760/1/6 712/1/6 761/1/6
f 713/1/6 753/1/6 762/1/6
f 761/5/6 713/5/6 762/5/6
f 753/1/6 754/1/6 762/1/6
f 762/1/6 754/1/6 763/1/6
f 751/1/6 752/1/6 764/1/6
f 687/1/6 751/1/6 764/1/6
f 759/5/6 687/5/6 764/5/6
f 764/1/6 752/1/6 765/1/6
f 738/5/6 745/5/6 766/5/6
f 745/3/6 746/3/6 766/3/6
f 746/1/6 760/1/6 767/1/6
f 766/3/6 746/3/6 767/3/6
f 695/1/6 755/1/6 768/1/6
f 754/5/6 695/5/6 768/5/6
f 768/1/6 755/1/6 769/1/6
f 748/3/6 742/3/6 770/3/6
f 742/5/6 731/5/6 771/5/6
f 770/3/6 742/3/6 771/3/6
f 760/2/6 761/2/6 772/2/6
f 767/1/6 760/1/6 772/1/6
f 766/1/6 767/1/6 772/1/6
f 761/5/6 762/5/6 773/5/6
f 772/2/6 761/2/6 773/2/6
f 762/2/6 763/2/6 774/2/6
f 773/5/6 762/5/6 774/5/6
f 763/1/6 754/1/6 775/1/6
f 774/2/6 763/2/6 775/2/6
f 759/5/6 764/5/6 776/5/6
f 765/1/6 752/1/6 777/1/6
f 772/1/6 773/1/6 778/1/6
f 766/1/6 772/1/6 778/1/6
f 773/5/6 774/5/6 779/5/6
f 778/1/6 773/1/6 779/1/6
f 774/1/6 775/1/6 780/1/6
f 779/5/6 774/5/6 780/5/6
f 775/1/6 754/1/6 781/1/6
f 780/1/6 775/1/6 781/1/6
f 770/1/6 771/1/6 782/1/6
f 749/1/6 756/1/6 783/1/6
f 756/3/6 757/3/6 783/3/6
f 757/5/6 685/5/6 784/5/6
f 783/3/6 757/3/6 784/3/6
f 733/1/6 758/1/6 785/1/6
f 758/1/6 759/1/6 785/1/6
f 759/5/6 776/5/6 786/5/6
f 785/1/6 759/1/6 786/1/6
f 776/1/6 777/1/6 787/1/6
f 786/5/6 776/5/6 787/5/6
f 787/1/6 777/1/6 788/1/6
f 777/1/6 752/1/6 789/1/6
f 788/1/6 777/1/6 789/1/6
f 752/1/6 738/1/6 789/1/6
f 738/5/6 766/5/6 790/5/6
f 789/1/6 738/1/6 790/1/6
f 766/1/6 778/1/6 791/1/6
f 790/5/6 766/5/6 791/5/6
f 791/1/6 778/1/6 792/1/6
f 768/3/6 769/3/6 793/3/6
f 782/1/6 771/1/6 794/1/6
f 771/5/6 731/5/6 795/5/6
f 794/1/6 771/1/6 795/1/6
f 749/1/6 783/1/6 796/1/6
f 795/5/6 731/5/6 796/5/6
f 731/1/6 749/1/6 796/1/6
f 783/1/6 784/1/6 796/1/6
f 796/1/6 784/1/6 797/1/6
f 768/3/6 793/3/6 798/3/6
f 754/5/6 768/5/6 798/5/6
f 798/3/6 793/3/6 799/3/6
f 797/1/6 784/1/6 800/1/6
f 784/5/6 685/5/6 801/5/6
f 800/1/6 784/1/6 801/1/6
f 685/1/6 733/1/6 802/1/6
f 801/5/6 685/5/6 802/5/6
f 733/1/6 785/1/6 802/1/6
f 802/1/6 785/1/6 803/1/6
f 803/1/6 785/1/6 804/1/6
f 786/5/6 787/5/6 805/5/6
f 787/2/6 788/2/6 806/2/6
f 805/5/6 787/5/6 806/5/6
f 788/1/6 789/1/6 807/1/6
f 806/2/6 788/2/6 807/2/6
f 804/1/6 805/1/6 808/1/6
f 803/1/6 804/1/6 808/1/6
f 808/1/6 805/1/6 809/1/6
f 792/1/6 778/1/6 810/1/6
f 778/4/6 779/4/6 810/4/6
f 779/5/6 780/5/6 811/5/6
f 810/4/6 779/4/6 811/4/6
f 780/4/6 781/4/6 812/4/6
f 811/5/6 780/5/6 812/5/6
f 781/1/6 754/1/6 813/1/6
f 812/4/6 781/4/6 813/4/6
f 795/5/6 796/5/6 815/5/6
f 796/2/6 797/2/6 816/2/6
f 815/5/6 796/5/6 816/5/6
f 797/1/6 800/1/6 817/1/6
f 816/2/6 797/2/6 817/2/6
f 805/5/6 806/5/6 818/5/6
f 806/1/6 807/1/6 818/1/6
f 807/1/6 789/1/6 819/1/6
f 818/1/6 807/1/6 819/1/6
f 789/2/6 790/2/6 820/2/6
f 819/1/6 789/1/6 820/1/6
f 790/5/6 791/5/6 821/5/6
f 820/2/6 790/2/6 821/2/6
f 821/5/6 791/5/6 822/5/6
f 810/1/6 811/1/6 823/1/6
f 792/1/6 810/1/6 823/1/6
f 813/1/6 754/1/6 824/1/6
f 812/1/6 813/1/6 824/1/6
f 754/5/6 798/5/6 825/5/6
f 824/1/6 754/1/6 825/1/6
f 814/1/6 815/1/6 826/1/6
f 819/1/6 820/1/6 827/1/6
f 820/1/6 821/1/6 827/1/6
f 827/1/6 821/1/6 828/1/6
f 798/1/6 799/1/6 829/1/6
f 826/1/6 815/1/6 830/1/6
f 800/4/6 801/4/6 831/4/6
f 817/1/6 800/1/6 831/1/6
f 816/1/6 817/1/6 831/1/6
f 801/5/6 802/5/6 832/5/6
f 831/4/6 801/4/6 832/4/6
f 802/4/6 803/4/6 833/4/6
f 832/5/6 802/5/6 833/5/6
f 803/1/6 808/1/6 834/1/6
f 833/4/6 803/4/6 834/4/6
f 808/2/6 809/2/6 835/2/6
f 834/1/6 808/1/6 835/1/6
f 809/1/6 805/1/6 836/1/6
f 835/2/6 809/2/6 836/2/6
f 798/1/6 829/1/6 837/1/6
f 818/3/6 819/3/6 838/3/6
f 805/5/6 818/5/6 838/5/6
f 819/1/6 827/1/6 839/1/6
f 838/3/6 819/3/6 839/3/6
f 827/4/6 828/4/6 840/4/6
f 839/1/6 827/1/6 840/1/6
f 828/1/6 821/1/6 841/1/6
f 840/4/6 828/4/6 841/4/6
f 822/1/6 823/1/6 842/1/6
f 823/1/6 811/1/6 842/1/6
f 811/5/6 812/5/6 843/5/6
f 842/1/6 811/1/6 843/1/6
f 812/1/6 824/1/6 844/1/6
f 824/3/6 825/3/6 844/3/6
f 825/5/6 798/5/6 845/5/6
f 844/3/6 825/3/6 845/3/6
f 830/1/6 815/1/6 846/1/6
f 815/5/6 816/5/6 847/5/6
f 846/1/6 815/1/6 847/1/6
f 816/1/6 831/1/6 848/1/6
f 847/5/6 816/5/6 848/5/6
f 831/1/6 832/1/6 848/1/6
f 848/1/6 832/1/6 849/1/6
f 834/1/6 835/1/6 850/1/6
f 833/1/6 834/1/6 850/1/6
f 835/1/6 836/1/6 850/1/6
f 836/1/6 805/1/6 851/1/6
f 850/1/6 836/1/6 851/1/6
f 805/5/6 838/5/6 851/5/6
f 839/1/6 840/1/6 852/1/6
f 851/5/6 838/5/6 852/5/6
f 840/1/6 841/1/6 852/1/6
f 838/1/6 839/1/6 852/1/6
f 852/1/6 841/1/6 853/1/6
f 841/1/6 821/1/6 854/1/6
f 853/1/6 841/1/6 854/1/6
f 821/5/6 822/5/6 855/5/6
f 854/1/6 821/1/6 855/1/6
f 822/1/6 842/1/6 856/1/6
f 855/5/6 822/5/6 856/5/6
f 856/1/6 842/1/6 857/1/6
f 844/1/6 845/1/6 858/1/6
f 845/5/6 798/5/6 859/5/6
f 858/1/6 845/1/6 859/1/6
f 846/4/6 847/4/6 860/4/6
f 847/5/6 848/5/6 861/5/6
f 860/4/6 847/4/6 861/4/6
f 833/1/6 850/1/6 862/1/6
f 832/5/6 833/5/6 862/5/6
f 862/1/6 850/1/6 863/1/6
f 850/2/6 851/2/6 864/2/6
f 863/1/6 850/1/6 864/1/6
f 851/5/6 852/5/6 865/5/6
f 864/2/6 851/2/6 865/2/6
f 865/5/6 852/5/6 866/5/6
f 853/1/6 854/1/6 867/1/6
f 854/3/6 855/3/6 868/3/6
f 867/1/6 854/1/6 868/1/6
f 855/5/6 856/5/6 869/5/6
f 868/3/6 855/3/6 869/3/6
f 856/3/6 857/3/6 870/3/6
f 869/5/6 856/5/6 870/5/6
f 857/1/6 842/1/6 871/1/6
f 870/3/6 857/3/6 871/3/6
f 871/1/6 842/1/6 872/1/6
f 843/5/6 812/5/6 873/5/6
f 798/1/6 837/1/6 874/1/6
f 860/1/6 861/1/6 875/1/6
f 844/1/6 858/1/6 876/1/6
f 812/1/6 844/1/6 876/1/6
f 873/5/6 812/5/6 876/5/6
f 876/1/6 858/1/6 877/1/6
f 798/1/6 874/1/6 878/1/6
f 872/1/6 873/1/6 879/1/6
f 871/1/6 872/1/6 879/1/6
f 870/1/6 871/1/6 879/1/6
f 879/1/6 873/1/6 880/1/6
f 877/1/6 858/1/6 881/1/6
f 858/3/6 859/3/6 881/3/6
f 859/5/6 798/5/6 882/5/6
f 881/3/6 859/3/6 882/3/6
f 875/1/6 861/1/6 883/1/6
f 861/5/6 848/5/6 884/5/6
f 883/1/6 861/1/6 884/1/6
f 884/5/6 848/5/6 885/5/6
f 849/1/6 832/1/6 886/1/6
f 863/1/6 864/1/6 887/1/6
f 864/1/6 865/1/6 887/1/6
f 865/5/6 866/5/6 888/5/6
f 887/1/6 865/1/6 888/1/6
f 866/1/6 867/1/6 889/1/6
f 888/5/6 866/5/6 889/5/6
f 868/1/6 869/1/6 889/1/6
f 867/1/6 868/1/6 889/1/6
f 889/1/6 869/1/6 890/1/6
f 890/1/6 869/1/6 891/1/6
f 891/1/6 869/1/6 892/1/6
f 832/5/6 862/5/6 893/5/6
f 863/1/6 887/1/6 894/1/6
f 876/4/6 877/4/6 895/4/6
f 873/5/6 876/5/6 895/5/6
f 877/1/6 881/1/6 896/1/6
f 895/4/6 877/4/6 896/4/6
f 881/1/6 882/1/6 896/1/6
f 879/3/6 880/3/6 897/3/6
f 870/1/6 879/1/6 897/1/6
f 880/1/6 873/1/6 898/1/6
f 897/3/6 880/3/6 898/3/6
f 883/2/6 884/2/6 899/2/6
f 884/5/6 885/5/6 900/5/6
f 899/2/6 884/2/6 900/2/6
f 890/1/6 891/1/6 901/1/6
f 892/1/6 869/1/6 902/1/6
f 798/1/6 878/1/6 903/1/6
f 899/1/6 900/1/6 904/1/6
f 900/5/6 885/5/6 905/5/6
f 904/1/6 900/1/6 905/1/6
f 885/1/6 886/1/6 906/1/6
f 905/5/6 885/5/6 906/5/6
f 906/1/6 886/1/6 907/1/6
f 887/3/6 888/3/6 908/3/6
f 893/1/6 894/1/6 908/1/6
f 894/1/6 887/1/6 908/1/6
f 888/5/6 889/5/6 909/5/6
f 908/3/6 888/3/6 909/3/6
f 889/3/6 890/3/6 910/3/6
f 909/5/6 889/5/6 910/5/6
f 901/1/6 902/1/6 911/1/6
f 910/3/6 890/3/6 911/3/6
f 890/1/6 901/1/6 911/1/6
f 898/1/6 873/1/6 912/1/6
f 897/1/6 898/1/6 912/1/6
f 873/5/6 895/5/6 913/5/6
f 912/1/6 873/1/6 913/1/6
f 895/1/6 896/1/6 914/1/6
f 913/5/6 895/5/6 914/5/6
f 914/1/6 896/1/6 915/1/6
f 896/1/6 882/1/6 916/1/6
f 915/1/6 896/1/6 916/1/6
f 882/5/6 798/5/6 917/5/6
f 916/1/6 882/1/6 917/1/6
f 798/1/6 903/1/6 918/1/6
f 917/5/6 798/5/6 918/5/6
f 918/1/6 903/1/6 919/1/6
f 907/1/6 886/1/6 920/1/6
f 832/5/6 893/5/6 921/5/6
f 920/1/6 886/1/6 921/1/6
f 886/1/6 832/1/6 921/1/6
f 911/1/6 902/1/6 922/1/6
f 910/1/6 911/1/6 922/1/6
f 869/5/6 870/5/6 923/5/6
f 922/1/6 902/1/6 923/1/6
f 902/1/6 869/1/6 923/1/6
f 897/1/6 912/1/6 924/1/6
f 924/1/6 912/1/6 925/1/6
f 893/1/6 908/1/6 926/1/6
f 908/1/6 909/1/6 926/1/6
f 909/5/6 910/5/6 927/5/6
f 926/1/6 909/1/6 927/1/6
f 910/1/6 922/1/6 928/1/6
f 927/5/6 910/5/6 928/5/6
f 928/1/6 922/1/6 929/1/6
f 929/1/6 922/1/6 930/1/6
f 922/3/6 923/3/6 930/3/6
f 923/5/6 870/5/6 931/5/6
f 930/3/6 923/3/6 931/3/6
f 912/3/6 913/3/6 932/3/6
f 925/1/6 912/1/6 932/1/6
f 913/5/6 914/5/6 933/5/6
f 932/3/6 913/3/6 933/3/6
f 914/3/6 915/3/6 934/3/6
f 933/5/6 914/5/6 934/5/6
f 915/1/6 916/1/6 935/1/6
f 934/3/6 915/3/6 935/3/6
f 905/5/6 906/5/6 936/5/6
f 906/4/6 907/4/6 937/4/6
f 936/5/6 906/5/6 937/5/6
f 907/1/6 920/1/6 938/1/6
f 937/4/6 907/4/6 938/4/6
f 897/1/6 924/1/6 939/1/6
f 932/1/6 933/1/6 940/1/6
f 925/1/6 932/1/6 940/1/6
f 937/1/6 938/1/6 941/1/6
f 938/1/6 920/1/6 941/1/6
f 920/3/6 921/3/6 941/3/6
f 921/5/6 893/5/6 942/5/6
f 941/3/6 921/3/6 942/3/6
f 893/1/6 926/1/6 943/1/6
f 927/5/6 928/5/6 944/5/6
f 928/4/6 929/4/6 945/4/6
f 944/5/6 928/5/6 945/5/6
f 929/1/6 930/1/6 946/1/6
f 945/4/6 929/4/6 946/4/6
f 930/1/6 931/1/6 946/1/6
f 936/5/6 937/5/6 947/5/6
f 937/1/6 941/1/6 948/1/6
f 947/5/6 937/5/6 948/5/6
f 941/1/6 942/1/6 948/1/6
f 942/5/6 893/5/6 949/5/6
f 948/1/6 942/1/6 949/1/6
f 943/1/6 944/1/6 950/1/6
f 949/5/6 893/5/6 950/5/6
f 893/1/6 943/1/6 950/1/6
f 944/5/6 945/5/6 951/5/6
f 950/1/6 944/1/6 951/1/6
f 945/1/6 946/1/6 952/1/6
f 951/5/6 945/5/6 952/5/6
f 946/1/6 931/1/6 953/1/6
f 952/1/6 946/1/6 953/1/6
f 931/5/6 870/5/6 953/5/6
f 870/1/6 897/1/6 954/1/6
f 953/5/6 870/5/6 954/5/6
f 897/1/6 939/1/6 954/1/6
f 939/1/6 940/1/6 954/1/6
f 933/5/6 934/5/6 955/5/6
f 954/1/6 940/1/6 955/1/6
f 940/1/6 933/1/6 955/1/6
f 934/1/6 935/1/6 956/1/6
f 955/5/6 934/5/6 956/5/6
f 935/1/6 916/1/6 957/1/6
f 956/1/6 935/1/6 957/1/6
f 917/5/6 918/5/6 958/5/6
f 958/5/6 918/5/6 959/5/6
f 966/6/6 967/6/6 972/6/6
f 972/6/6 967/6/6 973/6/6
f 970/6/6 971/6/6 974/6/6
f 974/6/6 971/6/6 975/6/6
f 960/3/6 961/3/6 978/3/6
f 978/3/6 961/3/6 979/3/6
f 964/4/6 965/4/6 980/4/6
f 980/4/6 965/4/6 981/4/6
f 962/4/6 963/4/6 982/4/6
f 982/4/6 963/4/6 983/4/6
f 984/6/6 985/6/6 988/6/6
f 988/6/6 985/6/6 989/6/6
f 976/3/6 977/3/6 990/3/6
f 990/3/6 977/3/6 991/3/6
f 968/2/6 969/2/6 992/2/6
f 992/2/6 969/2/6 993/2/6
f 986/6/6 987/6/6 994/6/6
f 994/6/6 987/6/6 995/6/6
f 996/4/6 997/4/6 998/4/6
f 998/4/6 997/4/6 999/4/6
f 1000/6/6 1001/6/6 1008/6/6
f 1008/6/6 1001/6/6 1009/6/6
f 1006/6/6 1007/6/6 1011/6/6
f 1011/6/6 1007/6/6 1012/6/6
f 1002/2/6 1003/2/6 1013/2/6
f 1013/2/6 1003/2/6 1014/2/6
f 1009/2/6 1010/2/6 1015/2/6
f 1015/2/6 1010/2/6 1016/2/6
f 1004/2/6 1005/2/6 1017/2/6
f 1017/2/6 1005/2/6 1018/2/6
f 1019/6/6 1020/6/6 1023/6/6
f 1023/6/6 1020/6/6 1024/6/6
f 1021/6/6 1022/6/6 1025/6/6
f 1025/6/6 1022/6/6 1026/6/6
f 1031/2/6 1032/2/6 1037/2/6
f 1037/2/6 1032/2/6 1038/2/6
f 1027/2/6 1028/2/6 1039/2/6
f 1039/2/6 1028/2/6 1040/2/6
f 1033/6/6 1034/6/6 1043/6/6
f 1043/6/6 1034/6/6 1044/6/6
f 1041/6/6 1042/6/6 1045/6/6
f 1045/6/6 1042/6/6 1046/6/6
f 1029/3/6 1030/3/6 1047/3/6
f 1047/3/6 1030/3/6 1048/3/6
f 1035/4/6 1036/4/6 1051/4/6
f 1051/4/6 1036/4/6 1052/4/6
f 1049/4/6 1050/4/6 1055/4/6
f 1055/4/6 1050/4/6 1056/4/6
f 1053/6/6 1054/6/6 1059/6/6
f 1059/6/6 1054/6/6 1060/6/6
f 1057/6/6 1058/6/6 1065/6/6
f 1065/6/6 1058/6/6 1066/6/6
f 1060/4/6 1061/4/6 1071/4/6
f 1071/4/6 1061/4/6 1072/4/6
f 1067/4/6 1068/4/6 1073/4/6
f 1073/4/6 1068/4/6 1074/4/6
f 1069/4/6 1070/4/6 1075/4/6
f 1075/4/6 1070/4/6 1076/4/6
f 1071/2/6 1072/2/6 1077/2/6
f 1077/2/6 1072/2/6 1078/2/6
f 1062/2/6 1063/2/6 1079/2/6
f 1079/2/6 1063/2/6 1080/2/6
f 1064/2/6 1065/2/6 1081/2/6
f 1081/2/6 1065/2/6 1082/2/6
f 1083/2/6 1084/2/6 1087/2/6
f 1087/2/6 1084/2/6 1088/2/6
f 1085/2/6 1086/2/6 1089/2/6
f 1089/2/6 1086/2/6 1090/2/6
f 1091/2/6 1092/2/6 1095/2/6
f 1095/2/6 1092/2/6 1096/2/6
f 1093/2/6 1094/2/6 1097/2/6
f 1097/2/6 1094/2/6 1098/2/6
f 1099/2/6 1100/2/6 1103/2/6
f 1103/2/6 1100/2/6 1104/2/6
f 1101/2/6 1102/2/6 1105/2/6
f 1105/2/6 1102/2/6 1106/2/6
f 1107/2/6 1108/2/6 1111/2/6
f 1111/2/6 1108/2/6 1112/2/6
f 1109/2/6 1110/2/6 1113/2/6
f 1113/2/6 1110/2/6 1114/2/6
f 1115/2/6 1116/2/6 1119/2/6
f 1119/2/6 1116/2/6 1120/2/6
f 1117/2/6 1118/2/6 1121/2/6
f 1121/2/6 1118/2/6 1122/2/6
f 1123/2/6 1124/2/6 1127/2/6
f 1127/2/6 1124/2/6 1128/2/6
f 1125/2/6 1126/2/6 1129/2/6
f 1129/2/6 1126/2/6 1130/2/6
f 1131/2/6 1132/2/6 1135/2/6
f 1135/2/6 1132/2/6 1136/2/6
f 1133/2/6 1134/2/6 1137/2/6
f 1137/2/6 1134/2/6 1138/2/6
