# MagicaVoxel @ Ephtracy

# group
o 

# material
mtllib Path-6.mtl
usemtl palette

# normals
vn -1 0 0
vn 1 0 0
vn 0 0 1
vn 0 0 -1
vn 0 -1 0
vn 0 1 0

# texcoords
vt 0.939453 0.5
vt 0.943359 0.5
vt 0.947266 0.5
vt 0.951172 0.5
vt 0.955078 0.5

# verts
v -2 0 -4.7
v -2 0 -9
v -2 0.1 -5.9
v -2 0.1 -6.4
v -2 0.1 -6.8
v -2 0.1 -7.4
v -2 0.2 -4.7
v -2 0.2 -5.9
v -2 0.2 -6.4
v -2 0.2 -6.8
v -2 0.2 -7.4
v -2 0.2 -9
v -1.8 0.2 -8.3
v -1.8 0.2 -8.8
v -1.8 0.3 -8.3
v -1.8 0.3 -8.8
v -1.7 0.2 -6.5
v -1.7 0.2 -6.9
v -1.7 0.3 -6.5
v -1.7 0.3 -6.9
v -1.4 0.2 -4.8
v -1.4 0.2 -5.6
v -1.4 0.2 -7.3
v -1.4 0.2 -7.9
v -1.4 0.3 -4.8
v -1.4 0.3 -5.6
v -1.4 0.3 -7.3
v -1.4 0.3 -7.9
v -0.7 0.2 -7.6
v -0.7 0.2 -8
v -0.7 0.3 -7.6
v -0.7 0.3 -8
v -0.6 0.2 -5
v -0.6 0.2 -5.6
v -0.6 0.3 -5
v -0.6 0.3 -5.6
v -0.5 0.2 -6.4
v -0.5 0.2 -6.7
v -0.5 0.3 -6.4
v -0.5 0.3 -6.7
v -0.4 0.2 -8.6
v -0.4 0.2 -8.9
v -0.4 0.3 -8.6
v -0.4 0.3 -8.9
v 2.38419e-07 0.2 -6.1
v 2.38419e-07 0.2 -6.3
v 2.38419e-07 0.2 -7.3
v 2.38419e-07 0.2 -7.6
v 2.38419e-07 0.3 -6.1
v 2.38419e-07 0.3 -6.3
v 2.38419e-07 0.3 -7.3
v 2.38419e-07 0.3 -7.6
v 0.1 0.2 -5.5
v 0.1 0.2 -5.9
v 0.1 0.3 -5.5
v 0.1 0.3 -5.9
v 0.3 0.2 -7.9
v 0.3 0.2 -8.2
v 0.3 0.3 -7.9
v 0.3 0.3 -8.2
v 0.7 0.2 -4.9
v 0.7 0.2 -5.7
v 0.7 0.2 -6.4
v 0.7 0.2 -6.9
v 0.7 0.3 -4.9
v 0.7 0.3 -5.7
v 0.7 0.3 -6.4
v 0.7 0.3 -6.9
v 0.9 0.2 -7.2
v 0.9 0.2 -7.6
v 0.9 0.2 -8.5
v 0.9 0.2 -8.8
v 0.9 0.3 -7.2
v 0.9 0.3 -7.6
v 0.9 0.3 -8.5
v 0.9 0.3 -8.8
v 1.5 0.2 -5.2
v 1.5 0.2 -5.9
v 1.5 0.3 -5.2
v 1.5 0.3 -5.9
v 1.7 0.2 -8.3
v 1.7 0.2 -9
v 1.7 0.3 -8.3
v 1.7 0.3 -9
v -1.5 0.2 -6.5
v -1.5 0.2 -6.9
v -1.5 0.2 -8.3
v -1.5 0.2 -8.8
v -1.5 0.3 -6.5
v -1.5 0.3 -6.9
v -1.5 0.3 -8.3
v -1.5 0.3 -8.8
v -1.1 0.2 -4.8
v -1.1 0.2 -5.6
v -1.1 0.3 -4.8
v -1.1 0.3 -5.6
v -0.9 0.2 -7.3
v -0.9 0.2 -7.9
v -0.9 0.3 -7.3
v -0.9 0.3 -7.9
v -0.5 0.2 -7.6
v -0.5 0.2 -8
v -0.5 0.3 -7.6
v -0.5 0.3 -8
v -0.0999999 0.2 -5
v -0.0999999 0.2 -5.6
v -0.0999999 0.2 -6.4
v -0.0999999 0.2 -6.7
v -0.0999999 0.2 -8.6
v -0.0999999 0.2 -8.9
v -0.0999999 0.3 -5
v -0.0999999 0.3 -5.6
v -0.0999999 0.3 -6.4
v -0.0999999 0.3 -6.7
v -0.0999999 0.3 -8.6
v -0.0999999 0.3 -8.9
v 0.2 0.2 -6.1
v 0.2 0.2 -6.3
v 0.2 0.2 -7.3
v 0.2 0.2 -7.6
v 0.2 0.3 -6.1
v 0.2 0.3 -6.3
v 0.2 0.3 -7.3
v 0.2 0.3 -7.6
v 0.3 0.2 -5.5
v 0.3 0.2 -5.9
v 0.3 0.3 -5.5
v 0.3 0.3 -5.9
v 0.5 0.2 -7.9
v 0.5 0.2 -8.2
v 0.5 0.3 -7.9
v 0.5 0.3 -8.2
v 0.9 0.2 -6.4
v 0.9 0.2 -6.9
v 0.9 0.3 -6.4
v 0.9 0.3 -6.9
v 1.1 0.2 -4.9
v 1.1 0.2 -5.7
v 1.1 0.2 -8.5
v 1.1 0.2 -8.8
v 1.1 0.3 -4.9
v 1.1 0.3 -5.7
v 1.1 0.3 -8.5
v 1.1 0.3 -8.8
v 1.3 0.2 -7.2
v 1.3 0.2 -7.6
v 1.3 0.3 -7.2
v 1.3 0.3 -7.6
v 1.8 0.2 -5.2
v 1.8 0.2 -5.9
v 1.8 0.2 -8.3
v 1.8 0.2 -9
v 1.8 0.3 -5.2
v 1.8 0.3 -5.9
v 1.8 0.3 -8.3
v 1.8 0.3 -9
v 2 0 -4.7
v 2 0 -9
v 2 0.1 -6.1
v 2 0.1 -6.5
v 2 0.1 -8.3
v 2 0.1 -9
v 2 0.2 -4.7
v 2 0.2 -6.1
v 2 0.2 -6.5
v 2 0.2 -8.3
v 2 0.2 -9
v -2 0 -4.7
v -2 0.2 -4.7
v -1.5 0.1 -4.7
v -1.5 0.2 -4.7
v -1.4 0.1 -4.7
v -1.4 0.2 -4.7
v -0.8 0.1 -4.7
v -0.8 0.2 -4.7
v -0.7 0.1 -4.7
v -0.7 0.2 -4.7
v -0.0999999 0.1 -4.7
v -0.0999999 0.2 -4.7
v 2.38419e-07 0.1 -4.7
v 2.38419e-07 0.2 -4.7
v 0.1 0.1 -4.7
v 0.1 0.2 -4.7
v 0.3 0.1 -4.7
v 0.3 0.2 -4.7
v 0.6 0.1 -4.7
v 0.6 0.2 -4.7
v 0.7 0.1 -4.7
v 0.7 0.2 -4.7
v 1.3 0.1 -4.7
v 1.3 0.2 -4.7
v 1.4 0.1 -4.7
v 1.4 0.2 -4.7
v 1.8 0.1 -4.7
v 1.8 0.2 -4.7
v 1.9 0.1 -4.7
v 1.9 0.2 -4.7
v 2 0 -4.7
v 2 0.2 -4.7
v -1.4 0.2 -4.8
v -1.4 0.3 -4.8
v -1.1 0.2 -4.8
v -1.1 0.3 -4.8
v 0.7 0.2 -4.9
v 0.7 0.3 -4.9
v 1.1 0.2 -4.9
v 1.1 0.3 -4.9
v -0.6 0.2 -5
v -0.6 0.3 -5
v -0.0999999 0.2 -5
v -0.0999999 0.3 -5
v 1.5 0.2 -5.2
v 1.5 0.3 -5.2
v 1.8 0.2 -5.2
v 1.8 0.3 -5.2
v 0.1 0.2 -5.5
v 0.1 0.3 -5.5
v 0.3 0.2 -5.5
v 0.3 0.3 -5.5
v 2.38419e-07 0.2 -6.1
v 2.38419e-07 0.3 -6.1
v 0.2 0.2 -6.1
v 0.2 0.3 -6.1
v -0.5 0.2 -6.4
v -0.5 0.3 -6.4
v -0.0999999 0.2 -6.4
v -0.0999999 0.3 -6.4
v 0.7 0.2 -6.4
v 0.7 0.3 -6.4
v 0.9 0.2 -6.4
v 0.9 0.3 -6.4
v -1.7 0.2 -6.5
v -1.7 0.3 -6.5
v -1.5 0.2 -6.5
v -1.5 0.3 -6.5
v 0.9 0.2 -7.2
v 0.9 0.3 -7.2
v 1.3 0.2 -7.2
v 1.3 0.3 -7.2
v -1.4 0.2 -7.3
v -1.4 0.3 -7.3
v -0.9 0.2 -7.3
v -0.9 0.3 -7.3
v 2.38419e-07 0.2 -7.3
v 2.38419e-07 0.3 -7.3
v 0.2 0.2 -7.3
v 0.2 0.3 -7.3
v -0.7 0.2 -7.6
v -0.7 0.3 -7.6
v -0.5 0.2 -7.6
v -0.5 0.3 -7.6
v 0.3 0.2 -7.9
v 0.3 0.3 -7.9
v 0.5 0.2 -7.9
v 0.5 0.3 -7.9
v -1.8 0.2 -8.3
v -1.8 0.3 -8.3
v -1.5 0.2 -8.3
v -1.5 0.3 -8.3
v 1.7 0.2 -8.3
v 1.7 0.3 -8.3
v 1.8 0.2 -8.3
v 1.8 0.3 -8.3
v 0.9 0.2 -8.5
v 0.9 0.3 -8.5
v 1.1 0.2 -8.5
v 1.1 0.3 -8.5
v -0.4 0.2 -8.6
v -0.4 0.3 -8.6
v -0.0999999 0.2 -8.6
v -0.0999999 0.3 -8.6
v -1.4 0.2 -5.6
v -1.4 0.3 -5.6
v -1.1 0.2 -5.6
v -1.1 0.3 -5.6
v -0.6 0.2 -5.6
v -0.6 0.3 -5.6
v -0.0999999 0.2 -5.6
v -0.0999999 0.3 -5.6
v 0.7 0.2 -5.7
v 0.7 0.3 -5.7
v 1.1 0.2 -5.7
v 1.1 0.3 -5.7
v 0.1 0.2 -5.9
v 0.1 0.3 -5.9
v 0.3 0.2 -5.9
v 0.3 0.3 -5.9
v 1.5 0.2 -5.9
v 1.5 0.3 -5.9
v 1.8 0.2 -5.9
v 1.8 0.3 -5.9
v 2.38419e-07 0.2 -6.3
v 2.38419e-07 0.3 -6.3
v 0.2 0.2 -6.3
v 0.2 0.3 -6.3
v -0.5 0.2 -6.7
v -0.5 0.3 -6.7
v -0.0999999 0.2 -6.7
v -0.0999999 0.3 -6.7
v -1.7 0.2 -6.9
v -1.7 0.3 -6.9
v -1.5 0.2 -6.9
v -1.5 0.3 -6.9
v 0.7 0.2 -6.9
v 0.7 0.3 -6.9
v 0.9 0.2 -6.9
v 0.9 0.3 -6.9
v 2.38419e-07 0.2 -7.6
v 2.38419e-07 0.3 -7.6
v 0.2 0.2 -7.6
v 0.2 0.3 -7.6
v 0.9 0.2 -7.6
v 0.9 0.3 -7.6
v 1.3 0.2 -7.6
v 1.3 0.3 -7.6
v -1.4 0.2 -7.9
v -1.4 0.3 -7.9
v -0.9 0.2 -7.9
v -0.9 0.3 -7.9
v -0.7 0.2 -8
v -0.7 0.3 -8
v -0.5 0.2 -8
v -0.5 0.3 -8
v 0.3 0.2 -8.2
v 0.3 0.3 -8.2
v 0.5 0.2 -8.2
v 0.5 0.3 -8.2
v -1.8 0.2 -8.8
v -1.8 0.3 -8.8
v -1.5 0.2 -8.8
v -1.5 0.3 -8.8
v 0.9 0.2 -8.8
v 0.9 0.3 -8.8
v 1.1 0.2 -8.8
v 1.1 0.3 -8.8
v -0.4 0.2 -8.9
v -0.4 0.3 -8.9
v -0.0999999 0.2 -8.9
v -0.0999999 0.3 -8.9
v -2 0 -9
v -2 0.2 -9
v -1.5 0.1 -9
v -1.5 0.2 -9
v -1.4 0.1 -9
v -1.4 0.2 -9
v -0.8 0.1 -9
v -0.8 0.2 -9
v -0.7 0.1 -9
v -0.7 0.2 -9
v -0.0999999 0.1 -9
v -0.0999999 0.2 -9
v 2.38419e-07 0.1 -9
v 2.38419e-07 0.2 -9
v 0.6 0.1 -9
v 0.6 0.2 -9
v 0.7 0.1 -9
v 0.7 0.2 -9
v 1.3 0.1 -9
v 1.3 0.2 -9
v 1.4 0.1 -9
v 1.4 0.2 -9
v 1.7 0.1 -9
v 1.7 0.2 -9
v 1.7 0.3 -9
v 1.8 0.1 -9
v 1.8 0.2 -9
v 1.8 0.3 -9
v 1.9 0.1 -9
v 1.9 0.2 -9
v 2 0 -9
v 2 0.1 -9
v 2 0.2 -9
v -2 0 -4.7
v 2 0 -4.7
v -2 0 -9
v 2 0 -9
v -2 0.2 -4.7
v -1.5 0.2 -4.7
v -1.4 0.2 -4.7
v -0.8 0.2 -4.7
v -0.7 0.2 -4.7
v -0.0999999 0.2 -4.7
v 2.38419e-07 0.2 -4.7
v 0.1 0.2 -4.7
v 0.3 0.2 -4.7
v 0.6 0.2 -4.7
v 0.7 0.2 -4.7
v 1.3 0.2 -4.7
v 1.4 0.2 -4.7
v 1.8 0.2 -4.7
v 1.9 0.2 -4.7
v 2 0.2 -4.7
v -1.8 0.2 -4.8
v -1.5 0.2 -4.8
v -1.4 0.2 -4.8
v -1.1 0.2 -4.8
v 1.2 0.2 -4.8
v 1.3 0.2 -4.8
v 1.4 0.2 -4.8
v 1.8 0.2 -4.8
v 0.5 0.2 -4.9
v 0.6 0.2 -4.9
v 0.7 0.2 -4.9
v 1.1 0.2 -4.9
v -0.6 0.2 -5
v -0.0999999 0.2 -5
v 1.2 0.2 -5
v 1.3 0.2 -5
v 1.4 0.2 -5
v 1.8 0.2 -5
v 0.1 0.2 -5.1
v 0.3 0.2 -5.1
v 1.5 0.2 -5.2
v 1.8 0.2 -5.2
v -0.9 0.2 -5.3
v -0.8 0.2 -5.3
v -0.9 0.2 -5.5
v -0.8 0.2 -5.5
v 0.1 0.2 -5.5
v 0.3 0.2 -5.5
v -1.8 0.2 -5.6
v -1.5 0.2 -5.6
v -1.4 0.2 -5.6
v -1.1 0.2 -5.6
v -0.6 0.2 -5.6
v -0.0999999 0.2 -5.6
v -0.5 0.2 -5.7
v -0.0999999 0.2 -5.7
v 0.5 0.2 -5.7
v 0.6 0.2 -5.7
v 0.7 0.2 -5.7
v 1.1 0.2 -5.7
v -1.7 0.2 -5.8
v -1.5 0.2 -5.8
v -1.3 0.2 -5.8
v -1 0.2 -5.8
v 0.7 0.2 -5.8
v 1.1 0.2 -5.8
v -2 0.2 -5.9
v -1.8 0.2 -5.9
v -1.3 0.2 -5.9
v -1 0.2 -5.9
v 0.1 0.2 -5.9
v 0.3 0.2 -5.9
v 1.5 0.2 -5.9
v 1.8 0.2 -5.9
v -1 0.2 -6
v -0.8 0.2 -6
v -0.5 0.2 -6
v -0.0999999 0.2 -6
v 1.2 0.2 -6
v 1.3 0.2 -6
v 1.4 0.2 -6
v 1.5 0.2 -6
v 2.38419e-07 0.2 -6.1
v 0.2 0.2 -6.1
v 0.7 0.2 -6.1
v 1.1 0.2 -6.1
v 1.9 0.2 -6.1
v 2 0.2 -6.1
v -1.7 0.2 -6.2
v -1.5 0.2 -6.2
v 1.2 0.2 -6.2
v 1.3 0.2 -6.2
v 1.4 0.2 -6.2
v 1.5 0.2 -6.2
v 2.38419e-07 0.2 -6.3
v 0.2 0.2 -6.3
v 1.1 0.2 -6.3
v 1.3 0.2 -6.3
v 1.4 0.2 -6.3
v 1.6 0.2 -6.3
v -2 0.2 -6.4
v -1.8 0.2 -6.4
v -1 0.2 -6.4
v -0.8 0.2 -6.4
v -0.5 0.2 -6.4
v -0.0999999 0.2 -6.4
v 2.38419e-07 0.2 -6.4
v 0.1 0.2 -6.4
v 0.4 0.2 -6.4
v 0.6 0.2 -6.4
v 0.7 0.2 -6.4
v 0.9 0.2 -6.4
v -1.7 0.2 -6.5
v -1.5 0.2 -6.5
v -1.4 0.2 -6.5
v -1.3 0.2 -6.5
v 1.9 0.2 -6.5
v 2 0.2 -6.5
v -1 0.2 -6.7
v -0.8 0.2 -6.7
v -0.7 0.2 -6.7
v -0.6 0.2 -6.7
v -0.5 0.2 -6.7
v -0.0999999 0.2 -6.7
v 2.38419e-07 0.2 -6.7
v 0.1 0.2 -6.7
v -2 0.2 -6.8
v -1.8 0.2 -6.8
v -0.4 0.2 -6.8
v -0.2 0.2 -6.8
v 1.1 0.2 -6.8
v 1.3 0.2 -6.8
v 1.4 0.2 -6.8
v 1.6 0.2 -6.8
v -1.7 0.2 -6.9
v -1.5 0.2 -6.9
v -1.4 0.2 -6.9
v -1.3 0.2 -6.9
v 2.38419e-07 0.2 -6.9
v 0.1 0.2 -6.9
v 0.4 0.2 -6.9
v 0.6 0.2 -6.9
v 0.7 0.2 -6.9
v 0.9 0.2 -6.9
v 1.6 0.2 -6.9
v 1.8 0.2 -6.9
v 0.2 0.2 -7
v 0.4 0.2 -7
v -1 0.2 -7.1
v -0.8 0.2 -7.1
v -0.7 0.2 -7.1
v -0.6 0.2 -7.1
v -0.4 0.2 -7.1
v -0.2 0.2 -7.1
v 2.38419e-07 0.2 -7.2
v 0.1 0.2 -7.2
v 0.2 0.2 -7.2
v 0.4 0.2 -7.2
v 0.9 0.2 -7.2
v 1.3 0.2 -7.2
v 1.6 0.2 -7.2
v 1.8 0.2 -7.2
v -1.7 0.2 -7.3
v -1.5 0.2 -7.3
v -1.4 0.2 -7.3
v -0.9 0.2 -7.3
v -0.3 0.2 -7.3
v -0.0999999 0.2 -7.3
v 2.38419e-07 0.2 -7.3
v 0.2 0.2 -7.3
v 0.5 0.2 -7.3
v 0.6 0.2 -7.3
v 0.7 0.2 -7.3
v 0.8 0.2 -7.3
v -2 0.2 -7.4
v -1.8 0.2 -7.4
v 1.7 0.2 -7.4
v 1.8 0.2 -7.4
v -1.7 0.2 -7.6
v -1.5 0.2 -7.6
v -0.7 0.2 -7.6
v -0.5 0.2 -7.6
v -0.3 0.2 -7.6
v -0.0999999 0.2 -7.6
v 2.38419e-07 0.2 -7.6
v 0.2 0.2 -7.6
v 0.5 0.2 -7.6
v 0.6 0.2 -7.6
v 0.7 0.2 -7.6
v 0.8 0.2 -7.6
v 0.9 0.2 -7.6
v 1.3 0.2 -7.6
v 1.4 0.2 -7.7
v 1.6 0.2 -7.7
v 0.8 0.2 -7.8
v 1 0.2 -7.8
v 1.7 0.2 -7.8
v 1.8 0.2 -7.8
v -1.8 0.2 -7.9
v -1.5 0.2 -7.9
v -1.4 0.2 -7.9
v -0.9 0.2 -7.9
v -0.3 0.2 -7.9
v -0.0999999 0.2 -7.9
v 2.38419e-07 0.2 -7.9
v 0.1 0.2 -7.9
v 0.3 0.2 -7.9
v 0.5 0.2 -7.9
v -0.7 0.2 -8
v -0.5 0.2 -8
v 1.4 0.2 -8
v 1.6 0.2 -8
v 0.8 0.2 -8.1
v 1 0.2 -8.1
v -1.8 0.2 -8.2
v -1.5 0.2 -8.2
v 0.3 0.2 -8.2
v 0.5 0.2 -8.2
v -1.8 0.2 -8.3
v -1.5 0.2 -8.3
v -1.4 0.2 -8.3
v -1.2 0.2 -8.3
v -0.3 0.2 -8.3
v -0.0999999 0.2 -8.3
v 2.38419e-07 0.2 -8.3
v 0.1 0.2 -8.3
v 1.2 0.2 -8.3
v 1.3 0.2 -8.3
v 1.4 0.2 -8.3
v 1.5 0.2 -8.3
v 1.7 0.2 -8.3
v 1.8 0.2 -8.3
v 1.9 0.2 -8.3
v 2 0.2 -8.3
v -1 0.2 -8.4
v -0.8 0.2 -8.4
v 0.3 0.2 -8.5
v 0.6 0.2 -8.5
v 0.9 0.2 -8.5
v 1.1 0.2 -8.5
v -0.4 0.2 -8.6
v -0.0999999 0.2 -8.6
v 2.38419e-07 0.2 -8.6
v 0.2 0.2 -8.6
v 0.3 0.2 -8.7
v 0.6 0.2 -8.7
v 1.2 0.2 -8.7
v 1.3 0.2 -8.7
v 1.4 0.2 -8.7
v 1.5 0.2 -8.7
v -1.8 0.2 -8.8
v -1.5 0.2 -8.8
v -1.4 0.2 -8.8
v -1.2 0.2 -8.8
v 0.9 0.2 -8.8
v 1.1 0.2 -8.8
v -1 0.2 -8.9
v -0.8 0.2 -8.9
v -0.4 0.2 -8.9
v -0.0999999 0.2 -8.9
v 2.38419e-07 0.2 -8.9
v 0.2 0.2 -8.9
v -2 0.2 -9
v -1.5 0.2 -9
v -1.4 0.2 -9
v -0.8 0.2 -9
v -0.7 0.2 -9
v -0.0999999 0.2 -9
v 2.38419e-07 0.2 -9
v 0.6 0.2 -9
v 0.7 0.2 -9
v 1.3 0.2 -9
v 1.4 0.2 -9
v 1.7 0.2 -9
v 1.8 0.2 -9
v 1.9 0.2 -9
v 2 0.2 -9
v -1.4 0.3 -4.8
v -1.1 0.3 -4.8
v 0.7 0.3 -4.9
v 1.1 0.3 -4.9
v -0.6 0.3 -5
v -0.0999999 0.3 -5
v 1.5 0.3 -5.2
v 1.8 0.3 -5.2
v 0.1 0.3 -5.5
v 0.3 0.3 -5.5
v -1.4 0.3 -5.6
v -1.1 0.3 -5.6
v -0.6 0.3 -5.6
v -0.0999999 0.3 -5.6
v 0.7 0.3 -5.7
v 1.1 0.3 -5.7
v 0.1 0.3 -5.9
v 0.3 0.3 -5.9
v 1.5 0.3 -5.9
v 1.8 0.3 -5.9
v 2.38419e-07 0.3 -6.1
v 0.2 0.3 -6.1
v 2.38419e-07 0.3 -6.3
v 0.2 0.3 -6.3
v -0.5 0.3 -6.4
v -0.0999999 0.3 -6.4
v 0.7 0.3 -6.4
v 0.9 0.3 -6.4
v -1.7 0.3 -6.5
v -1.5 0.3 -6.5
v -0.5 0.3 -6.7
v -0.0999999 0.3 -6.7
v -1.7 0.3 -6.9
v -1.5 0.3 -6.9
v 0.7 0.3 -6.9
v 0.9 0.3 -6.9
v 0.9 0.3 -7.2
v 1.3 0.3 -7.2
v -1.4 0.3 -7.3
v -0.9 0.3 -7.3
v 2.38419e-07 0.3 -7.3
v 0.2 0.3 -7.3
v -0.7 0.3 -7.6
v -0.5 0.3 -7.6
v 2.38419e-07 0.3 -7.6
v 0.2 0.3 -7.6
v 0.9 0.3 -7.6
v 1.3 0.3 -7.6
v -1.4 0.3 -7.9
v -0.9 0.3 -7.9
v 0.3 0.3 -7.9
v 0.5 0.3 -7.9
v -0.7 0.3 -8
v -0.5 0.3 -8
v 0.3 0.3 -8.2
v 0.5 0.3 -8.2
v -1.8 0.3 -8.3
v -1.5 0.3 -8.3
v 1.7 0.3 -8.3
v 1.8 0.3 -8.3
v 0.9 0.3 -8.5
v 1.1 0.3 -8.5
v -0.4 0.3 -8.6
v -0.0999999 0.3 -8.6
v -1.8 0.3 -8.8
v -1.5 0.3 -8.8
v 0.9 0.3 -8.8
v 1.1 0.3 -8.8
v -0.4 0.3 -8.9
v -0.0999999 0.3 -8.9
v 1.7 0.3 -9
v 1.8 0.3 -9

# faces
f 3/1/1 2/1/1 1/1/1
f 4/1/1 2/1/1 3/1/1
f 5/1/1 2/1/1 4/1/1
f 6/1/1 2/1/1 5/1/1
f 7/1/1 3/1/1 1/1/1
f 8/2/1 4/2/1 3/2/1
f 8/1/1 3/1/1 7/1/1
f 9/1/1 5/1/1 4/1/1
f 9/2/1 4/2/1 8/2/1
f 10/4/1 6/4/1 5/4/1
f 10/1/1 5/1/1 9/1/1
f 11/1/1 2/1/1 6/1/1
f 11/4/1 6/4/1 10/4/1
f 12/1/1 2/1/1 11/1/1
f 15/4/1 14/4/1 13/4/1
f 16/4/1 14/4/1 15/4/1
f 19/2/1 18/2/1 17/2/1
f 20/2/1 18/2/1 19/2/1
f 25/3/1 22/3/1 21/3/1
f 26/3/1 22/3/1 25/3/1
f 27/3/1 24/3/1 23/3/1
f 28/3/1 24/3/1 27/3/1
f 31/4/1 30/4/1 29/4/1
f 32/4/1 30/4/1 31/4/1
f 35/4/1 34/4/1 33/4/1
f 36/4/1 34/4/1 35/4/1
f 39/2/1 38/2/1 37/2/1
f 40/2/1 38/2/1 39/2/1
f 43/4/1 42/4/1 41/4/1
f 44/4/1 42/4/1 43/4/1
f 49/4/1 46/4/1 45/4/1
f 50/4/1 46/4/1 49/4/1
f 51/2/1 48/2/1 47/2/1
f 52/2/1 48/2/1 51/2/1
f 55/3/1 54/3/1 53/3/1
f 56/3/1 54/3/1 55/3/1
f 59/4/1 58/4/1 57/4/1
f 60/4/1 58/4/1 59/4/1
f 65/4/1 62/4/1 61/4/1
f 66/4/1 62/4/1 65/4/1
f 67/2/1 64/2/1 63/2/1
f 68/2/1 64/2/1 67/2/1
f 73/2/1 70/2/1 69/2/1
f 74/2/1 70/2/1 73/2/1
f 75/4/1 72/4/1 71/4/1
f 76/4/1 72/4/1 75/4/1
f 79/2/1 78/2/1 77/2/1
f 80/2/1 78/2/1 79/2/1
f 83/2/1 82/2/1 81/2/1
f 84/2/1 82/2/1 83/2/1
f 85/2/2 86/2/2 89/2/2
f 89/2/2 86/2/2 90/2/2
f 87/4/2 88/4/2 91/4/2
f 91/4/2 88/4/2 92/4/2
f 93/3/2 94/3/2 95/3/2
f 95/3/2 94/3/2 96/3/2
f 97/3/2 98/3/2 99/3/2
f 99/3/2 98/3/2 100/3/2
f 101/4/2 102/4/2 103/4/2
f 103/4/2 102/4/2 104/4/2
f 105/4/2 106/4/2 111/4/2
f 111/4/2 106/4/2 112/4/2
f 107/2/2 108/2/2 113/2/2
f 113/2/2 108/2/2 114/2/2
f 109/4/2 110/4/2 115/4/2
f 115/4/2 110/4/2 116/4/2
f 117/4/2 118/4/2 121/4/2
f 121/4/2 118/4/2 122/4/2
f 119/2/2 120/2/2 123/2/2
f 123/2/2 120/2/2 124/2/2
f 125/3/2 126/3/2 127/3/2
f 127/3/2 126/3/2 128/3/2
f 129/4/2 130/4/2 131/4/2
f 131/4/2 130/4/2 132/4/2
f 133/2/2 134/2/2 135/2/2
f 135/2/2 134/2/2 136/2/2
f 137/4/2 138/4/2 141/4/2
f 141/4/2 138/4/2 142/4/2
f 139/4/2 140/4/2 143/4/2
f 143/4/2 140/4/2 144/4/2
f 145/2/2 146/2/2 147/2/2
f 147/2/2 146/2/2 148/2/2
f 149/2/2 150/2/2 153/2/2
f 153/2/2 150/2/2 154/2/2
f 151/2/2 152/2/2 155/2/2
f 155/2/2 152/2/2 156/2/2
f 157/1/2 158/1/2 159/1/2
f 159/1/2 158/1/2 160/1/2
f 160/1/2 158/1/2 161/1/2
f 161/1/2 158/1/2 162/1/2
f 157/1/2 159/1/2 163/1/2
f 159/3/2 160/3/2 164/3/2
f 163/1/2 159/1/2 164/1/2
f 160/1/2 161/1/2 165/1/2
f 164/3/2 160/3/2 165/3/2
f 161/2/2 162/2/2 166/2/2
f 165/1/2 161/1/2 166/1/2
f 166/2/2 162/2/2 167/2/2
f 170/1/3 169/1/3 168/1/3
f 171/1/3 169/1/3 170/1/3
f 172/1/3 170/1/3 168/1/3
f 172/5/3 171/5/3 170/5/3
f 173/5/3 171/5/3 172/5/3
f 174/1/3 172/1/3 168/1/3
f 174/1/3 173/1/3 172/1/3
f 175/1/3 173/1/3 174/1/3
f 176/1/3 174/1/3 168/1/3
f 176/5/3 175/5/3 174/5/3
f 177/5/3 175/5/3 176/5/3
f 178/1/3 176/1/3 168/1/3
f 178/1/3 177/1/3 176/1/3
f 179/1/3 177/1/3 178/1/3
f 180/1/3 178/1/3 168/1/3
f 180/5/3 179/5/3 178/5/3
f 181/5/3 179/5/3 180/5/3
f 182/1/3 180/1/3 168/1/3
f 182/1/3 181/1/3 180/1/3
f 183/1/3 181/1/3 182/1/3
f 184/1/3 182/1/3 168/1/3
f 184/3/3 183/3/3 182/3/3
f 185/3/3 183/3/3 184/3/3
f 186/1/3 184/1/3 168/1/3
f 186/1/3 185/1/3 184/1/3
f 187/1/3 185/1/3 186/1/3
f 188/1/3 186/1/3 168/1/3
f 188/5/3 187/5/3 186/5/3
f 189/5/3 187/5/3 188/5/3
f 190/1/3 188/1/3 168/1/3
f 190/1/3 189/1/3 188/1/3
f 191/1/3 189/1/3 190/1/3
f 192/1/3 190/1/3 168/1/3
f 192/5/3 191/5/3 190/5/3
f 193/5/3 191/5/3 192/5/3
f 194/1/3 192/1/3 168/1/3
f 194/1/3 193/1/3 192/1/3
f 195/1/3 193/1/3 194/1/3
f 196/1/3 194/1/3 168/1/3
f 196/5/3 195/5/3 194/5/3
f 197/5/3 195/5/3 196/5/3
f 198/1/3 196/1/3 168/1/3
f 198/1/3 197/1/3 196/1/3
f 199/1/3 197/1/3 198/1/3
f 202/3/3 201/3/3 200/3/3
f 203/3/3 201/3/3 202/3/3
f 206/4/3 205/4/3 204/4/3
f 207/4/3 205/4/3 206/4/3
f 210/4/3 209/4/3 208/4/3
f 211/4/3 209/4/3 210/4/3
f 214/2/3 213/2/3 212/2/3
f 215/2/3 213/2/3 214/2/3
f 218/3/3 217/3/3 216/3/3
f 219/3/3 217/3/3 218/3/3
f 222/4/3 221/4/3 220/4/3
f 223/4/3 221/4/3 222/4/3
f 226/2/3 225/2/3 224/2/3
f 227/2/3 225/2/3 226/2/3
f 230/2/3 229/2/3 228/2/3
f 231/2/3 229/2/3 230/2/3
f 234/2/3 233/2/3 232/2/3
f 235/2/3 233/2/3 234/2/3
f 238/2/3 237/2/3 236/2/3
f 239/2/3 237/2/3 238/2/3
f 242/3/3 241/3/3 240/3/3
f 243/3/3 241/3/3 242/3/3
f 246/2/3 245/2/3 244/2/3
f 247/2/3 245/2/3 246/2/3
f 250/4/3 249/4/3 248/4/3
f 251/4/3 249/4/3 250/4/3
f 254/4/3 253/4/3 252/4/3
f 255/4/3 253/4/3 254/4/3
f 258/4/3 257/4/3 256/4/3
f 259/4/3 257/4/3 258/4/3
f 262/2/3 261/2/3 260/2/3
f 263/2/3 261/2/3 262/2/3
f 266/4/3 265/4/3 264/4/3
f 267/4/3 265/4/3 266/4/3
f 270/4/3 269/4/3 268/4/3
f 271/4/3 269/4/3 270/4/3
f 272/3/4 273/3/4 274/3/4
f 274/3/4 273/3/4 275/3/4
f 276/4/4 277/4/4 278/4/4
f 278/4/4 277/4/4 279/4/4
f 280/4/4 281/4/4 282/4/4
f 282/4/4 281/4/4 283/4/4
f 284/3/4 285/3/4 286/3/4
f 286/3/4 285/3/4 287/3/4
f 288/2/4 289/2/4 290/2/4
f 290/2/4 289/2/4 291/2/4
f 292/4/4 293/4/4 294/4/4
f 294/4/4 293/4/4 295/4/4
f 296/2/4 297/2/4 298/2/4
f 298/2/4 297/2/4 299/2/4
f 300/2/4 301/2/4 302/2/4
f 302/2/4 301/2/4 303/2/4
f 304/2/4 305/2/4 306/2/4
f 306/2/4 305/2/4 307/2/4
f 308/2/4 309/2/4 310/2/4
f 310/2/4 309/2/4 311/2/4
f 312/2/4 313/2/4 314/2/4
f 314/2/4 313/2/4 315/2/4
f 316/3/4 317/3/4 318/3/4
f 318/3/4 317/3/4 319/3/4
f 320/4/4 321/4/4 322/4/4
f 322/4/4 321/4/4 323/4/4
f 324/4/4 325/4/4 326/4/4
f 326/4/4 325/4/4 327/4/4
f 328/4/4 329/4/4 330/4/4
f 330/4/4 329/4/4 331/4/4
f 332/4/4 333/4/4 334/4/4
f 334/4/4 333/4/4 335/4/4
f 336/4/4 337/4/4 338/4/4
f 338/4/4 337/4/4 339/4/4
f 340/1/4 341/1/4 342/1/4
f 342/1/4 341/1/4 343/1/4
f 340/1/4 342/1/4 344/1/4
f 342/5/4 343/5/4 344/5/4
f 344/5/4 343/5/4 345/5/4
f 340/1/4 344/1/4 346/1/4
f 344/1/4 345/1/4 346/1/4
f 346/1/4 345/1/4 347/1/4
f 340/1/4 346/1/4 348/1/4
f 346/5/4 347/5/4 348/5/4
f 348/5/4 347/5/4 349/5/4
f 340/1/4 348/1/4 350/1/4
f 348/1/4 349/1/4 350/1/4
f 350/1/4 349/1/4 351/1/4
f 340/1/4 350/1/4 352/1/4
f 350/5/4 351/5/4 352/5/4
f 352/5/4 351/5/4 353/5/4
f 340/1/4 352/1/4 354/1/4
f 352/1/4 353/1/4 354/1/4
f 354/1/4 353/1/4 355/1/4
f 340/1/4 354/1/4 356/1/4
f 354/5/4 355/5/4 356/5/4
f 356/5/4 355/5/4 357/5/4
f 340/1/4 356/1/4 358/1/4
f 356/1/4 357/1/4 358/1/4
f 358/1/4 357/1/4 359/1/4
f 340/1/4 358/1/4 360/1/4
f 358/5/4 359/5/4 360/5/4
f 360/5/4 359/5/4 361/5/4
f 340/1/4 360/1/4 362/1/4
f 360/1/4 361/1/4 362/1/4
f 362/1/4 361/1/4 363/1/4
f 362/2/4 363/2/4 365/2/4
f 363/2/4 364/2/4 365/2/4
f 340/1/4 362/1/4 365/1/4
f 365/2/4 364/2/4 366/2/4
f 366/2/4 364/2/4 367/2/4
f 340/1/4 365/1/4 368/1/4
f 365/5/4 366/5/4 368/5/4
f 368/5/4 366/5/4 369/5/4
f 340/1/4 368/1/4 370/1/4
f 368/2/4 369/2/4 371/2/4
f 370/1/4 368/1/4 371/1/4
f 371/2/4 369/2/4 372/2/4
f 375/1/5 374/1/5 373/1/5
f 376/1/5 374/1/5 375/1/5
f 377/1/6 378/1/6 393/1/6
f 378/5/6 379/5/6 394/5/6
f 393/1/6 378/1/6 394/1/6
f 379/1/6 380/1/6 395/1/6
f 394/5/6 379/5/6 395/5/6
f 395/1/6 380/1/6 396/1/6
f 387/1/6 388/1/6 397/1/6
f 388/5/6 389/5/6 398/5/6
f 397/1/6 388/1/6 398/1/6
f 389/1/6 390/1/6 399/1/6
f 398/5/6 389/5/6 399/5/6
f 390/5/6 391/5/6 400/5/6
f 399/1/6 390/1/6 400/1/6
f 385/1/6 386/1/6 401/1/6
f 386/5/6 387/5/6 402/5/6
f 401/1/6 386/1/6 402/1/6
f 387/1/6 397/1/6 403/1/6
f 402/5/6 387/5/6 403/5/6
f 403/1/6 397/1/6 404/1/6
f 381/1/6 382/1/6 405/1/6
f 382/5/6 383/5/6 406/5/6
f 405/1/6 382/1/6 406/1/6
f 404/1/6 397/1/6 407/1/6
f 397/3/6 398/3/6 407/3/6
f 398/5/6 399/5/6 408/5/6
f 407/3/6 398/3/6 408/3/6
f 399/3/6 400/3/6 409/3/6
f 408/5/6 399/5/6 409/5/6
f 400/5/6 391/5/6 410/5/6
f 409/3/6 400/3/6 410/3/6
f 383/1/6 384/1/6 411/1/6
f 384/3/6 385/3/6 411/3/6
f 385/1/6 401/1/6 412/1/6
f 411/3/6 385/3/6 412/3/6
f 409/1/6 410/1/6 413/1/6
f 410/5/6 391/5/6 414/5/6
f 413/1/6 410/1/6 414/1/6
f 396/1/6 380/1/6 415/1/6
f 380/5/6 381/5/6 416/5/6
f 415/1/6 380/1/6 416/1/6
f 396/1/6 415/1/6 417/1/6
f 415/3/6 416/3/6 417/3/6
f 416/5/6 381/5/6 418/5/6
f 417/3/6 416/3/6 418/3/6
f 383/1/6 411/1/6 419/1/6
f 411/1/6 412/1/6 419/1/6
f 412/1/6 401/1/6 420/1/6
f 419/1/6 412/1/6 420/1/6
f 377/1/6 393/1/6 421/1/6
f 393/3/6 394/3/6 421/3/6
f 394/5/6 395/5/6 422/5/6
f 421/3/6 394/3/6 422/3/6
f 422/5/6 395/5/6 423/5/6
f 417/1/6 418/1/6 424/1/6
f 396/1/6 417/1/6 424/1/6
f 381/1/6 405/1/6 425/1/6
f 406/5/6 383/5/6 426/5/6
f 425/1/6 426/1/6 427/1/6
f 426/5/6 383/5/6 428/5/6
f 427/1/6 426/1/6 428/1/6
f 420/1/6 401/1/6 429/1/6
f 401/4/6 402/4/6 429/4/6
f 402/5/6 403/5/6 430/5/6
f 429/4/6 402/4/6 430/4/6
f 430/5/6 403/5/6 431/5/6
f 404/1/6 407/1/6 432/1/6
f 407/1/6 408/1/6 432/1/6
f 421/1/6 422/1/6 433/1/6
f 422/5/6 423/5/6 434/5/6
f 433/1/6 422/1/6 434/1/6
f 423/1/6 424/1/6 435/1/6
f 424/1/6 418/1/6 436/1/6
f 435/1/6 424/1/6 436/1/6
f 431/1/6 432/1/6 437/1/6
f 430/5/6 431/5/6 437/5/6
f 432/1/6 408/1/6 438/1/6
f 437/1/6 432/1/6 438/1/6
f 421/1/6 433/1/6 439/1/6
f 377/1/6 421/1/6 439/1/6
f 439/1/6 433/1/6 440/1/6
f 435/4/6 436/4/6 441/4/6
f 423/1/6 435/1/6 441/1/6
f 436/1/6 418/1/6 442/1/6
f 441/4/6 436/4/6 442/4/6
f 383/1/6 419/1/6 443/1/6
f 420/1/6 429/1/6 444/1/6
f 429/1/6 430/1/6 444/1/6
f 409/1/6 413/1/6 445/1/6
f 414/5/6 391/5/6 446/5/6
f 442/1/6 418/1/6 447/1/6
f 441/1/6 442/1/6 447/1/6
f 418/5/6 381/5/6 448/5/6
f 447/1/6 418/1/6 448/1/6
f 427/2/6 428/2/6 449/2/6
f 425/1/6 427/1/6 449/1/6
f 428/5/6 383/5/6 450/5/6
f 449/2/6 428/2/6 450/2/6
f 438/1/6 408/1/6 451/1/6
f 408/5/6 409/5/6 452/5/6
f 451/1/6 408/1/6 452/1/6
f 445/1/6 446/1/6 453/1/6
f 452/5/6 409/5/6 453/5/6
f 409/1/6 445/1/6 453/1/6
f 453/1/6 446/1/6 454/1/6
f 450/5/6 383/5/6 455/5/6
f 443/1/6 444/1/6 455/1/6
f 383/1/6 443/1/6 455/1/6
f 455/1/6 444/1/6 456/1/6
f 437/3/6 438/3/6 457/3/6
f 430/5/6 437/5/6 457/5/6
f 438/1/6 451/1/6 458/1/6
f 457/3/6 438/3/6 458/3/6
f 391/1/6 392/1/6 459/1/6
f 446/5/6 391/5/6 459/5/6
f 459/1/6 392/1/6 460/1/6
f 440/1/6 433/1/6 461/1/6
f 433/3/6 434/3/6 461/3/6
f 434/5/6 423/5/6 462/5/6
f 461/3/6 434/3/6 462/3/6
f 458/1/6 451/1/6 463/1/6
f 451/2/6 452/2/6 463/2/6
f 457/1/6 458/1/6 463/1/6
f 452/5/6 453/5/6 464/5/6
f 463/2/6 452/2/6 464/2/6
f 453/2/6 454/2/6 465/2/6
f 464/5/6 453/5/6 465/5/6
f 454/1/6 446/1/6 466/1/6
f 465/2/6 454/2/6 466/2/6
f 450/5/6 455/5/6 467/5/6
f 456/1/6 444/1/6 468/1/6
f 463/1/6 464/1/6 469/1/6
f 457/1/6 463/1/6 469/1/6
f 464/5/6 465/5/6 470/5/6
f 469/1/6 464/1/6 470/1/6
f 465/1/6 466/1/6 471/1/6
f 470/5/6 465/5/6 471/5/6
f 466/1/6 446/1/6 472/1/6
f 471/1/6 466/1/6 472/1/6
f 439/2/6 440/2/6 473/2/6
f 440/1/6 461/1/6 474/1/6
f 473/2/6 440/2/6 474/2/6
f 461/1/6 462/1/6 474/1/6
f 441/1/6 447/1/6 475/1/6
f 447/3/6 448/3/6 475/3/6
f 448/5/6 381/5/6 476/5/6
f 475/3/6 448/3/6 476/3/6
f 425/1/6 449/1/6 477/1/6
f 449/1/6 450/1/6 477/1/6
f 450/5/6 467/5/6 478/5/6
f 477/1/6 450/1/6 478/1/6
f 467/1/6 468/1/6 479/1/6
f 478/5/6 467/5/6 479/5/6
f 479/1/6 468/1/6 480/1/6
f 468/1/6 444/1/6 481/1/6
f 480/1/6 468/1/6 481/1/6
f 444/1/6 430/1/6 481/1/6
f 430/5/6 457/5/6 482/5/6
f 481/1/6 430/1/6 482/1/6
f 457/1/6 469/1/6 483/1/6
f 482/5/6 457/5/6 483/5/6
f 483/1/6 469/1/6 484/1/6
f 474/1/6 462/1/6 485/1/6
f 473/1/6 474/1/6 485/1/6
f 462/5/6 423/5/6 486/5/6
f 485/1/6 462/1/6 486/1/6
f 423/1/6 441/1/6 487/1/6
f 486/5/6 423/5/6 487/5/6
f 475/1/6 476/1/6 487/1/6
f 441/1/6 475/1/6 487/1/6
f 487/1/6 476/1/6 488/1/6
f 459/3/6 460/3/6 489/3/6
f 446/5/6 459/5/6 489/5/6
f 489/3/6 460/3/6 490/3/6
f 488/1/6 476/1/6 491/1/6
f 476/5/6 381/5/6 492/5/6
f 491/1/6 476/1/6 492/1/6
f 381/1/6 425/1/6 493/1/6
f 492/5/6 381/5/6 493/5/6
f 425/1/6 477/1/6 493/1/6
f 493/1/6 477/1/6 494/1/6
f 494/1/6 477/1/6 495/1/6
f 478/5/6 479/5/6 496/5/6
f 479/2/6 480/2/6 497/2/6
f 496/5/6 479/5/6 497/5/6
f 480/1/6 481/1/6 498/1/6
f 497/2/6 480/2/6 498/2/6
f 473/1/6 485/1/6 499/1/6
f 499/1/6 485/1/6 500/1/6
f 495/1/6 496/1/6 501/1/6
f 494/1/6 495/1/6 501/1/6
f 501/1/6 496/1/6 502/1/6
f 484/1/6 469/1/6 503/1/6
f 469/4/6 470/4/6 503/4/6
f 470/5/6 471/5/6 504/5/6
f 503/4/6 470/4/6 504/4/6
f 471/4/6 472/4/6 505/4/6
f 504/5/6 471/5/6 505/5/6
f 472/1/6 446/1/6 506/1/6
f 505/4/6 472/4/6 506/4/6
f 500/1/6 485/1/6 507/1/6
f 486/5/6 487/5/6 508/5/6
f 487/2/6 488/2/6 509/2/6
f 508/5/6 487/5/6 509/5/6
f 488/1/6 491/1/6 510/1/6
f 509/2/6 488/2/6 510/2/6
f 496/5/6 497/5/6 511/5/6
f 497/1/6 498/1/6 511/1/6
f 498/1/6 481/1/6 512/1/6
f 511/1/6 498/1/6 512/1/6
f 481/2/6 482/2/6 513/2/6
f 512/1/6 481/1/6 513/1/6
f 482/5/6 483/5/6 514/5/6
f 513/2/6 482/2/6 514/2/6
f 514/5/6 483/5/6 515/5/6
f 503/1/6 504/1/6 516/1/6
f 484/1/6 503/1/6 516/1/6
f 506/1/6 446/1/6 517/1/6
f 505/1/6 506/1/6 517/1/6
f 446/5/6 489/5/6 518/5/6
f 517/1/6 446/1/6 518/1/6
f 512/1/6 513/1/6 519/1/6
f 513/1/6 514/1/6 519/1/6
f 519/1/6 514/1/6 520/1/6
f 491/4/6 492/4/6 521/4/6
f 510/1/6 491/1/6 521/1/6
f 509/1/6 510/1/6 521/1/6
f 492/5/6 493/5/6 522/5/6
f 521/4/6 492/4/6 522/4/6
f 493/4/6 494/4/6 523/4/6
f 522/5/6 493/5/6 523/5/6
f 494/1/6 501/1/6 524/1/6
f 523/4/6 494/4/6 524/4/6
f 501/2/6 502/2/6 525/2/6
f 524/1/6 501/1/6 525/1/6
f 502/1/6 496/1/6 526/1/6
f 525/2/6 502/2/6 526/2/6
f 496/5/6 511/5/6 527/5/6
f 511/3/6 512/3/6 527/3/6
f 512/1/6 519/1/6 528/1/6
f 527/3/6 512/3/6 528/3/6
f 519/4/6 520/4/6 529/4/6
f 528/1/6 519/1/6 529/1/6
f 520/1/6 514/1/6 530/1/6
f 529/4/6 520/4/6 530/4/6
f 515/1/6 516/1/6 531/1/6
f 516/1/6 504/1/6 531/1/6
f 504/5/6 505/5/6 532/5/6
f 531/1/6 504/1/6 532/1/6
f 505/1/6 517/1/6 533/1/6
f 517/3/6 518/3/6 533/3/6
f 518/5/6 489/5/6 534/5/6
f 533/3/6 518/3/6 534/3/6
f 507/1/6 508/1/6 535/1/6
f 500/1/6 507/1/6 535/1/6
f 508/5/6 509/5/6 536/5/6
f 535/1/6 508/1/6 536/1/6
f 509/1/6 521/1/6 537/1/6
f 536/5/6 509/5/6 537/5/6
f 521/1/6 522/1/6 537/1/6
f 537/1/6 522/1/6 538/1/6
f 525/1/6 526/1/6 539/1/6
f 524/1/6 525/1/6 539/1/6
f 523/1/6 524/1/6 539/1/6
f 526/1/6 496/1/6 540/1/6
f 539/1/6 526/1/6 540/1/6
f 496/5/6 527/5/6 540/5/6
f 528/1/6 529/1/6 541/1/6
f 540/5/6 527/5/6 541/5/6
f 527/1/6 528/1/6 541/1/6
f 529/1/6 530/1/6 541/1/6
f 541/1/6 530/1/6 542/1/6
f 530/1/6 514/1/6 543/1/6
f 542/1/6 530/1/6 543/1/6
f 514/5/6 515/5/6 544/5/6
f 543/1/6 514/1/6 544/1/6
f 515/1/6 531/1/6 545/1/6
f 544/5/6 515/5/6 545/5/6
f 545/1/6 531/1/6 546/1/6
f 499/4/6 500/4/6 547/4/6
f 500/1/6 535/1/6 548/1/6
f 547/4/6 500/4/6 548/4/6
f 533/1/6 534/1/6 549/1/6
f 534/5/6 489/5/6 550/5/6
f 549/1/6 534/1/6 550/1/6
f 548/1/6 535/1/6 551/1/6
f 535/4/6 536/4/6 551/4/6
f 547/1/6 548/1/6 551/1/6
f 536/5/6 537/5/6 552/5/6
f 551/4/6 536/4/6 552/4/6
f 523/1/6 539/1/6 553/1/6
f 522/5/6 523/5/6 553/5/6
f 553/1/6 539/1/6 554/1/6
f 539/2/6 540/2/6 555/2/6
f 554/1/6 539/1/6 555/1/6
f 540/5/6 541/5/6 556/5/6
f 555/2/6 540/2/6 556/2/6
f 556/5/6 541/5/6 557/5/6
f 542/1/6 543/1/6 558/1/6
f 543/3/6 544/3/6 559/3/6
f 558/1/6 543/1/6 559/1/6
f 544/5/6 545/5/6 560/5/6
f 559/3/6 544/3/6 560/3/6
f 545/3/6 546/3/6 561/3/6
f 560/5/6 545/5/6 561/5/6
f 546/1/6 531/1/6 562/1/6
f 561/3/6 546/3/6 562/3/6
f 562/1/6 531/1/6 563/1/6
f 532/5/6 505/5/6 564/5/6
f 505/1/6 533/1/6 565/1/6
f 564/5/6 505/5/6 565/5/6
f 533/1/6 549/1/6 565/1/6
f 565/1/6 549/1/6 566/1/6
f 563/1/6 564/1/6 567/1/6
f 562/1/6 563/1/6 567/1/6
f 561/1/6 562/1/6 567/1/6
f 567/1/6 564/1/6 568/1/6
f 566/1/6 549/1/6 569/1/6
f 549/3/6 550/3/6 569/3/6
f 550/5/6 489/5/6 570/5/6
f 569/3/6 550/3/6 570/3/6
f 551/1/6 552/1/6 571/1/6
f 547/1/6 551/1/6 571/1/6
f 552/5/6 537/5/6 572/5/6
f 571/1/6 552/1/6 572/1/6
f 572/5/6 537/5/6 573/5/6
f 538/1/6 522/1/6 574/1/6
f 554/1/6 555/1/6 575/1/6
f 555/1/6 556/1/6 575/1/6
f 556/5/6 557/5/6 576/5/6
f 575/1/6 556/1/6 576/1/6
f 559/1/6 560/1/6 577/1/6
f 576/5/6 557/5/6 577/5/6
f 557/1/6 558/1/6 577/1/6
f 558/1/6 559/1/6 577/1/6
f 577/1/6 560/1/6 578/1/6
f 578/1/6 560/1/6 579/1/6
f 579/1/6 560/1/6 580/1/6
f 522/5/6 553/5/6 581/5/6
f 554/1/6 575/1/6 582/1/6
f 565/4/6 566/4/6 583/4/6
f 564/5/6 565/5/6 583/5/6
f 569/1/6 570/1/6 584/1/6
f 583/4/6 566/4/6 584/4/6
f 566/1/6 569/1/6 584/1/6
f 567/3/6 568/3/6 585/3/6
f 561/1/6 567/1/6 585/1/6
f 568/1/6 564/1/6 586/1/6
f 585/3/6 568/3/6 586/3/6
f 547/1/6 571/1/6 587/1/6
f 571/2/6 572/2/6 587/2/6
f 572/5/6 573/5/6 588/5/6
f 587/2/6 572/2/6 588/2/6
f 578/1/6 579/1/6 589/1/6
f 580/1/6 560/1/6 590/1/6
f 547/1/6 587/1/6 591/1/6
f 587/1/6 588/1/6 591/1/6
f 588/5/6 573/5/6 592/5/6
f 591/1/6 588/1/6 592/1/6
f 573/1/6 574/1/6 593/1/6
f 592/5/6 573/5/6 593/5/6
f 593/1/6 574/1/6 594/1/6
f 575/3/6 576/3/6 595/3/6
f 581/1/6 582/1/6 595/1/6
f 582/1/6 575/1/6 595/1/6
f 576/5/6 577/5/6 596/5/6
f 595/3/6 576/3/6 596/3/6
f 577/3/6 578/3/6 597/3/6
f 596/5/6 577/5/6 597/5/6
f 589/1/6 590/1/6 598/1/6
f 597/3/6 578/3/6 598/3/6
f 578/1/6 589/1/6 598/1/6
f 586/1/6 564/1/6 599/1/6
f 585/1/6 586/1/6 599/1/6
f 564/5/6 583/5/6 600/5/6
f 599/1/6 564/1/6 600/1/6
f 583/1/6 584/1/6 601/1/6
f 600/5/6 583/5/6 601/5/6
f 601/1/6 584/1/6 602/1/6
f 584/1/6 570/1/6 603/1/6
f 602/1/6 584/1/6 603/1/6
f 570/5/6 489/5/6 604/5/6
f 603/1/6 570/1/6 604/1/6
f 489/1/6 490/1/6 605/1/6
f 604/5/6 489/5/6 605/5/6
f 605/1/6 490/1/6 606/1/6
f 594/1/6 574/1/6 607/1/6
f 522/5/6 581/5/6 608/5/6
f 607/1/6 574/1/6 608/1/6
f 574/1/6 522/1/6 608/1/6
f 598/1/6 590/1/6 609/1/6
f 597/1/6 598/1/6 609/1/6
f 560/5/6 561/5/6 610/5/6
f 609/1/6 590/1/6 610/1/6
f 590/1/6 560/1/6 610/1/6
f 585/1/6 599/1/6 611/1/6
f 611/1/6 599/1/6 612/1/6
f 581/1/6 595/1/6 613/1/6
f 595/1/6 596/1/6 613/1/6
f 596/5/6 597/5/6 614/5/6
f 613/1/6 596/1/6 614/1/6
f 597/1/6 609/1/6 615/1/6
f 614/5/6 597/5/6 615/5/6
f 615/1/6 609/1/6 616/1/6
f 616/1/6 609/1/6 617/1/6
f 609/3/6 610/3/6 617/3/6
f 610/5/6 561/5/6 618/5/6
f 617/3/6 610/3/6 618/3/6
f 599/3/6 600/3/6 619/3/6
f 612/1/6 599/1/6 619/1/6
f 600/5/6 601/5/6 620/5/6
f 619/3/6 600/3/6 620/3/6
f 601/3/6 602/3/6 621/3/6
f 620/5/6 601/5/6 621/5/6
f 602/1/6 603/1/6 622/1/6
f 621/3/6 602/3/6 622/3/6
f 547/1/6 591/1/6 623/1/6
f 592/5/6 593/5/6 624/5/6
f 593/4/6 594/4/6 625/4/6
f 624/5/6 593/5/6 625/5/6
f 594/1/6 607/1/6 626/1/6
f 625/4/6 594/4/6 626/4/6
f 585/1/6 611/1/6 627/1/6
f 619/1/6 620/1/6 628/1/6
f 612/1/6 619/1/6 628/1/6
f 607/3/6 608/3/6 629/3/6
f 625/1/6 626/1/6 629/1/6
f 626/1/6 607/1/6 629/1/6
f 608/5/6 581/5/6 630/5/6
f 629/3/6 608/3/6 630/3/6
f 581/1/6 613/1/6 631/1/6
f 614/5/6 615/5/6 632/5/6
f 615/4/6 616/4/6 633/4/6
f 632/5/6 615/5/6 633/5/6
f 616/1/6 617/1/6 634/1/6
f 633/4/6 616/4/6 634/4/6
f 617/1/6 618/1/6 634/1/6
f 623/1/6 624/1/6 635/1/6
f 547/1/6 623/1/6 635/1/6
f 624/5/6 625/5/6 636/5/6
f 635/1/6 624/1/6 636/1/6
f 625/1/6 629/1/6 637/1/6
f 636/5/6 625/5/6 637/5/6
f 629/1/6 630/1/6 637/1/6
f 630/5/6 581/5/6 638/5/6
f 637/1/6 630/1/6 638/1/6
f 631/1/6 632/1/6 639/1/6
f 638/5/6 581/5/6 639/5/6
f 581/1/6 631/1/6 639/1/6
f 632/5/6 633/5/6 640/5/6
f 639/1/6 632/1/6 640/1/6
f 633/1/6 634/1/6 641/1/6
f 640/5/6 633/5/6 641/5/6
f 634/1/6 618/1/6 642/1/6
f 641/1/6 634/1/6 642/1/6
f 618/5/6 561/5/6 642/5/6
f 561/1/6 585/1/6 643/1/6
f 642/5/6 561/5/6 643/5/6
f 627/1/6 628/1/6 643/1/6
f 585/1/6 627/1/6 643/1/6
f 620/5/6 621/5/6 644/5/6
f 643/1/6 628/1/6 644/1/6
f 628/1/6 620/1/6 644/1/6
f 621/1/6 622/1/6 645/1/6
f 644/5/6 621/5/6 645/5/6
f 622/1/6 603/1/6 646/1/6
f 645/1/6 622/1/6 646/1/6
f 604/5/6 605/5/6 647/5/6
f 605/2/6 606/2/6 648/2/6
f 647/5/6 605/5/6 648/5/6
f 648/2/6 606/2/6 649/2/6
f 650/3/6 651/3/6 660/3/6
f 660/3/6 651/3/6 661/3/6
f 654/4/6 655/4/6 662/4/6
f 662/4/6 655/4/6 663/4/6
f 652/4/6 653/4/6 664/4/6
f 664/4/6 653/4/6 665/4/6
f 658/3/6 659/3/6 666/3/6
f 666/3/6 659/3/6 667/3/6
f 656/2/6 657/2/6 668/2/6
f 668/2/6 657/2/6 669/2/6
f 670/4/6 671/4/6 672/4/6
f 672/4/6 671/4/6 673/4/6
f 674/2/6 675/2/6 680/2/6
f 680/2/6 675/2/6 681/2/6
f 678/2/6 679/2/6 682/2/6
f 682/2/6 679/2/6 683/2/6
f 676/2/6 677/2/6 684/2/6
f 684/2/6 677/2/6 685/2/6
f 690/2/6 691/2/6 694/2/6
f 694/2/6 691/2/6 695/2/6
f 686/2/6 687/2/6 696/2/6
f 696/2/6 687/2/6 697/2/6
f 688/3/6 689/3/6 698/3/6
f 698/3/6 689/3/6 699/3/6
f 692/4/6 693/4/6 702/4/6
f 702/4/6 693/4/6 703/4/6
f 700/4/6 701/4/6 704/4/6
f 704/4/6 701/4/6 705/4/6
f 706/4/6 707/4/6 714/4/6
f 714/4/6 707/4/6 715/4/6
f 710/4/6 711/4/6 716/4/6
f 716/4/6 711/4/6 717/4/6
f 712/4/6 713/4/6 718/4/6
f 718/4/6 713/4/6 719/4/6
f 708/2/6 709/2/6 720/2/6
f 720/2/6 709/2/6 721/2/6
